<svg xmlns="http://www.w3.org/2000/svg" viewBox="0 0 605.96 85.65"><defs><style>.cls-1{fill:#fff;}.cls-2{fill:#f38f1a;}</style></defs><g id="Camada_2" data-name="Camada 2"><g id="Camada_1-2" data-name="Camada 1"><path class="cls-1" d="M73.44,82.47A1.42,1.42,0,0,1,73,83.63a2.05,2.05,0,0,1-1.35.4H56.13a2.35,2.35,0,0,1-2.42-1.77L50.27,72.2H23.17L19.73,82.26A2.3,2.3,0,0,1,17.31,84H1.88a2.15,2.15,0,0,1-1.37-.4A1.39,1.39,0,0,1,0,82.47a2.82,2.82,0,0,1,.16-.91L27.69,10.11a2.43,2.43,0,0,1,2.47-1.72H43.44a2.43,2.43,0,0,1,2.47,1.72L73.28,81.56A2.82,2.82,0,0,1,73.44,82.47ZM44.84,56.08,37.63,34.89l-1-3.44-.81,3.44-7.2,21.19Z"/><path class="cls-1" d="M98.33,84H84.52a1.9,1.9,0,0,1-2.15-2.15V2.15A1.9,1.9,0,0,1,84.52,0H98.33a1.9,1.9,0,0,1,2.15,2.15V81.88A1.9,1.9,0,0,1,98.33,84Z"/><path class="cls-1" d="M161.83,19h14A1.9,1.9,0,0,1,178,21.13V81.88A1.9,1.9,0,0,1,175.81,84h-10.7a2.49,2.49,0,0,1-2.48-1.66l-2.31-5.54a30.43,30.43,0,0,1-9.3,5.94,27.18,27.18,0,0,1-10.59,2.34,26.32,26.32,0,0,1-13.87-3.6,24.26,24.26,0,0,1-9.25-10.19A33.71,33.71,0,0,1,114,56.08V21.13A1.9,1.9,0,0,1,116.18,19h14a1.9,1.9,0,0,1,2.15,2.15V54a17,17,0,0,0,1.59,7.56,11.79,11.79,0,0,0,4.46,5,12.43,12.43,0,0,0,6.69,1.78,14.88,14.88,0,0,0,12.69-6.94,12.34,12.34,0,0,0,1.94-6.61V21.13A1.9,1.9,0,0,1,161.83,19Z"/><path class="cls-1" d="M240.43,21.72a2,2,0,0,1,1.13,1.72,2.71,2.71,0,0,1-.33,1.24l-6.18,11.61a1.89,1.89,0,0,1-1.67,1.18,2.24,2.24,0,0,1-1.23-.37A15.25,15.25,0,0,0,224.73,35a12,12,0,0,0-6.48,1.93,14.11,14.11,0,0,0-5,5.73,19.8,19.8,0,0,0-1.93,9.11V81.88A1.9,1.9,0,0,1,209.14,84h-14A1.9,1.9,0,0,1,193,81.88V21.13A1.9,1.9,0,0,1,195.16,19h10.7a2.5,2.5,0,0,1,2.47,1.67L211,26.94a18.55,18.55,0,0,1,6.78-6.62,19.12,19.12,0,0,1,9.62-2.42A25.47,25.47,0,0,1,240.43,21.72Z"/><path class="cls-1" d="M296,19h10.32a1.9,1.9,0,0,1,2.15,2.15V81.88A1.9,1.9,0,0,1,306.29,84h-10.7a2.48,2.48,0,0,1-2.47-1.66l-1.35-3.23q-6.72,6.28-16.88,6.29A32.82,32.82,0,0,1,258,80.89,33.66,33.66,0,0,1,245.7,68.58a33.3,33.3,0,0,1-4.52-17,32.7,32.7,0,0,1,4.54-16.91A33.83,33.83,0,0,1,258,22.42a32.92,32.92,0,0,1,16.88-4.52q10.28,0,17,6.4l1.56-3.65A2.5,2.5,0,0,1,296,19ZM283.36,65.89a15.23,15.23,0,0,0,5.81-5.76,16.35,16.35,0,0,0,2.12-8.3,16.92,16.92,0,0,0-2.1-8.42,15.46,15.46,0,0,0-5.75-5.88,16.45,16.45,0,0,0-16.21,0,15.16,15.16,0,0,0-5.7,5.89,17.21,17.21,0,0,0-2.07,8.44,16.8,16.8,0,0,0,2,8.33,15,15,0,0,0,5.62,5.73A15.84,15.84,0,0,0,275.21,68,16.35,16.35,0,0,0,283.36,65.89Z"/><path class="cls-1" d="M366,80.11a39,39,0,0,1-19.38-34A38.7,38.7,0,0,1,351.8,26.4,38.13,38.13,0,0,1,366,12.23a39.16,39.16,0,0,1,20-5.19,39.73,39.73,0,0,1,12.77,2.05,38.84,38.84,0,0,1,11.05,5.75,2,2,0,0,1,.91,1.61,2.29,2.29,0,0,1-.54,1.4l-8.7,11.4a2.12,2.12,0,0,1-1.62.91,2.49,2.49,0,0,1-1.4-.48,24.3,24.3,0,0,0-6-3,20.14,20.14,0,0,0-6.51-1.1,18.55,18.55,0,0,0-9.73,2.72A20.33,20.33,0,0,0,369,35.75a21.36,21.36,0,0,0,0,20.86,20.44,20.44,0,0,0,7.26,7.48,18.53,18.53,0,0,0,9.7,2.74,20.86,20.86,0,0,0,6.53-.94,22.94,22.94,0,0,0,6.05-3.26,2.71,2.71,0,0,1,1.45-.48,2,2,0,0,1,1.62.91l8.54,11.46a2.74,2.74,0,0,1,.6,1.5,1.82,1.82,0,0,1-.81,1.4,38.54,38.54,0,0,1-11.13,5.89,39.91,39.91,0,0,1-12.85,2.07A38.76,38.76,0,0,1,366,80.11Z"/><path class="cls-1" d="M469,19h10.32a1.9,1.9,0,0,1,2.15,2.15V81.88A1.9,1.9,0,0,1,479.35,84h-10.7a2.49,2.49,0,0,1-2.47-1.66l-1.34-3.23q-6.73,6.28-16.89,6.29A32.85,32.85,0,0,1,431,80.89a33.74,33.74,0,0,1-12.26-12.31,33.3,33.3,0,0,1-4.52-17,32.71,32.71,0,0,1,4.55-16.91,33.8,33.8,0,0,1,12.28-12.23A32.92,32.92,0,0,1,448,17.9q10.28,0,17.05,6.4l1.56-3.65A2.49,2.49,0,0,1,469,19ZM456.42,65.89a15.16,15.16,0,0,0,5.81-5.76,16.35,16.35,0,0,0,2.12-8.3,16.92,16.92,0,0,0-2.1-8.42,15.39,15.39,0,0,0-5.75-5.88,16.45,16.45,0,0,0-16.21,0,15.16,15.16,0,0,0-5.7,5.89,17.21,17.21,0,0,0-2.07,8.44,16.7,16.7,0,0,0,2.05,8.33,14.81,14.81,0,0,0,5.62,5.73A15.84,15.84,0,0,0,448.28,68,16.32,16.32,0,0,0,456.42,65.89Z"/><path class="cls-1" d="M504.86,83.09a40.71,40.71,0,0,1-12-7.5A2,2,0,0,1,492,74a2.35,2.35,0,0,1,.59-1.45l7.26-9.08a2.08,2.08,0,0,1,1.55-.92,2.81,2.81,0,0,1,1.46.59,35.93,35.93,0,0,0,7.77,4.57,19.82,19.82,0,0,0,7.76,1.62,7.81,7.81,0,0,0,4.31-1,3.38,3.38,0,0,0,1.61-3,3.52,3.52,0,0,0-.94-2.36,10.07,10.07,0,0,0-3.26-2.18,63.75,63.75,0,0,0-6.55-2.55,37.77,37.77,0,0,1-13.39-7.48q-5.27-4.72-5.27-13A19.21,19.21,0,0,1,497.5,28a19,19,0,0,1,7.95-7.29A28.45,28.45,0,0,1,518.6,17.9a31.34,31.34,0,0,1,11,2.13,28.86,28.86,0,0,1,10,6.31,2.17,2.17,0,0,1,.76,1.51,2.47,2.47,0,0,1-.76,1.51l-8.49,8.76a2.06,2.06,0,0,1-1.51.75,2.47,2.47,0,0,1-1.5-.64,20.81,20.81,0,0,0-4.87-2.93A13.2,13.2,0,0,0,518,34.14a7.13,7.13,0,0,0-4.17,1,3.25,3.25,0,0,0-1.42,2.8,3,3,0,0,0,1,2.23,11.9,11.9,0,0,0,3.37,2q2.31,1,6.45,2.34,8.87,2.85,13.71,7.63t4.84,13a19.7,19.7,0,0,1-2.72,10,20.26,20.26,0,0,1-7.9,7.61,24.74,24.74,0,0,1-12.29,2.91A37.81,37.81,0,0,1,504.86,83.09Z"/><path class="cls-1" d="M569.19,84h-14a1.9,1.9,0,0,1-2.15-2.15v-46h-5.37a1.9,1.9,0,0,1-2.15-2.15V21.13A1.9,1.9,0,0,1,547.69,19H553V7.26a2.17,2.17,0,0,1,1.94-2.37L569,2.15a2.61,2.61,0,0,1,.54,0,1.73,1.73,0,0,1,1.34.53,2.12,2.12,0,0,1,.48,1.46V19H581.5a1.9,1.9,0,0,1,2.15,2.15V33.76a1.9,1.9,0,0,1-2.15,2.15H571.34v46A1.9,1.9,0,0,1,569.19,84Z"/><path class="cls-2" d="M603.81,84H589.57a1.9,1.9,0,0,1-2.15-2.15V69.25a1.9,1.9,0,0,1,2.15-2.15h14.24A1.9,1.9,0,0,1,606,69.25V81.88A1.9,1.9,0,0,1,603.81,84Z"/></g></g></svg>