<svg xmlns="http://www.w3.org/2000/svg" viewBox="0 0 675.91 85.75"><defs><style>.cls-1{fill:#fff;}.cls-2{fill:#f38f1a;}</style></defs><g id="Camada_2" data-name="Camada 2"><g id="Camada_1-2" data-name="Camada 1"><path class="cls-1" d="M19.38,80.21A38.92,38.92,0,0,1,0,46.24,38.7,38.7,0,0,1,5.19,26.51,38.13,38.13,0,0,1,19.35,12.34,39.16,39.16,0,0,1,39.3,7.15a40,40,0,0,1,12.77,2,38.87,38.87,0,0,1,11,5.76A2,2,0,0,1,64,16.56a2.29,2.29,0,0,1-.54,1.4l-8.7,11.39a2.14,2.14,0,0,1-1.62.92,2.49,2.49,0,0,1-1.4-.48,24.3,24.3,0,0,0-6-3,20.14,20.14,0,0,0-6.51-1.1,18.54,18.54,0,0,0-9.73,2.71,20.36,20.36,0,0,0-7.23,7.45,21.36,21.36,0,0,0,0,20.86,20.33,20.33,0,0,0,7.26,7.47,18.45,18.45,0,0,0,9.7,2.75A20.86,20.86,0,0,0,45.83,66a23.39,23.39,0,0,0,6.05-3.26,2.71,2.71,0,0,1,1.45-.48,2,2,0,0,1,1.62.91l8.54,11.45a2.79,2.79,0,0,1,.6,1.51,1.82,1.82,0,0,1-.81,1.4,38.27,38.27,0,0,1-11.13,5.88A39.91,39.91,0,0,1,39.3,85.48,38.63,38.63,0,0,1,19.38,80.21Z"/><path class="cls-1" d="M84.7,81.24A33.8,33.8,0,0,1,72.23,69,32.62,32.62,0,0,1,67.63,52a33,33,0,0,1,4.63-17.15A34,34,0,0,1,84.81,22.55a35.69,35.69,0,0,1,34.84,0A34,34,0,0,1,132.2,34.89,33,33,0,0,1,136.83,52,32.29,32.29,0,0,1,132.18,69a34,34,0,0,1-12.64,12.26A34.91,34.91,0,0,1,102,85.75,34.24,34.24,0,0,1,84.7,81.24Zm25.76-15.11a15.91,15.91,0,0,0,5.91-5.89,16.2,16.2,0,0,0,2.18-8.3,16.45,16.45,0,0,0-2.18-8.39,15.91,15.91,0,0,0-5.91-5.92,16.83,16.83,0,0,0-16.46,0,15.91,15.91,0,0,0-5.91,5.92,16.45,16.45,0,0,0-2.18,8.39,16.2,16.2,0,0,0,2.18,8.3A15.91,15.91,0,0,0,94,66.13a16.83,16.83,0,0,0,16.46,0Z"/><path class="cls-1" d="M194.41,0h14a1.91,1.91,0,0,1,2.16,2.15V82a1.91,1.91,0,0,1-2.16,2.15H197.69a2.5,2.5,0,0,1-2.48-1.67l-1.34-3.22q-6.72,6.28-16.88,6.29A33,33,0,0,1,160.05,81a33.69,33.69,0,0,1-12.26-12.32,33.25,33.25,0,0,1-4.51-17,32.7,32.7,0,0,1,4.54-16.91,33.75,33.75,0,0,1,12.29-12.23A32.9,32.9,0,0,1,177,18a24.15,24.15,0,0,1,15.27,4.89V2.15A1.9,1.9,0,0,1,194.41,0Zm-8.95,66a15.21,15.21,0,0,0,5.8-5.76,16.25,16.25,0,0,0,2.12-8.3,16.88,16.88,0,0,0-2.09-8.42,16.12,16.12,0,0,0-22-5.91,15.09,15.09,0,0,0-5.7,5.89,17.19,17.19,0,0,0-2.07,8.44,16.83,16.83,0,0,0,2,8.33A14.81,14.81,0,0,0,169.22,66a15.83,15.83,0,0,0,8.09,2.06A16.37,16.37,0,0,0,185.46,66Z"/><path class="cls-1" d="M237.69,81.18a32.35,32.35,0,0,1-12.07-12.31A34,34,0,0,1,221.29,52a35.85,35.85,0,0,1,4.11-17,31.84,31.84,0,0,1,11.48-12.36A30.87,30.87,0,0,1,253.6,18a34,34,0,0,1,17.53,4.36,28.75,28.75,0,0,1,11.31,12,38.09,38.09,0,0,1,3.9,17.47c0,1.44-.07,2.85-.21,4.25a2,2,0,0,1-2.26,2H240.05a16.05,16.05,0,0,0,6.08,8.39,16.68,16.68,0,0,0,9.78,3,18.75,18.75,0,0,0,6.32-1,22.87,22.87,0,0,0,5.51-2.87,2.29,2.29,0,0,1,1.4-.54,2,2,0,0,1,1.56,1l6.61,9.4a2.42,2.42,0,0,1,.48,1.35,2,2,0,0,1-.86,1.61,34.1,34.1,0,0,1-10,5.4,35.61,35.61,0,0,1-11.8,1.91A33.67,33.67,0,0,1,237.69,81.18Zm25.43-44.67a14.1,14.1,0,0,0-8.93-2.85,14.27,14.27,0,0,0-8.95,2.9,15.44,15.44,0,0,0-5.35,8.12h28.39A15.31,15.31,0,0,0,263.12,36.51Z"/><path class="cls-1" d="M312.71,80.21a38.92,38.92,0,0,1-19.38-34,38.7,38.7,0,0,1,5.19-19.73,38.13,38.13,0,0,1,14.16-14.17,39.16,39.16,0,0,1,19.95-5.19,40,40,0,0,1,12.77,2A38.87,38.87,0,0,1,356.45,15a2,2,0,0,1,.91,1.61,2.29,2.29,0,0,1-.54,1.4l-8.7,11.39a2.14,2.14,0,0,1-1.62.92,2.49,2.49,0,0,1-1.4-.48,24.3,24.3,0,0,0-6-3,20.14,20.14,0,0,0-6.51-1.1,18.54,18.54,0,0,0-9.73,2.71,20.36,20.36,0,0,0-7.23,7.45,21.36,21.36,0,0,0,0,20.86,20.33,20.33,0,0,0,7.26,7.47,18.45,18.45,0,0,0,9.7,2.75,20.86,20.86,0,0,0,6.53-.94,23.39,23.39,0,0,0,6-3.26,2.71,2.71,0,0,1,1.45-.48,2,2,0,0,1,1.62.91l8.54,11.45a2.79,2.79,0,0,1,.6,1.51,1.82,1.82,0,0,1-.81,1.4,38.27,38.27,0,0,1-11.13,5.88,39.91,39.91,0,0,1-12.85,2.07A38.63,38.63,0,0,1,312.71,80.21Z"/><path class="cls-1" d="M419.19,21.61a24.2,24.2,0,0,1,9.25,10.19A33.85,33.85,0,0,1,431.72,47V82a1.9,1.9,0,0,1-2.15,2.15h-14A1.9,1.9,0,0,1,413.44,82V49.09a17,17,0,0,0-1.59-7.56,11.86,11.86,0,0,0-4.46-5,12.44,12.44,0,0,0-6.7-1.78,14.75,14.75,0,0,0-7.39,1.91,14.54,14.54,0,0,0-5.29,5,12.34,12.34,0,0,0-1.94,6.61V82a1.9,1.9,0,0,1-2.15,2.15H370.1A1.9,1.9,0,0,1,368,82V2.26A1.9,1.9,0,0,1,370.1.11h13.82a1.9,1.9,0,0,1,2.15,2.15V25.7a30.63,30.63,0,0,1,9.09-5.54A27.17,27.17,0,0,1,405.32,18,26.32,26.32,0,0,1,419.19,21.61Z"/><path class="cls-1" d="M457.36,81.18a32.49,32.49,0,0,1-12.07-12.31A34.08,34.08,0,0,1,441,52a35.75,35.75,0,0,1,4.12-17,31.82,31.82,0,0,1,11.47-12.36A30.9,30.9,0,0,1,473.28,18a33.92,33.92,0,0,1,17.52,4.36,28.71,28.71,0,0,1,11.32,12A38.09,38.09,0,0,1,506,51.88c0,1.44-.08,2.85-.22,4.25a2,2,0,0,1-2.26,2H459.73a16,16,0,0,0,6.07,8.39,16.71,16.71,0,0,0,9.79,3,18.69,18.69,0,0,0,6.31-1,22.93,22.93,0,0,0,5.52-2.87,2.26,2.26,0,0,1,1.39-.54,1.93,1.93,0,0,1,1.56,1l6.61,9.4a2.36,2.36,0,0,1,.49,1.35,2,2,0,0,1-.86,1.61,34.15,34.15,0,0,1-10,5.4,35.57,35.57,0,0,1-11.8,1.91A33.69,33.69,0,0,1,457.36,81.18Zm25.43-44.67a14.07,14.07,0,0,0-8.92-2.85,14.25,14.25,0,0,0-8.95,2.9,15.39,15.39,0,0,0-5.35,8.12H488A15.19,15.19,0,0,0,482.79,36.51Z"/><path class="cls-1" d="M532.74,84.14H518.92A1.9,1.9,0,0,1,516.77,82V2.26A1.9,1.9,0,0,1,518.92.11h13.82a1.9,1.9,0,0,1,2.15,2.15V82A1.9,1.9,0,0,1,532.74,84.14Z"/><path class="cls-1" d="M565.91,84.14H552.09A1.9,1.9,0,0,1,549.94,82V2.26A1.9,1.9,0,0,1,552.09.11h13.82a1.9,1.9,0,0,1,2.15,2.15V82A1.9,1.9,0,0,1,565.91,84.14Z"/><path class="cls-1" d="M633.59,19.09h10.33a1.9,1.9,0,0,1,2.15,2.15V82a1.9,1.9,0,0,1-2.15,2.15h-10.7a2.49,2.49,0,0,1-2.47-1.67l-1.35-3.22q-6.72,6.28-16.88,6.29A33,33,0,0,1,595.58,81a33.66,33.66,0,0,1-12.25-12.32,33.26,33.26,0,0,1-4.52-17,32.7,32.7,0,0,1,4.54-16.91,33.83,33.83,0,0,1,12.29-12.23A32.92,32.92,0,0,1,612.52,18q10.28,0,17,6.4l1.56-3.66A2.49,2.49,0,0,1,633.59,19.09ZM621,66a15.14,15.14,0,0,0,5.8-5.76,16.26,16.26,0,0,0,2.13-8.3,16.89,16.89,0,0,0-2.1-8.42,16.12,16.12,0,0,0-22-5.91,15.09,15.09,0,0,0-5.7,5.89,17.19,17.19,0,0,0-2.07,8.44,16.83,16.83,0,0,0,2,8.33A14.88,14.88,0,0,0,604.75,66a15.83,15.83,0,0,0,8.09,2.06A16.35,16.35,0,0,0,621,66Z"/><path class="cls-2" d="M673.75,84.14H659.51A1.9,1.9,0,0,1,657.36,82V69.35a1.9,1.9,0,0,1,2.15-2.15h14.24a1.91,1.91,0,0,1,2.16,2.15V82A1.91,1.91,0,0,1,673.75,84.14Z"/></g></g></svg>