<svg xmlns="http://www.w3.org/2000/svg" viewBox="0 0 381.82 85.75"><defs><style>.cls-1{fill:#fff;}.cls-2{fill:#f38f1a;}</style></defs><g id="Camada_2" data-name="Camada 2"><g id="Camada_1-2" data-name="Camada 1"><path class="cls-1" d="M14,82.1A38.16,38.16,0,0,1,.64,72.37,2.29,2.29,0,0,1,0,70.91,2.33,2.33,0,0,1,.81,69.3l9.51-9a2.05,2.05,0,0,1,1.45-.7,2,2,0,0,1,1.56.81A23.54,23.54,0,0,0,21,65.73a22.37,22.37,0,0,0,8.82,1.8q4.56,0,6.83-1.56a4.91,4.91,0,0,0,2.25-4.25,5.2,5.2,0,0,0-1-3.17,10.23,10.23,0,0,0-3.82-2.69,60,60,0,0,0-8.25-3,44.46,44.46,0,0,1-16-8.41q-7-5.77-7-15.62a20.61,20.61,0,0,1,3-10.81,20.89,20.89,0,0,1,9-7.93,33.82,33.82,0,0,1,14.94-3A38.78,38.78,0,0,1,44.09,9.84,42.17,42.17,0,0,1,56.24,17.1a2,2,0,0,1,.8,1.56,2.3,2.3,0,0,1-.64,1.5L47.69,30a2,2,0,0,1-1.56.86,2.34,2.34,0,0,1-1.45-.6,30.73,30.73,0,0,0-6.83-4,19.07,19.07,0,0,0-7.53-1.64q-7.58,0-7.58,4.46A4.38,4.38,0,0,0,24,32.2a10.18,10.18,0,0,0,3.3,2.21q2.07.92,6.38,2.42c.39.11,1,.3,1.77.59a66.83,66.83,0,0,1,12.63,5.75,23,23,0,0,1,7.75,7.5,20,20,0,0,1,2.74,10.67A22.31,22.31,0,0,1,45.16,82.45a34.73,34.73,0,0,1-14.84,3A40.51,40.51,0,0,1,14,82.1Z"/><path class="cls-1" d="M131.77,82.85a1.11,1.11,0,0,1-.48.94,2.27,2.27,0,0,1-1.34.35H113.33a2.83,2.83,0,0,1-2.58-1.4L95.11,58.82l-7.37,8V82a1.9,1.9,0,0,1-2.15,2.15h-14A1.9,1.9,0,0,1,69.46,82V2.26A1.9,1.9,0,0,1,71.61.11h14a1.9,1.9,0,0,1,2.15,2.15V43l18.71-22.69a3.26,3.26,0,0,1,2.63-1.23H128a2.5,2.5,0,0,1,1.37.32,1,1,0,0,1,.51.91,2,2,0,0,1-.7,1.4L107.53,45.27l23.81,36.29A2.29,2.29,0,0,1,131.77,82.85Z"/><path class="cls-1" d="M150.51,81.24A33.8,33.8,0,0,1,138,69,32.53,32.53,0,0,1,133.44,52a33,33,0,0,1,4.62-17.15,34,34,0,0,1,12.56-12.34,35.69,35.69,0,0,1,34.84,0A34.07,34.07,0,0,1,198,34.89,33,33,0,0,1,202.63,52,32.29,32.29,0,0,1,198,69a34,34,0,0,1-12.63,12.26,35,35,0,0,1-17.5,4.51A34.24,34.24,0,0,1,150.51,81.24Zm25.75-15.11a15.91,15.91,0,0,0,5.91-5.89,16.11,16.11,0,0,0,2.18-8.3,16.36,16.36,0,0,0-2.18-8.39,15.91,15.91,0,0,0-5.91-5.92,16.81,16.81,0,0,0-16.45,0,15.91,15.91,0,0,0-5.91,5.92,16.36,16.36,0,0,0-2.18,8.39,16.11,16.11,0,0,0,2.18,8.3,15.91,15.91,0,0,0,5.91,5.89,16.81,16.81,0,0,0,16.45,0Z"/><path class="cls-1" d="M226.15,81.24A33.8,33.8,0,0,1,213.68,69,32.53,32.53,0,0,1,209.08,52a33,33,0,0,1,4.63-17.15,34,34,0,0,1,12.55-12.34,35.69,35.69,0,0,1,34.84,0,34.07,34.07,0,0,1,12.55,12.34A33.05,33.05,0,0,1,278.28,52,32.39,32.39,0,0,1,273.63,69,34.11,34.11,0,0,1,261,81.24a34.94,34.94,0,0,1-17.5,4.51A34.24,34.24,0,0,1,226.15,81.24Zm25.76-15.11a15.91,15.91,0,0,0,5.91-5.89,16.2,16.2,0,0,0,2.18-8.3,16.45,16.45,0,0,0-2.18-8.39,15.91,15.91,0,0,0-5.91-5.92,16.83,16.83,0,0,0-16.46,0,15.91,15.91,0,0,0-5.91,5.92,16.45,16.45,0,0,0-2.18,8.39,16.2,16.2,0,0,0,2.18,8.3,15.91,15.91,0,0,0,5.91,5.89,16.83,16.83,0,0,0,16.46,0Z"/><path class="cls-1" d="M339.46,22.53a33.8,33.8,0,0,1,12.28,12.23,32.71,32.71,0,0,1,4.55,16.91,33.26,33.26,0,0,1-4.52,17A33.69,33.69,0,0,1,339.51,81a32.92,32.92,0,0,1-16.93,4.54q-10.17,0-16.89-6.29l-1.34,3.22a2.5,2.5,0,0,1-2.47,1.67h-10.7A1.9,1.9,0,0,1,289,82V2.15A1.9,1.9,0,0,1,291.18,0h14a1.9,1.9,0,0,1,2.15,2.15V22.9A24.11,24.11,0,0,1,322.58,18,32.92,32.92,0,0,1,339.46,22.53ZM330.34,66A14.81,14.81,0,0,0,336,60.27,16.73,16.73,0,0,0,338,51.94a17.19,17.19,0,0,0-2.07-8.44,15.09,15.09,0,0,0-5.7-5.89,16.42,16.42,0,0,0-16.21,0,15.49,15.49,0,0,0-5.75,5.89,16.89,16.89,0,0,0-2.1,8.42,16.35,16.35,0,0,0,2.12,8.3A15.16,15.16,0,0,0,314.11,66a16.31,16.31,0,0,0,8.14,2.06A15.83,15.83,0,0,0,330.34,66Z"/><path class="cls-2" d="M379.67,84.14H365.43A1.9,1.9,0,0,1,363.28,82V69.35a1.9,1.9,0,0,1,2.15-2.15h14.24a1.9,1.9,0,0,1,2.15,2.15V82A1.9,1.9,0,0,1,379.67,84.14Z"/></g></g></svg>