<svg xmlns="http://www.w3.org/2000/svg" viewBox="0 0 370.78 86.65"><defs><style>.cls-1{fill:#fff;}.cls-2{fill:#f38f1a;}</style></defs><g id="Camada_2" data-name="Camada 2"><g id="Camada_1-2" data-name="Camada 1"><path class="cls-1" d="M74.21,83.45a1.41,1.41,0,0,1-.49,1.16,2,2,0,0,1-1.36.41H56.72a2.39,2.39,0,0,1-2.45-1.79L50.8,73.07H23.42L19.94,83.23A2.33,2.33,0,0,1,17.49,85H1.9a2.1,2.1,0,0,1-1.38-.41A1.38,1.38,0,0,1,0,83.45a2.93,2.93,0,0,1,.16-.93L28,10.32a2.46,2.46,0,0,1,2.5-1.74H43.9a2.47,2.47,0,0,1,2.5,1.74l27.65,72.2A2.93,2.93,0,0,1,74.21,83.45ZM45.31,56.77,38,35.37l-1-3.48-.81,3.48L29,56.77Z"/><path class="cls-1" d="M134.19,22.76A34.28,34.28,0,0,1,146.6,35.12a33.1,33.1,0,0,1,4.59,17.09,34.11,34.11,0,0,1-16.95,29.63,33.19,33.19,0,0,1-17.11,4.59q-10.27,0-17.06-6.35l-1.36,3.26A2.51,2.51,0,0,1,96.21,85H85.4a1.92,1.92,0,0,1-2.17-2.17V2.17A1.92,1.92,0,0,1,85.4,0H99.53a1.92,1.92,0,0,1,2.17,2.17v21a24.41,24.41,0,0,1,15.43-4.94A33.29,33.29,0,0,1,134.19,22.76ZM125,66.69a15.12,15.12,0,0,0,5.68-5.79,17,17,0,0,0,2.06-8.42A17.47,17.47,0,0,0,130.63,44a15.4,15.4,0,0,0-5.76-6,16.64,16.64,0,0,0-16.38,0A15.66,15.66,0,0,0,102.68,44a17,17,0,0,0-2.12,8.5,16.38,16.38,0,0,0,2.15,8.39,15.31,15.31,0,0,0,5.86,5.82,16.54,16.54,0,0,0,8.23,2.09A16.08,16.08,0,0,0,125,66.69Z"/><path class="cls-1" d="M175,82.09a34,34,0,0,1-12.6-12.39,32.87,32.87,0,0,1-4.65-17.11,33.39,33.39,0,0,1,4.67-17.33,34.35,34.35,0,0,1,12.69-12.47A35.3,35.3,0,0,1,223,35.26a33.39,33.39,0,0,1,4.67,17.33,32.63,32.63,0,0,1-4.7,17.11,34.29,34.29,0,0,1-12.77,12.39,35.31,35.31,0,0,1-17.68,4.56A34.59,34.59,0,0,1,175,82.09Zm26-15.27a16.1,16.1,0,0,0,6-5.95,16.4,16.4,0,0,0,2.2-8.39A16.66,16.66,0,0,0,207,44a16,16,0,0,0-6-6,17,17,0,0,0-16.62,0,16,16,0,0,0-6,6,16.66,16.66,0,0,0-2.2,8.47,16.4,16.4,0,0,0,2.2,8.39,16.1,16.1,0,0,0,6,5.95,16.93,16.93,0,0,0,16.62,0Z"/><path class="cls-1" d="M285.27,19.29h14.12a1.92,1.92,0,0,1,2.18,2.17V82.85A1.92,1.92,0,0,1,299.39,85H288.58a2.52,2.52,0,0,1-2.5-1.68l-2.33-5.6a30.58,30.58,0,0,1-9.4,6,27.43,27.43,0,0,1-10.7,2.37,26.56,26.56,0,0,1-14-3.64,24.38,24.38,0,0,1-9.34-10.3A34.09,34.09,0,0,1,237,56.77V21.46a1.92,1.92,0,0,1,2.17-2.17h14.13a1.92,1.92,0,0,1,2.17,2.17V54.71a17.34,17.34,0,0,0,1.6,7.63,12,12,0,0,0,4.51,5.08,12.7,12.7,0,0,0,6.77,1.79,14.83,14.83,0,0,0,7.47-1.93,14.6,14.6,0,0,0,5.35-5.08,12.48,12.48,0,0,0,2-6.68V21.46A1.92,1.92,0,0,1,285.27,19.29Z"/><path class="cls-1" d="M333.62,85H319.49a1.92,1.92,0,0,1-2.17-2.17V36.4h-5.43a1.92,1.92,0,0,1-2.18-2.17V21.46a1.92,1.92,0,0,1,2.18-2.17h5.32V7.44a2.19,2.19,0,0,1,2-2.39l14.29-2.77a2.61,2.61,0,0,1,.54,0,1.75,1.75,0,0,1,1.36.54,2.14,2.14,0,0,1,.49,1.47V19.29h10.21a1.92,1.92,0,0,1,2.17,2.17V34.23a1.92,1.92,0,0,1-2.17,2.17H335.79V82.85A1.92,1.92,0,0,1,333.62,85Z"/><path class="cls-2" d="M368.6,85H354.21A1.92,1.92,0,0,1,352,82.85V70.08a1.92,1.92,0,0,1,2.18-2.17H368.6a1.92,1.92,0,0,1,2.18,2.17V82.85A1.92,1.92,0,0,1,368.6,85Z"/></g></g></svg>