<svg xmlns="http://www.w3.org/2000/svg" viewBox="0 0 86.65 370.78"><defs><style>.cls-1{fill:#fff;}.cls-2{fill:#f38f1a;}</style></defs><g id="Camada_2" data-name="Camada 2"><g id="Camada_1-2" data-name="Camada 1"><path class="cls-1" d="M83.45,296.57a1.41,1.41,0,0,1,1.16.49,2,2,0,0,1,.41,1.35v15.65a2.37,2.37,0,0,1-1.79,2.44L73.07,320v27.38l10.16,3.48A2.33,2.33,0,0,1,85,353.28v15.6a2.1,2.1,0,0,1-.41,1.38,1.38,1.38,0,0,1-1.16.52,3,3,0,0,1-.93-.17L10.32,342.8a2.47,2.47,0,0,1-1.74-2.5V326.88a2.47,2.47,0,0,1,1.74-2.5l72.2-27.65A2.93,2.93,0,0,1,83.45,296.57Zm-26.68,28.9-21.4,7.28-3.48,1,3.48.81,21.4,7.28Z"/><path class="cls-1" d="M22.76,236.59a34.28,34.28,0,0,1,12.36-12.41,33.1,33.1,0,0,1,17.09-4.59,34.11,34.11,0,0,1,29.63,16.95,33.19,33.19,0,0,1,4.59,17.11q0,10.26-6.35,17.06l3.26,1.36A2.51,2.51,0,0,1,85,274.56v10.82a1.92,1.92,0,0,1-2.17,2.17H2.17A1.92,1.92,0,0,1,0,285.38V271.25a1.92,1.92,0,0,1,2.17-2.17h21a24.41,24.41,0,0,1-4.94-15.43A33.29,33.29,0,0,1,22.76,236.59Zm43.93,9.21a15.12,15.12,0,0,0-5.79-5.68,17,17,0,0,0-8.42-2.06A17.47,17.47,0,0,0,44,240.15a15.26,15.26,0,0,0-6,5.76,16.64,16.64,0,0,0,0,16.38A15.66,15.66,0,0,0,44,268.1a17.1,17.1,0,0,0,8.5,2.12,16.47,16.47,0,0,0,8.39-2.15,15.38,15.38,0,0,0,5.82-5.86A16.6,16.6,0,0,0,68.78,254,16,16,0,0,0,66.69,245.8Z"/><path class="cls-1" d="M82.09,195.82a34,34,0,0,1-12.39,12.6,32.87,32.87,0,0,1-17.11,4.65,33.3,33.3,0,0,1-17.33-4.68,34.32,34.32,0,0,1-12.47-12.68,36,36,0,0,1,0-35.2,34.35,34.35,0,0,1,12.47-12.69,33.39,33.39,0,0,1,17.33-4.67,32.54,32.54,0,0,1,17.11,4.7,34.29,34.29,0,0,1,12.39,12.77,35.29,35.29,0,0,1,4.56,17.68A34.64,34.64,0,0,1,82.09,195.82Zm-15.27-26a16.1,16.1,0,0,0-5.95-6,16.3,16.3,0,0,0-8.39-2.2,16.56,16.56,0,0,0-8.47,2.2,16,16,0,0,0-6,6,16.25,16.25,0,0,0-2.17,8.28A16.42,16.42,0,0,0,38,186.42a16,16,0,0,0,6,6,16.66,16.66,0,0,0,8.47,2.2,16.4,16.4,0,0,0,8.39-2.2,16.1,16.1,0,0,0,5.95-6A16.43,16.43,0,0,0,69,178.08,16.26,16.26,0,0,0,66.82,169.8Z"/><path class="cls-1" d="M19.29,85.51V71.38a1.92,1.92,0,0,1,2.17-2.17H82.85A1.92,1.92,0,0,1,85,71.38V82.2a2.51,2.51,0,0,1-1.68,2.49L77.74,87a30.58,30.58,0,0,1,6,9.4,27.43,27.43,0,0,1,2.37,10.7,26.56,26.56,0,0,1-3.64,14,24.45,24.45,0,0,1-10.3,9.34,34.09,34.09,0,0,1-15.4,3.32H21.46a1.92,1.92,0,0,1-2.17-2.18V117.51a1.92,1.92,0,0,1,2.17-2.18H54.71a17.2,17.2,0,0,0,7.63-1.6,11.94,11.94,0,0,0,5.08-4.51,12.64,12.64,0,0,0,1.79-6.76A14.8,14.8,0,0,0,67.28,95a14.6,14.6,0,0,0-5.08-5.35,12.39,12.39,0,0,0-6.68-2H21.46A1.92,1.92,0,0,1,19.29,85.51Z"/><path class="cls-1" d="M85,37.16V51.28a1.92,1.92,0,0,1-2.17,2.18H36.4v5.43a1.92,1.92,0,0,1-2.17,2.17H21.46a1.92,1.92,0,0,1-2.17-2.17V53.57H7.44a2.2,2.2,0,0,1-2.39-2L2.28,37.32a2.61,2.61,0,0,1,0-.54,1.75,1.75,0,0,1,.54-1.36,2.09,2.09,0,0,1,1.47-.49H19.29V24.72a1.92,1.92,0,0,1,2.17-2.17H34.23a1.92,1.92,0,0,1,2.17,2.17V35H82.85A1.92,1.92,0,0,1,85,37.16Z"/><path class="cls-2" d="M85,2.17v14.4a1.92,1.92,0,0,1-2.17,2.17H70.08a1.92,1.92,0,0,1-2.17-2.17V2.17A1.92,1.92,0,0,1,70.08,0H82.85A1.92,1.92,0,0,1,85,2.17Z"/></g></g></svg>