<svg xmlns="http://www.w3.org/2000/svg" viewBox="0 0 686.71 108.06"><defs><style>.cls-1{fill:#1d1d1b;}.cls-2{fill:#f38f1a;}</style></defs><g id="Camada_2" data-name="Camada 2"><g id="Camada_1-2" data-name="Camada 1"><path class="cls-1" d="M73.44,87.42A1.44,1.44,0,0,1,73,88.58a2.11,2.11,0,0,1-1.35.4H56.13a2.35,2.35,0,0,1-2.42-1.78l-3.44-10H23.17l-3.44,10A2.3,2.3,0,0,1,17.31,89H1.88a2.21,2.21,0,0,1-1.37-.4A1.4,1.4,0,0,1,0,87.42a2.77,2.77,0,0,1,.16-.91L27.69,15.05a2.44,2.44,0,0,1,2.47-1.72H43.44a2.44,2.44,0,0,1,2.47,1.72L73.28,86.51A2.77,2.77,0,0,1,73.44,87.42ZM44.84,61,37.63,39.84l-1-3.44-.81,3.44L28.66,61Z"/><path class="cls-1" d="M133.76,26.45A24.2,24.2,0,0,1,143,36.64a33.71,33.71,0,0,1,3.28,15.24V86.83A1.9,1.9,0,0,1,144.14,89h-14A1.9,1.9,0,0,1,128,86.83V53.92q0-6.56-3.25-10.45a11,11,0,0,0-9-3.9,15.82,15.82,0,0,0-13.1,7,11.82,11.82,0,0,0-2.06,6.59V86.83A1.9,1.9,0,0,1,98.5,89h-14a1.9,1.9,0,0,1-2.15-2.15V26.08a1.9,1.9,0,0,1,2.15-2.16H95.21a2.5,2.5,0,0,1,2.48,1.67L100,31.13a30.43,30.43,0,0,1,9.3-5.94,27.18,27.18,0,0,1,10.59-2.34A26.3,26.3,0,0,1,133.76,26.45Z"/><path class="cls-1" d="M159.84,14.79V2.15A1.9,1.9,0,0,1,162,0h14.25a1.9,1.9,0,0,1,2.15,2.15V14.79a1.9,1.9,0,0,1-2.15,2.15H162A1.9,1.9,0,0,1,159.84,14.79ZM176.07,89h-14A1.9,1.9,0,0,1,160,86.83V26.08a1.9,1.9,0,0,1,2.15-2.16h14a1.9,1.9,0,0,1,2.15,2.16V86.83A1.9,1.9,0,0,1,176.07,89Z"/><path class="cls-1" d="M196.29,88.84a38,38,0,0,1-9.14-4.92,1.85,1.85,0,0,1-.86-1.5,3.23,3.23,0,0,1,.54-1.56l7.95-11.34a1.81,1.81,0,0,1,1.56-.92,2.33,2.33,0,0,1,1.45.54Q202.1,72,205.16,72a5.45,5.45,0,0,0,4.35-1.8q1.56-1.8,1.56-5.51V15.59a1.9,1.9,0,0,1,2.15-2.15h15.06a1.9,1.9,0,0,1,2.15,2.15V66a26.71,26.71,0,0,1-3,13.07,20.69,20.69,0,0,1-8.71,8.52,28.29,28.29,0,0,1-13.36,3A25.91,25.91,0,0,1,196.29,88.84Z"/><path class="cls-1" d="M256.75,86.08a33.9,33.9,0,0,1-12.48-12.26,32.62,32.62,0,0,1-4.6-16.94,33.05,33.05,0,0,1,4.63-17.15,34.49,34.49,0,0,1,29.95-16.88,34.46,34.46,0,0,1,17.44,4.54,34.1,34.1,0,0,1,12.56,12.34,33,33,0,0,1,4.62,17.15,32.29,32.29,0,0,1-4.65,16.94,34,34,0,0,1-12.64,12.26,34.91,34.91,0,0,1-17.5,4.51A34.21,34.21,0,0,1,256.75,86.08ZM282.5,71a15.91,15.91,0,0,0,5.91-5.89,16.21,16.21,0,0,0,2.18-8.31,16.44,16.44,0,0,0-2.18-8.38,15.91,15.91,0,0,0-5.91-5.92,16.81,16.81,0,0,0-16.45,0,15.87,15.87,0,0,0-5.92,5.92A16.44,16.44,0,0,0,258,56.77a16.21,16.21,0,0,0,2.17,8.31A15.86,15.86,0,0,0,266.05,71a16.81,16.81,0,0,0,16.45,0Z"/><path class="cls-1" d="M365.91,23.92h14A1.91,1.91,0,0,1,382,26.08V86.83A1.9,1.9,0,0,1,379.89,89h-10.7a2.49,2.49,0,0,1-2.47-1.67l-2.32-5.54a30,30,0,0,1-9.3,5.94,27.18,27.18,0,0,1-10.59,2.34,26.32,26.32,0,0,1-13.87-3.6,24.2,24.2,0,0,1-9.25-10.19A33.85,33.85,0,0,1,318.11,61V26.08a1.91,1.91,0,0,1,2.15-2.16h14a1.9,1.9,0,0,1,2.15,2.16V59A17,17,0,0,0,338,66.53a11.83,11.83,0,0,0,4.46,5,12.53,12.53,0,0,0,6.7,1.77,14.9,14.9,0,0,0,12.68-6.93,12.34,12.34,0,0,0,1.94-6.61V26.08A1.91,1.91,0,0,1,365.91,23.92Z"/><path class="cls-1" d="M444.51,26.67a2,2,0,0,1,1.13,1.72,2.82,2.82,0,0,1-.32,1.23l-6.19,11.62a1.89,1.89,0,0,1-1.66,1.18,2.31,2.31,0,0,1-1.24-.38,15.32,15.32,0,0,0-7.42-2.15,12,12,0,0,0-6.48,1.94,14.13,14.13,0,0,0-5,5.72,19.87,19.87,0,0,0-1.94,9.12V86.83A1.9,1.9,0,0,1,413.22,89h-14a1.9,1.9,0,0,1-2.15-2.15V26.08a1.91,1.91,0,0,1,2.15-2.16h10.7a2.49,2.49,0,0,1,2.47,1.67l2.64,6.29a18.42,18.42,0,0,1,6.77-6.61,19.13,19.13,0,0,1,9.63-2.42A25.37,25.37,0,0,1,444.51,26.67Z"/><path class="cls-1" d="M505.64,26.45a24.2,24.2,0,0,1,9.25,10.19,33.85,33.85,0,0,1,3.28,15.24V86.83A1.9,1.9,0,0,1,516,89H502a1.9,1.9,0,0,1-2.15-2.15V53.92q0-6.56-3.26-10.45a11,11,0,0,0-8.95-3.9,15.82,15.82,0,0,0-13.09,7,11.83,11.83,0,0,0-2.07,6.59V86.83A1.9,1.9,0,0,1,470.37,89h-14a1.9,1.9,0,0,1-2.15-2.15V26.08a1.91,1.91,0,0,1,2.15-2.16h10.7a2.49,2.49,0,0,1,2.47,1.67l2.32,5.54a30.31,30.31,0,0,1,9.3-5.94,27.18,27.18,0,0,1,10.59-2.34A26.32,26.32,0,0,1,505.64,26.45Z"/><path class="cls-1" d="M543.81,86a32.49,32.49,0,0,1-12.07-12.31,34,34,0,0,1-4.33-16.88,35.72,35.72,0,0,1,4.12-17A31.82,31.82,0,0,1,543,27.45a30.89,30.89,0,0,1,16.72-4.6,34.05,34.05,0,0,1,17.53,4.35,28.79,28.79,0,0,1,11.32,12.05,38.06,38.06,0,0,1,3.9,17.47c0,1.43-.08,2.85-.22,4.25A2,2,0,0,1,590,63H546.18a16,16,0,0,0,6.07,8.38,16.65,16.65,0,0,0,9.79,3,18.94,18.94,0,0,0,6.31-1,22.39,22.39,0,0,0,5.51-2.88,2.36,2.36,0,0,1,1.4-.53,2,2,0,0,1,1.56,1l6.61,9.41a2.36,2.36,0,0,1,.49,1.35,2.05,2.05,0,0,1-.86,1.61,34.15,34.15,0,0,1-10,5.4,35.57,35.57,0,0,1-11.8,1.91A33.69,33.69,0,0,1,543.81,86Zm25.43-44.68a14.12,14.12,0,0,0-8.92-2.84,14.3,14.3,0,0,0-9,2.9A15.46,15.46,0,0,0,546,49.52H574.4A15.22,15.22,0,0,0,569.24,41.34Z"/><path class="cls-1" d="M630.48,108.06H615.69a2.27,2.27,0,0,1-1.4-.37,1.29,1.29,0,0,1-.48-1.08,2.52,2.52,0,0,1,.21-1l6.78-16.88L597,26.4a2.86,2.86,0,0,1-.17-.92,1.42,1.42,0,0,1,.49-1.15,2,2,0,0,1,1.34-.41h15.7a2.33,2.33,0,0,1,2.47,1.78l13.07,40L643.11,25.7a2.34,2.34,0,0,1,2.47-1.78h15.76a2.15,2.15,0,0,1,1.37.41,1.38,1.38,0,0,1,.51,1.15,3.13,3.13,0,0,1-.16.92L633,106.34A2.43,2.43,0,0,1,630.48,108.06Z"/><path class="cls-2" d="M684.56,89H670.31a1.9,1.9,0,0,1-2.15-2.15V74.19A1.9,1.9,0,0,1,670.31,72h14.25a1.9,1.9,0,0,1,2.15,2.15V86.83A1.9,1.9,0,0,1,684.56,89Z"/></g></g></svg>