<svg xmlns="http://www.w3.org/2000/svg" viewBox="0 0 358.81 85.65"><defs><style>.cls-1{fill:#fff;}.cls-2{fill:#f38f1a;}</style></defs><g id="Camada_2" data-name="Camada 2"><g id="Camada_1-2" data-name="Camada 1"><path class="cls-1" d="M53.55,84H2.15A1.9,1.9,0,0,1,0,81.88V10.65A1.9,1.9,0,0,1,2.15,8.5H52.74a1.9,1.9,0,0,1,2.15,2.15V23.82A1.9,1.9,0,0,1,52.74,26H19.35V37.74H45a1.9,1.9,0,0,1,2.15,2.15V52A1.9,1.9,0,0,1,45,54.14H19.35V66.56h34.2a1.9,1.9,0,0,1,2.15,2.15V81.88A1.9,1.9,0,0,1,53.55,84Z"/><path class="cls-1" d="M75.08,83.09a40.88,40.88,0,0,1-12-7.5A2,2,0,0,1,62.21,74a2.35,2.35,0,0,1,.59-1.45l7.25-9.08a2.1,2.1,0,0,1,1.56-.92,2.75,2.75,0,0,1,1.45.59,36.42,36.42,0,0,0,7.77,4.57,19.9,19.9,0,0,0,7.77,1.62,7.78,7.78,0,0,0,4.3-1,3.36,3.36,0,0,0,1.62-3A3.52,3.52,0,0,0,93.58,63a10.18,10.18,0,0,0-3.26-2.18,64.09,64.09,0,0,0-6.56-2.55,37.81,37.81,0,0,1-13.38-7.48q-5.28-4.72-5.27-13A19.3,19.3,0,0,1,67.71,28a19,19,0,0,1,8-7.29A28.45,28.45,0,0,1,88.82,17.9,31.39,31.39,0,0,1,99.87,20a28.86,28.86,0,0,1,10,6.31,2.2,2.2,0,0,1,.75,1.51,2.5,2.5,0,0,1-.75,1.51l-8.49,8.76a2.06,2.06,0,0,1-1.51.75,2.47,2.47,0,0,1-1.5-.64,20.81,20.81,0,0,0-4.87-2.93,13.2,13.2,0,0,0-5.29-1.16,7.13,7.13,0,0,0-4.17,1A3.26,3.26,0,0,0,82.63,38a3,3,0,0,0,1.05,2.23,12,12,0,0,0,3.36,2q2.31,1,6.45,2.34,8.88,2.85,13.72,7.63t4.83,13a19.69,19.69,0,0,1-2.71,10,20.33,20.33,0,0,1-7.9,7.61,24.77,24.77,0,0,1-12.29,2.91A37.77,37.77,0,0,1,75.08,83.09Z"/><path class="cls-1" d="M139.41,84h-14a1.9,1.9,0,0,1-2.15-2.15v-46H117.9a1.9,1.9,0,0,1-2.15-2.15V21.13A1.9,1.9,0,0,1,117.9,19h5.27V7.26a2.17,2.17,0,0,1,1.94-2.37l14.14-2.74a2.61,2.61,0,0,1,.54,0,1.73,1.73,0,0,1,1.34.53,2.12,2.12,0,0,1,.48,1.46V19h10.11a1.9,1.9,0,0,1,2.15,2.15V33.76a1.9,1.9,0,0,1-2.15,2.15H141.56v46A1.9,1.9,0,0,1,139.41,84Z"/><path class="cls-1" d="M173.44,81.08a32.59,32.59,0,0,1-12.07-12.32A33.94,33.94,0,0,1,157,51.88a35.71,35.71,0,0,1,4.12-17A31.85,31.85,0,0,1,172.63,22.5a31,31,0,0,1,16.73-4.6,34,34,0,0,1,17.52,4.36,28.77,28.77,0,0,1,11.32,12,38.09,38.09,0,0,1,3.9,17.47c0,1.44-.08,2.85-.22,4.25a2,2,0,0,1-2.26,2H175.81a16,16,0,0,0,6.07,8.39,16.64,16.64,0,0,0,9.79,3,18.69,18.69,0,0,0,6.31-1,22.69,22.69,0,0,0,5.51-2.87,2.31,2.31,0,0,1,1.4-.54,2,2,0,0,1,1.56,1l6.61,9.41a2.31,2.31,0,0,1,.49,1.34,2,2,0,0,1-.86,1.61,34.42,34.42,0,0,1-10,5.41,35.82,35.82,0,0,1-11.8,1.91A33.79,33.79,0,0,1,173.44,81.08ZM198.87,36.4A14.07,14.07,0,0,0,190,33.55a14.36,14.36,0,0,0-9,2.9,15.5,15.5,0,0,0-5.35,8.12H204A15.19,15.19,0,0,0,198.87,36.4Z"/><path class="cls-1" d="M248.82,84H235a1.9,1.9,0,0,1-2.15-2.15V2.15A1.9,1.9,0,0,1,235,0h13.82A1.9,1.9,0,0,1,251,2.15V81.88A1.9,1.9,0,0,1,248.82,84Z"/><path class="cls-1" d="M316.5,19h10.33A1.9,1.9,0,0,1,329,21.13V81.88A1.9,1.9,0,0,1,326.83,84h-10.7a2.49,2.49,0,0,1-2.48-1.66l-1.34-3.23q-6.72,6.28-16.88,6.29a32.86,32.86,0,0,1-16.94-4.54,33.81,33.81,0,0,1-12.26-12.31,33.29,33.29,0,0,1-4.51-17,32.7,32.7,0,0,1,4.54-16.91,33.75,33.75,0,0,1,12.29-12.23,32.9,32.9,0,0,1,16.88-4.52q10.26,0,17,6.4L314,20.65A2.5,2.5,0,0,1,316.5,19ZM303.9,65.89a15.14,15.14,0,0,0,5.8-5.76,16.26,16.26,0,0,0,2.13-8.3,16.92,16.92,0,0,0-2.1-8.42,16.15,16.15,0,0,0-22-5.91,15.16,15.16,0,0,0-5.7,5.89A17.21,17.21,0,0,0,280,51.83a16.8,16.8,0,0,0,2,8.33,14.88,14.88,0,0,0,5.62,5.73A15.84,15.84,0,0,0,295.75,68,16.38,16.38,0,0,0,303.9,65.89Z"/><path class="cls-2" d="M356.66,84H342.42a1.9,1.9,0,0,1-2.15-2.15V69.25a1.9,1.9,0,0,1,2.15-2.15h14.24a1.9,1.9,0,0,1,2.15,2.15V81.88A1.9,1.9,0,0,1,356.66,84Z"/></g></g></svg>