<svg xmlns="http://www.w3.org/2000/svg" viewBox="0 0 461.23 77.15"><defs><style>.cls-1{fill:#fff;}.cls-2{fill:#f38f1a;}</style></defs><g id="Camada_2" data-name="Camada 2"><g id="Camada_1-2" data-name="Camada 1"><path class="cls-1" d="M17.2,75.54h-15A1.9,1.9,0,0,1,0,73.39V2.15A1.9,1.9,0,0,1,2.15,0H49.62a1.9,1.9,0,0,1,2.15,2.15V15.32a1.9,1.9,0,0,1-2.15,2.15H19.35V33.55H41.88A1.9,1.9,0,0,1,44,35.7V47.8A1.9,1.9,0,0,1,41.88,50H19.35V73.39A1.9,1.9,0,0,1,17.2,75.54Z"/><path class="cls-1" d="M109,13.23A2,2,0,0,1,110.11,15a2.7,2.7,0,0,1-.33,1.23L103.6,27.8A1.91,1.91,0,0,1,101.93,29a2.25,2.25,0,0,1-1.23-.38,15.35,15.35,0,0,0-7.42-2.15,12,12,0,0,0-6.48,1.94,14.15,14.15,0,0,0-5,5.72,19.87,19.87,0,0,0-1.93,9.12V73.39a1.9,1.9,0,0,1-2.15,2.15h-14a1.9,1.9,0,0,1-2.15-2.15V12.63a1.9,1.9,0,0,1,2.15-2.15h10.7a2.5,2.5,0,0,1,2.47,1.67l2.63,6.29a18.45,18.45,0,0,1,6.78-6.61,19,19,0,0,1,9.62-2.42A25.37,25.37,0,0,1,109,13.23Z"/><path class="cls-1" d="M126.13,72.58a32.49,32.49,0,0,1-12.07-12.31,34,34,0,0,1-4.33-16.88,35.83,35.83,0,0,1,4.11-17A32,32,0,0,1,125.32,14,31,31,0,0,1,142,9.41a34.05,34.05,0,0,1,17.53,4.35,28.79,28.79,0,0,1,11.32,12,38.06,38.06,0,0,1,3.89,17.47c0,1.43-.07,2.85-.21,4.25a2,2,0,0,1-2.26,2H128.49a16,16,0,0,0,6.08,8.38,16.63,16.63,0,0,0,9.78,3,19,19,0,0,0,6.32-1A22.56,22.56,0,0,0,156.18,57a2.29,2.29,0,0,1,1.4-.54,2,2,0,0,1,1.56,1l6.61,9.41a2.36,2.36,0,0,1,.49,1.35,2.07,2.07,0,0,1-.86,1.61,34.15,34.15,0,0,1-10,5.4,35.87,35.87,0,0,1-11.8,1.91A33.67,33.67,0,0,1,126.13,72.58ZM151.56,27.9a14.08,14.08,0,0,0-8.93-2.85A14.28,14.28,0,0,0,133.68,28a15.46,15.46,0,0,0-5.35,8.12h28.39A15.22,15.22,0,0,0,151.56,27.9Z"/><path class="cls-1" d="M193.84,74.6a41.12,41.12,0,0,1-12-7.5,2,2,0,0,1-.86-1.56,2.33,2.33,0,0,1,.59-1.45L188.82,55a2.07,2.07,0,0,1,1.55-.91,2.72,2.72,0,0,1,1.46.59,36.54,36.54,0,0,0,7.76,4.57,20.07,20.07,0,0,0,7.77,1.61,7.81,7.81,0,0,0,4.31-1,3.36,3.36,0,0,0,1.61-3,3.57,3.57,0,0,0-.94-2.37,10.4,10.4,0,0,0-3.26-2.18,66.17,66.17,0,0,0-6.55-2.55,37.91,37.91,0,0,1-13.39-7.47q-5.26-4.74-5.27-13a19.22,19.22,0,0,1,2.61-9.79,18.82,18.82,0,0,1,8-7.28,28.33,28.33,0,0,1,13.15-2.77,31.59,31.59,0,0,1,11,2.12,28.89,28.89,0,0,1,10,6.32,2.14,2.14,0,0,1,.76,1.5,2.44,2.44,0,0,1-.76,1.51l-8.49,8.76a2,2,0,0,1-1.51.76,2.49,2.49,0,0,1-1.5-.65,21.16,21.16,0,0,0-4.87-2.93A13.2,13.2,0,0,0,207,25.64a7.12,7.12,0,0,0-4.17,1,3.24,3.24,0,0,0-1.42,2.79,3,3,0,0,0,1,2.23,11.51,11.51,0,0,0,3.36,2c1.54.67,3.7,1.45,6.46,2.34q8.87,2.85,13.71,7.64t4.83,13a19.75,19.75,0,0,1-2.71,10,20.4,20.4,0,0,1-7.9,7.61,24.85,24.85,0,0,1-12.29,2.9A37.81,37.81,0,0,1,193.84,74.6Z"/><path class="cls-1" d="M249.81,74.6a41.3,41.3,0,0,1-12-7.5,2,2,0,0,1-.86-1.56,2.34,2.34,0,0,1,.6-1.45L244.78,55a2.07,2.07,0,0,1,1.56-.91,2.67,2.67,0,0,1,1.45.59,36.84,36.84,0,0,0,7.77,4.57,20,20,0,0,0,7.77,1.61,7.78,7.78,0,0,0,4.3-1,3.35,3.35,0,0,0,1.62-3,3.53,3.53,0,0,0-.95-2.37,10.33,10.33,0,0,0-3.25-2.18,66.53,66.53,0,0,0-6.56-2.55,38,38,0,0,1-13.38-7.47q-5.28-4.74-5.27-13a19.31,19.31,0,0,1,2.6-9.79,18.85,18.85,0,0,1,8-7.28,28.33,28.33,0,0,1,13.15-2.77,31.5,31.5,0,0,1,11,2.12,28.84,28.84,0,0,1,10,6.32,2.16,2.16,0,0,1,.75,1.5,2.47,2.47,0,0,1-.75,1.51l-8.49,8.76a2,2,0,0,1-1.51.76,2.47,2.47,0,0,1-1.5-.65,21.16,21.16,0,0,0-4.87-2.93A13.2,13.2,0,0,0,263,25.64a7.12,7.12,0,0,0-4.17,1,3.25,3.25,0,0,0-1.43,2.79,3,3,0,0,0,1.05,2.23,11.51,11.51,0,0,0,3.36,2q2.31,1,6.45,2.34,8.88,2.85,13.71,7.64t4.84,13a19.75,19.75,0,0,1-2.71,10,20.36,20.36,0,0,1-7.91,7.61,24.81,24.81,0,0,1-12.28,2.9A37.77,37.77,0,0,1,249.81,74.6Z"/><path class="cls-1" d="M309.57,72.58A32.49,32.49,0,0,1,297.5,60.27a34,34,0,0,1-4.33-16.88,35.83,35.83,0,0,1,4.11-17A32,32,0,0,1,308.76,14a31,31,0,0,1,16.72-4.59A34.05,34.05,0,0,1,343,13.76a28.79,28.79,0,0,1,11.32,12,38.19,38.19,0,0,1,3.89,17.47c0,1.43-.07,2.85-.21,4.25a2,2,0,0,1-2.26,2H311.93A16,16,0,0,0,318,57.9a16.63,16.63,0,0,0,9.78,3,19,19,0,0,0,6.32-1A22.56,22.56,0,0,0,339.62,57a2.29,2.29,0,0,1,1.4-.54,2,2,0,0,1,1.56,1l6.61,9.41a2.43,2.43,0,0,1,.49,1.35,2.07,2.07,0,0,1-.86,1.61,34.15,34.15,0,0,1-10,5.4A35.87,35.87,0,0,1,327,77.15,33.67,33.67,0,0,1,309.57,72.58ZM335,27.9a14.08,14.08,0,0,0-8.93-2.85A14.28,14.28,0,0,0,317.12,28a15.4,15.4,0,0,0-5.35,8.12h28.39A15.22,15.22,0,0,0,335,27.9Z"/><path class="cls-1" d="M420.37,13a24.2,24.2,0,0,1,9.25,10.19,33.71,33.71,0,0,1,3.28,15.24v35a1.9,1.9,0,0,1-2.15,2.15h-14a1.9,1.9,0,0,1-2.15-2.15V40.48q0-6.55-3.25-10.45a11,11,0,0,0-8.95-3.9A15.49,15.49,0,0,0,394.89,28a15.27,15.27,0,0,0-5.57,5.05,11.81,11.81,0,0,0-2.07,6.59V73.39a1.9,1.9,0,0,1-2.15,2.15h-14A1.9,1.9,0,0,1,369,73.39V12.63a1.9,1.9,0,0,1,2.15-2.15h10.69a2.5,2.5,0,0,1,2.48,1.67l2.31,5.54a30.43,30.43,0,0,1,9.3-5.94A27.18,27.18,0,0,1,406.5,9.41,26.32,26.32,0,0,1,420.37,13Z"/><path class="cls-2" d="M459.08,75.54H444.83a1.9,1.9,0,0,1-2.15-2.15V60.75a1.9,1.9,0,0,1,2.15-2.15h14.25a1.9,1.9,0,0,1,2.15,2.15V73.39A1.9,1.9,0,0,1,459.08,75.54Z"/></g></g></svg>