<svg xmlns="http://www.w3.org/2000/svg" viewBox="0 0 569.94 85.75"><defs><style>.cls-1{fill:#1d1d1b;}.cls-2{fill:#f38f1a;}</style></defs><g id="Camada_2" data-name="Camada 2"><g id="Camada_1-2" data-name="Camada 1"><path class="cls-1" d="M17.2,84.14h-15A1.9,1.9,0,0,1,0,82V10.75A1.9,1.9,0,0,1,2.15,8.6H49.62a1.9,1.9,0,0,1,2.15,2.15V23.92a1.9,1.9,0,0,1-2.15,2.16H19.35V42.15H41.88A1.9,1.9,0,0,1,44,44.3V56.4a1.9,1.9,0,0,1-2.15,2.15H19.35V82A1.9,1.9,0,0,1,17.2,84.14Z"/><path class="cls-1" d="M109,21.83a2,2,0,0,1,1.13,1.72,2.78,2.78,0,0,1-.33,1.24L103.6,36.4a1.89,1.89,0,0,1-1.67,1.18,2.17,2.17,0,0,1-1.23-.38,15.35,15.35,0,0,0-7.42-2.15A12,12,0,0,0,86.8,37a14.15,14.15,0,0,0-5,5.72,19.87,19.87,0,0,0-1.93,9.12V82a1.9,1.9,0,0,1-2.15,2.15h-14A1.9,1.9,0,0,1,61.56,82V21.24a1.9,1.9,0,0,1,2.15-2.15h10.7a2.49,2.49,0,0,1,2.47,1.66L79.51,27a18.52,18.52,0,0,1,6.78-6.61A19.12,19.12,0,0,1,95.91,18,25.37,25.37,0,0,1,109,21.83Z"/><path class="cls-1" d="M126.8,81.24A33.8,33.8,0,0,1,114.33,69,32.53,32.53,0,0,1,109.73,52a33,33,0,0,1,4.62-17.15A34.52,34.52,0,0,1,144.3,18a34.6,34.6,0,0,1,17.45,4.54A34.07,34.07,0,0,1,174.3,34.89,33,33,0,0,1,178.92,52,32.29,32.29,0,0,1,174.27,69a34,34,0,0,1-12.63,12.26,34.94,34.94,0,0,1-17.5,4.51A34.24,34.24,0,0,1,126.8,81.24Zm25.75-15.11a15.93,15.93,0,0,0,5.92-5.89,16.2,16.2,0,0,0,2.17-8.3,16.45,16.45,0,0,0-2.17-8.39,15.94,15.94,0,0,0-5.92-5.92,16.81,16.81,0,0,0-16.45,0,15.91,15.91,0,0,0-5.91,5.92A16.45,16.45,0,0,0,128,51.94a16.2,16.2,0,0,0,2.18,8.3,15.91,15.91,0,0,0,5.91,5.89,16.81,16.81,0,0,0,16.45,0Z"/><path class="cls-1" d="M241.07,21.61a24.2,24.2,0,0,1,9.25,10.19A33.71,33.71,0,0,1,253.6,47V82a1.9,1.9,0,0,1-2.15,2.15h-14A1.9,1.9,0,0,1,235.32,82V49.09q0-6.57-3.25-10.46a11,11,0,0,0-8.95-3.9,15.82,15.82,0,0,0-13.1,7A11.82,11.82,0,0,0,208,48.28V82a1.91,1.91,0,0,1-2.16,2.15h-14A1.9,1.9,0,0,1,189.68,82V21.24a1.9,1.9,0,0,1,2.15-2.15h10.69A2.49,2.49,0,0,1,205,20.75l2.31,5.54a30.43,30.43,0,0,1,9.3-5.94A27.18,27.18,0,0,1,227.2,18,26.32,26.32,0,0,1,241.07,21.61Z"/><path class="cls-1" d="M283.81,84.14h-14A1.9,1.9,0,0,1,267.68,82V36h-5.37a1.9,1.9,0,0,1-2.15-2.15V21.24a1.9,1.9,0,0,1,2.15-2.15h5.27V7.37A2.17,2.17,0,0,1,269.51,5l14.14-2.74a2,2,0,0,1,.54-.06,1.7,1.7,0,0,1,1.34.54A2.05,2.05,0,0,1,286,4.19v14.9h10.11a1.9,1.9,0,0,1,2.15,2.15V33.87A1.9,1.9,0,0,1,296.13,36H286V82A1.9,1.9,0,0,1,283.81,84.14Z"/><path class="cls-1" d="M386.23,84.14h-51.4A1.9,1.9,0,0,1,332.68,82V10.75a1.9,1.9,0,0,1,2.15-2.15h50.6a1.9,1.9,0,0,1,2.15,2.15V23.92a1.91,1.91,0,0,1-2.15,2.16H352V37.85h25.64A1.9,1.9,0,0,1,379.83,40V52.1a1.9,1.9,0,0,1-2.15,2.15H352V66.67h34.19a1.9,1.9,0,0,1,2.15,2.15V82A1.9,1.9,0,0,1,386.23,84.14Z"/><path class="cls-1" d="M451.07,21.61a24.2,24.2,0,0,1,9.25,10.19A33.85,33.85,0,0,1,463.6,47V82a1.9,1.9,0,0,1-2.15,2.15h-14A1.9,1.9,0,0,1,445.32,82V49.09q0-6.57-3.25-10.46a11,11,0,0,0-9-3.9,15.82,15.82,0,0,0-13.09,7A11.83,11.83,0,0,0,418,48.28V82a1.9,1.9,0,0,1-2.15,2.15h-14A1.9,1.9,0,0,1,399.67,82V21.24a1.9,1.9,0,0,1,2.15-2.15h10.7A2.49,2.49,0,0,1,415,20.75l2.31,5.54a30.43,30.43,0,0,1,9.3-5.94A27.18,27.18,0,0,1,437.2,18,26.32,26.32,0,0,1,451.07,21.61Z"/><path class="cls-1" d="M524,0h14a1.9,1.9,0,0,1,2.15,2.15V82A1.9,1.9,0,0,1,538,84.14h-10.7a2.5,2.5,0,0,1-2.47-1.67l-1.34-3.22q-6.74,6.28-16.89,6.29A32.92,32.92,0,0,1,489.62,81a33.69,33.69,0,0,1-12.26-12.32,33.26,33.26,0,0,1-4.52-17,32.71,32.71,0,0,1,4.55-16.91,33.8,33.8,0,0,1,12.28-12.23A32.92,32.92,0,0,1,506.55,18a24.11,24.11,0,0,1,15.27,4.89V2.15A1.9,1.9,0,0,1,524,0Zm-9,66a15.16,15.16,0,0,0,5.81-5.76,16.35,16.35,0,0,0,2.12-8.3,16.89,16.89,0,0,0-2.1-8.42,15.49,15.49,0,0,0-5.75-5.89,16.42,16.42,0,0,0-16.21,0,15.09,15.09,0,0,0-5.7,5.89,17.19,17.19,0,0,0-2.07,8.44,16.73,16.73,0,0,0,2.05,8.33A14.81,14.81,0,0,0,498.79,66a15.83,15.83,0,0,0,8.09,2.06A16.31,16.31,0,0,0,515,66Z"/><path class="cls-2" d="M567.79,84.14H553.54A1.9,1.9,0,0,1,551.39,82V69.35a1.9,1.9,0,0,1,2.15-2.15h14.25a1.9,1.9,0,0,1,2.15,2.15V82A1.9,1.9,0,0,1,567.79,84.14Z"/></g></g></svg>