<svg width="430" height="1739" viewBox="0 0 430 1739" fill="none" xmlns="http://www.w3.org/2000/svg">
<g style="mix-blend-mode:overlay">
<line x1="-3.05176e-05" y1="63.5" x2="430" y2="63.5" stroke="white" stroke-opacity="0.2"/>
<line x1="-3.05176e-05" y1="127.5" x2="430" y2="127.5" stroke="white" stroke-opacity="0.2"/>
<line x1="-3.05176e-05" y1="191.5" x2="430" y2="191.5" stroke="white" stroke-opacity="0.2"/>
<line x1="-3.05176e-05" y1="255.5" x2="430" y2="255.5" stroke="white" stroke-opacity="0.2"/>
<line x1="-3.05176e-05" y1="319.5" x2="430" y2="319.5" stroke="white" stroke-opacity="0.2"/>
<line x1="-3.05176e-05" y1="383.5" x2="430" y2="383.5" stroke="white" stroke-opacity="0.2"/>
<line x1="-3.05176e-05" y1="447.5" x2="430" y2="447.5" stroke="white" stroke-opacity="0.2"/>
<line x1="-3.05176e-05" y1="511.5" x2="430" y2="511.5" stroke="white" stroke-opacity="0.2"/>
<line x1="-3.05176e-05" y1="575.5" x2="430" y2="575.5" stroke="white" stroke-opacity="0.2"/>
<line x1="-3.05176e-05" y1="639.5" x2="430" y2="639.5" stroke="white" stroke-opacity="0.2"/>
<line x1="-3.05176e-05" y1="703.5" x2="430" y2="703.5" stroke="white" stroke-opacity="0.2"/>
<line x1="-3.05176e-05" y1="767.5" x2="430" y2="767.5" stroke="white" stroke-opacity="0.2"/>
<line x1="-3.05176e-05" y1="831.5" x2="430" y2="831.5" stroke="white" stroke-opacity="0.2"/>
<line x1="-3.05176e-05" y1="895.5" x2="430" y2="895.5" stroke="white" stroke-opacity="0.2"/>
<line x1="-3.05176e-05" y1="959.5" x2="430" y2="959.5" stroke="white" stroke-opacity="0.2"/>
<line x1="-3.05176e-05" y1="1023.5" x2="430" y2="1023.5" stroke="white" stroke-opacity="0.2"/>
<line x1="-3.05176e-05" y1="1087.5" x2="430" y2="1087.5" stroke="white" stroke-opacity="0.2"/>
<line x1="-3.05176e-05" y1="1151.5" x2="430" y2="1151.5" stroke="white" stroke-opacity="0.2"/>
<line x1="-3.05176e-05" y1="1215.5" x2="430" y2="1215.5" stroke="white" stroke-opacity="0.2"/>
<line x1="-3.05176e-05" y1="1279.5" x2="430" y2="1279.5" stroke="white" stroke-opacity="0.2"/>
<line x1="-3.05176e-05" y1="1343.5" x2="430" y2="1343.5" stroke="white" stroke-opacity="0.2"/>
<line x1="-3.05176e-05" y1="1407.5" x2="430" y2="1407.5" stroke="white" stroke-opacity="0.2"/>
<line x1="-3.05176e-05" y1="1471.5" x2="430" y2="1471.5" stroke="white" stroke-opacity="0.2"/>
<line x1="-3.05176e-05" y1="1535.5" x2="430" y2="1535.5" stroke="white" stroke-opacity="0.2"/>
<line x1="-3.05176e-05" y1="1599.5" x2="430" y2="1599.5" stroke="white" stroke-opacity="0.2"/>
<line x1="-3.05176e-05" y1="1663.5" x2="430" y2="1663.5" stroke="white" stroke-opacity="0.2"/>
<line x1="-3.05176e-05" y1="1727.5" x2="430" y2="1727.5" stroke="white" stroke-opacity="0.2"/>
<line x1="61.5004" y1="2425" x2="61.5003" y2="3" stroke="white" stroke-opacity="0.2"/>
<line x1="125.5" y1="2425" x2="125.5" y2="3" stroke="white" stroke-opacity="0.2"/>
<line x1="189.5" y1="2425" x2="189.5" y2="3" stroke="white" stroke-opacity="0.2"/>
<line x1="253.501" y1="2425" x2="253.501" y2="3" stroke="white" stroke-opacity="0.2"/>
<line x1="317.501" y1="2425" x2="317.501" y2="3" stroke="white" stroke-opacity="0.2"/>
<line x1="381.501" y1="2425" x2="381.501" y2="3" stroke="white" stroke-opacity="0.2"/>
</g>
</svg>
