<svg xmlns="http://www.w3.org/2000/svg" viewBox="0 0 896.87 110.59"><defs><style>.cls-1{fill:#1d1d1b;}.cls-2{fill:#f38f1a;}</style></defs><g id="Camada_2" data-name="Camada 2"><g id="Camada_1-2" data-name="Camada 1"><path class="cls-1" d="M49.19,54h14a1.9,1.9,0,0,1,2.15,2.15V80.43A3,3,0,0,1,64,83a40,40,0,0,1-11.48,5.4A46,46,0,0,1,39.3,90.32,38.94,38.94,0,0,1,0,51.08,38.76,38.76,0,0,1,5.19,31.34,38.18,38.18,0,0,1,19.35,17.18,39.16,39.16,0,0,1,39.3,12a40,40,0,0,1,12.77,2,38.87,38.87,0,0,1,11,5.76A2,2,0,0,1,64,21.4a2.31,2.31,0,0,1-.54,1.4l-8.7,11.39a2.14,2.14,0,0,1-1.62.92,2.43,2.43,0,0,1-1.4-.49,24.63,24.63,0,0,0-6-3,20.14,20.14,0,0,0-6.51-1.1,18.54,18.54,0,0,0-9.73,2.71,20.36,20.36,0,0,0-7.23,7.45,20.57,20.57,0,0,0-2.72,10.43,21.47,21.47,0,0,0,2.72,10.62,21,21,0,0,0,7.26,7.71,17.94,17.94,0,0,0,9.7,2.85A24.51,24.51,0,0,0,47,71.18v-15A1.9,1.9,0,0,1,49.19,54Z"/><path class="cls-1" d="M125.16,26.67a2,2,0,0,1,1.13,1.72,2.82,2.82,0,0,1-.32,1.23l-6.19,11.62a1.89,1.89,0,0,1-1.66,1.18,2.28,2.28,0,0,1-1.24-.38,15.32,15.32,0,0,0-7.42-2.15A12,12,0,0,0,103,41.83a14.13,14.13,0,0,0-5,5.72A19.87,19.87,0,0,0,96,56.67V86.83A1.9,1.9,0,0,1,93.87,89h-14a1.9,1.9,0,0,1-2.15-2.15V26.08a1.91,1.91,0,0,1,2.15-2.16h10.7a2.49,2.49,0,0,1,2.47,1.67l2.64,6.29a18.42,18.42,0,0,1,6.77-6.61,19.13,19.13,0,0,1,9.63-2.42A25.37,25.37,0,0,1,125.16,26.67Z"/><path class="cls-1" d="M180.7,23.92H191a1.91,1.91,0,0,1,2.15,2.16V86.83A1.9,1.9,0,0,1,191,89h-10.7a2.49,2.49,0,0,1-2.47-1.67l-1.35-3.22q-6.72,6.28-16.88,6.29a32.83,32.83,0,0,1-16.93-4.55,33.78,33.78,0,0,1-16.78-29.32,32.71,32.71,0,0,1,4.55-16.91,33.65,33.65,0,0,1,12.28-12.23,32.83,32.83,0,0,1,16.88-4.52q10.27,0,17,6.4l1.56-3.66A2.49,2.49,0,0,1,180.7,23.92ZM168.09,70.83a15.21,15.21,0,0,0,5.81-5.75A16.36,16.36,0,0,0,176,56.77a16.88,16.88,0,0,0-2.1-8.41,15.49,15.49,0,0,0-5.75-5.89,16.42,16.42,0,0,0-16.21,0,15.13,15.13,0,0,0-5.7,5.88,17.24,17.24,0,0,0-2.07,8.44,16.74,16.74,0,0,0,2.05,8.34,14.83,14.83,0,0,0,5.61,5.72A15.88,15.88,0,0,0,160,72.9,16.34,16.34,0,0,0,168.09,70.83Z"/><path class="cls-1" d="M258.66,27.37A33.73,33.73,0,0,1,270.94,39.6a32.7,32.7,0,0,1,4.54,16.91,33.25,33.25,0,0,1-4.51,17,33.59,33.59,0,0,1-12.26,12.31,32.87,32.87,0,0,1-16.94,4.55,24.1,24.1,0,0,1-15.27-4.9v20.43a1.9,1.9,0,0,1-2.15,2.15h-14a1.9,1.9,0,0,1-2.15-2.15V26.08a1.9,1.9,0,0,1,2.15-2.16H220.7a2.49,2.49,0,0,1,2.47,1.67l1.56,3.66q6.78-6.41,17-6.4A32.86,32.86,0,0,1,258.66,27.37Zm-9.12,43.46a14.78,14.78,0,0,0,5.62-5.72,16.84,16.84,0,0,0,2-8.34,17.24,17.24,0,0,0-2.07-8.44,15.13,15.13,0,0,0-5.7-5.88,15.92,15.92,0,0,0-22,5.91,16.87,16.87,0,0,0-2.09,8.41,16.26,16.26,0,0,0,2.12,8.31,15.14,15.14,0,0,0,5.81,5.75,16.32,16.32,0,0,0,8.14,2.07A15.84,15.84,0,0,0,249.54,70.83Z"/><path class="cls-1" d="M337.47,26.45a24.2,24.2,0,0,1,9.25,10.19A33.71,33.71,0,0,1,350,51.88V86.83A1.9,1.9,0,0,1,347.85,89h-14a1.9,1.9,0,0,1-2.15-2.15V53.92a17,17,0,0,0-1.59-7.55,11.82,11.82,0,0,0-4.46-5A12.52,12.52,0,0,0,319,39.57a14.78,14.78,0,0,0-7.4,1.91,14.54,14.54,0,0,0-5.29,5,12.31,12.31,0,0,0-1.94,6.61V86.83A1.9,1.9,0,0,1,302.2,89H288.39a1.9,1.9,0,0,1-2.15-2.15V7.1A1.9,1.9,0,0,1,288.39,5H302.2a1.9,1.9,0,0,1,2.15,2.15V30.54A30.42,30.42,0,0,1,313.44,25a27.21,27.21,0,0,1,10.16-2.15A26.32,26.32,0,0,1,337.47,26.45Z"/><path class="cls-1" d="M363.55,14.79V2.15A1.9,1.9,0,0,1,365.7,0H380a1.9,1.9,0,0,1,2.15,2.15V14.79A1.9,1.9,0,0,1,380,16.94H365.7A1.9,1.9,0,0,1,363.55,14.79ZM379.78,89h-14a1.9,1.9,0,0,1-2.15-2.15V26.08a1.9,1.9,0,0,1,2.15-2.16h14a1.9,1.9,0,0,1,2.15,2.16V86.83A1.9,1.9,0,0,1,379.78,89Z"/><path class="cls-1" d="M409.17,86.05a32.45,32.45,0,0,1-12-12.29,34,34,0,0,1-4.33-16.93,34.63,34.63,0,0,1,4.3-17.07,32.36,32.36,0,0,1,12-12.34,33.27,33.27,0,0,1,17.36-4.57,37.06,37.06,0,0,1,11.91,1.88,33.77,33.77,0,0,1,10,5.32,2.15,2.15,0,0,1,.91,1.62,2.61,2.61,0,0,1-.48,1.39L442,42.8a2,2,0,0,1-1.61,1,2.61,2.61,0,0,1-1.4-.54,24,24,0,0,0-5.49-2.85,18.93,18.93,0,0,0-6.29-1,15.17,15.17,0,0,0-8.06,2.26,16.67,16.67,0,0,0-5.92,6.21,17.93,17.93,0,0,0-2.2,8.9,17.38,17.38,0,0,0,2.23,8.76,16.58,16.58,0,0,0,6,6.16,15.48,15.48,0,0,0,8,2.23,19.33,19.33,0,0,0,6.26-.94A21.74,21.74,0,0,0,439,70.21a2.67,2.67,0,0,1,1.4-.53,2,2,0,0,1,1.61,1l6.83,9.73a2.57,2.57,0,0,1,.53,1.45,1.72,1.72,0,0,1-.64,1.29,33.63,33.63,0,0,1-10.11,5.49,37.37,37.37,0,0,1-12.2,1.93A33.1,33.1,0,0,1,409.17,86.05Z"/><path class="cls-1" d="M487.63,86.83V15.59a1.9,1.9,0,0,1,2.15-2.15h26.29a41.37,41.37,0,0,1,20.08,5A37.64,37.64,0,0,1,550.56,32a36,36,0,0,1,5.3,19.22,36.33,36.33,0,0,1-5.27,19.25A37.43,37.43,0,0,1,536.23,84a41.09,41.09,0,0,1-20,5H489.78A1.9,1.9,0,0,1,487.63,86.83ZM526.83,68a17.49,17.49,0,0,0,6.9-6.8,19.83,19.83,0,0,0,2.5-10,19.65,19.65,0,0,0-2.5-9.92,17.62,17.62,0,0,0-6.93-6.82,20.31,20.31,0,0,0-10-2.45H507V70.43h9.89A20.38,20.38,0,0,0,526.83,68Z"/><path class="cls-1" d="M579.24,86a32.49,32.49,0,0,1-12.07-12.31,34.07,34.07,0,0,1-4.32-16.88,35.83,35.83,0,0,1,4.11-17,31.84,31.84,0,0,1,11.48-12.36,30.87,30.87,0,0,1,16.72-4.6,34,34,0,0,1,17.52,4.35A28.79,28.79,0,0,1,624,39.25a38.06,38.06,0,0,1,3.9,17.47,39.92,39.92,0,0,1-.22,4.25,2,2,0,0,1-2.25,2H581.61a16,16,0,0,0,6.07,8.38,16.64,16.64,0,0,0,9.79,3,19,19,0,0,0,6.32-1,22.75,22.75,0,0,0,5.51-2.88,2.31,2.31,0,0,1,1.4-.53,1.94,1.94,0,0,1,1.55,1l6.62,9.41a2.42,2.42,0,0,1,.48,1.35,2.05,2.05,0,0,1-.86,1.61,34.1,34.1,0,0,1-10,5.4,35.91,35.91,0,0,1-11.8,1.91A33.73,33.73,0,0,1,579.24,86Zm25.43-44.68a14.05,14.05,0,0,0-8.92-2.85,14.26,14.26,0,0,0-9,2.91,15.4,15.4,0,0,0-5.35,8.12h28.38A15.22,15.22,0,0,0,604.67,41.34Z"/><path class="cls-1" d="M647,88a40.75,40.75,0,0,1-12-7.5,2,2,0,0,1-.86-1.56,2.38,2.38,0,0,1,.59-1.45l7.26-9.09a2.07,2.07,0,0,1,1.56-.91,2.7,2.7,0,0,1,1.45.59,36.84,36.84,0,0,0,7.77,4.57,20,20,0,0,0,7.77,1.61,7.78,7.78,0,0,0,4.3-1,3.34,3.34,0,0,0,1.61-3,3.52,3.52,0,0,0-.94-2.37,10.29,10.29,0,0,0-3.25-2.17,63.73,63.73,0,0,0-6.56-2.56,38.09,38.09,0,0,1-13.39-7.47Q637,51,637,42.69a19.24,19.24,0,0,1,2.61-9.79,18.85,18.85,0,0,1,8-7.28,28.31,28.31,0,0,1,13.14-2.77,31.51,31.51,0,0,1,11,2.12,28.93,28.93,0,0,1,10,6.32,2.16,2.16,0,0,1,.75,1.51,2.45,2.45,0,0,1-.75,1.5l-8.5,8.76a2,2,0,0,1-1.5.76,2.5,2.5,0,0,1-1.51-.65,21.31,21.31,0,0,0-4.86-2.93,13.23,13.23,0,0,0-5.3-1.15,7.07,7.07,0,0,0-4.16,1,3.25,3.25,0,0,0-1.43,2.79,3,3,0,0,0,1,2.23,11.51,11.51,0,0,0,3.36,2q2.31,1,6.45,2.34,8.88,2.85,13.71,7.64t4.84,12.95a19.85,19.85,0,0,1-2.71,10,20.43,20.43,0,0,1-7.91,7.61A24.81,24.81,0,0,1,661,90.59,37.77,37.77,0,0,1,647,88Z"/><path class="cls-1" d="M694.62,14.79V2.15A1.9,1.9,0,0,1,696.77,0H711a1.9,1.9,0,0,1,2.15,2.15V14.79A1.9,1.9,0,0,1,711,16.94H696.77A1.9,1.9,0,0,1,694.62,14.79ZM710.86,89h-14a1.9,1.9,0,0,1-2.15-2.15V26.08a1.9,1.9,0,0,1,2.15-2.16h14A1.91,1.91,0,0,1,713,26.08V86.83A1.9,1.9,0,0,1,710.86,89Z"/><path class="cls-1" d="M743.38,108.6a44.2,44.2,0,0,1-11.88-4.89,2,2,0,0,1-1-1.77,2.28,2.28,0,0,1,.27-1.13l5.54-11a1.88,1.88,0,0,1,1.77-1.13,2.11,2.11,0,0,1,1.13.32,39.23,39.23,0,0,0,8.25,3.12,34.22,34.22,0,0,0,8.58,1.23,19.69,19.69,0,0,0,8-1.53,12.45,12.45,0,0,0,5.43-4.35,11.3,11.3,0,0,0,1.93-6.54v-.26a45.61,45.61,0,0,1-7.58,4.83,17.61,17.61,0,0,1-8,1.89,31.74,31.74,0,0,1-16.37-4.28A30.63,30.63,0,0,1,728,71.53a31.87,31.87,0,0,1-4.11-15.94A35.31,35.31,0,0,1,728,38.49a29.69,29.69,0,0,1,11.38-11.74,32.27,32.27,0,0,1,16.53-4.22,26.44,26.44,0,0,1,9.19,1.77,23.17,23.17,0,0,1,7.8,4.57l1.34-3.28a2.39,2.39,0,0,1,1-1.21,2.73,2.73,0,0,1,1.5-.46h10.7a2.1,2.1,0,0,1,2.15,2.16V78.6a32.64,32.64,0,0,1-4.11,16.29A29.88,29.88,0,0,1,774,106.4a33,33,0,0,1-16.61,4.19A52.7,52.7,0,0,1,743.38,108.6Zm21.75-40.35a13.75,13.75,0,0,0,5.35-5.32,15.5,15.5,0,0,0,1.93-7.77,16.4,16.4,0,0,0-1.91-8,13.72,13.72,0,0,0-5.32-5.49,15.36,15.36,0,0,0-7.77-2,15.76,15.76,0,0,0-7.87,2,13.87,13.87,0,0,0-5.41,5.49,16.3,16.3,0,0,0-1.93,8,15.5,15.5,0,0,0,1.93,7.77,13.64,13.64,0,0,0,5.41,5.32,15.86,15.86,0,0,0,7.82,1.91A15.59,15.59,0,0,0,765.13,68.25Z"/><path class="cls-1" d="M856,26.45a24.18,24.18,0,0,1,9.24,10.19,33.71,33.71,0,0,1,3.28,15.24V86.83A1.9,1.9,0,0,1,866.39,89h-14a1.9,1.9,0,0,1-2.15-2.15V53.92q0-6.56-3.25-10.45a11,11,0,0,0-9-3.9,15.49,15.49,0,0,0-7.53,1.91A15.33,15.33,0,0,0,825,46.53a11.83,11.83,0,0,0-2.07,6.59V86.83A1.9,1.9,0,0,1,820.75,89h-14a1.9,1.9,0,0,1-2.15-2.15V26.08a1.9,1.9,0,0,1,2.15-2.16h10.7a2.5,2.5,0,0,1,2.47,1.67l2.31,5.54a30.43,30.43,0,0,1,9.3-5.94,27.22,27.22,0,0,1,10.59-2.34A26.36,26.36,0,0,1,856,26.45Z"/><path class="cls-2" d="M894.72,89H880.48a1.9,1.9,0,0,1-2.15-2.15V74.19A1.9,1.9,0,0,1,880.48,72h14.24a1.9,1.9,0,0,1,2.15,2.15V86.83A1.9,1.9,0,0,1,894.72,89Z"/></g></g></svg>