<svg xmlns="http://www.w3.org/2000/svg" viewBox="0 0 90.59 466.45"><defs><style>.cls-1{fill:#fff;}.cls-2{fill:#f38f1a;}</style></defs><g id="Camada_2" data-name="Camada 2"><g id="Camada_1-2" data-name="Camada 1"><path class="cls-1" d="M89,449.24V464.3a1.9,1.9,0,0,1-2.15,2.15H15.59a1.9,1.9,0,0,1-2.15-2.15V449.24a1.9,1.9,0,0,1,2.15-2.15H40.21V419.51H15.59a1.9,1.9,0,0,1-2.15-2.15V402.31a1.9,1.9,0,0,1,2.15-2.15H86.83A1.9,1.9,0,0,1,89,402.31v15.05a1.9,1.9,0,0,1-2.15,2.15H58.71v27.58H86.83A1.9,1.9,0,0,1,89,449.24Z"/><path class="cls-1" d="M14.79,385.1H2.15A1.9,1.9,0,0,1,0,383V368.71a1.9,1.9,0,0,1,2.15-2.15H14.79a1.9,1.9,0,0,1,2.15,2.15V383A1.9,1.9,0,0,1,14.79,385.1ZM89,368.87v14A1.9,1.9,0,0,1,86.83,385H26.08a1.91,1.91,0,0,1-2.16-2.15v-14a1.9,1.9,0,0,1,2.16-2.15H86.83A1.9,1.9,0,0,1,89,368.87Z"/><path class="cls-1" d="M26.67,304.08A2,2,0,0,1,28.39,303a2.7,2.7,0,0,1,1.23.33l11.62,6.18a1.9,1.9,0,0,1,1.18,1.67,2.25,2.25,0,0,1-.38,1.23,15.35,15.35,0,0,0-2.15,7.42,12,12,0,0,0,1.94,6.48,14.15,14.15,0,0,0,5.72,5,19.87,19.87,0,0,0,9.12,1.93H86.83A1.9,1.9,0,0,1,89,335.37v14a1.9,1.9,0,0,1-2.15,2.15H26.08a1.9,1.9,0,0,1-2.16-2.15v-10.7a2.5,2.5,0,0,1,1.67-2.47l6.29-2.63a18.52,18.52,0,0,1-6.61-6.78,19.12,19.12,0,0,1-2.42-9.62A25.37,25.37,0,0,1,26.67,304.08Z"/><path class="cls-1" d="M86,286.93A32.42,32.42,0,0,1,73.71,299a34,34,0,0,1-16.88,4.33,35.83,35.83,0,0,1-17-4.11,31.92,31.92,0,0,1-12.36-11.48A30.89,30.89,0,0,1,22.85,271a34.05,34.05,0,0,1,4.35-17.53,28.79,28.79,0,0,1,12.05-11.32,38.19,38.19,0,0,1,17.47-3.89c1.43,0,2.85.07,4.25.21a2,2,0,0,1,2,2.26v43.82a16,16,0,0,0,8.38-6.08,16.63,16.63,0,0,0,3-9.78,19,19,0,0,0-1-6.32,22.56,22.56,0,0,0-2.88-5.51,2.34,2.34,0,0,1-.53-1.4,2,2,0,0,1,1-1.56l9.41-6.61a2.43,2.43,0,0,1,1.35-.49,2.05,2.05,0,0,1,1.61.86,34.15,34.15,0,0,1,5.4,10,35.61,35.61,0,0,1,1.91,11.8A33.67,33.67,0,0,1,86,286.93ZM41.34,261.5a14.07,14.07,0,0,0-2.84,8.93,14.27,14.27,0,0,0,2.9,8.95,15.4,15.4,0,0,0,8.12,5.35V256.34A15.22,15.22,0,0,0,41.34,261.5Z"/><path class="cls-1" d="M25.67,111.18a21.84,21.84,0,0,1,10-8.39q6.64-3,16.21-3H86.83A1.9,1.9,0,0,1,89,102v14a1.9,1.9,0,0,1-2.15,2.15H52.53q-6,0-9.49,2.79a9.72,9.72,0,0,0-3.47,8,10.93,10.93,0,0,0,1.69,6,12.86,12.86,0,0,0,4.49,4.27,14.32,14.32,0,0,0,6.08,1.88h35A1.9,1.9,0,0,1,89,143.22v14a1.9,1.9,0,0,1-2.15,2.15H52.53q-6,0-9.49,2.8a9.69,9.69,0,0,0-3.47,8,10.91,10.91,0,0,0,1.91,6.32,13,13,0,0,0,5,4.32,14.54,14.54,0,0,0,6.61,1.56H86.83A1.9,1.9,0,0,1,89,184.51v14a1.9,1.9,0,0,1-2.15,2.15H26.08a1.9,1.9,0,0,1-2.16-2.15v-10.7a2.58,2.58,0,0,1,.41-1.5,2.84,2.84,0,0,1,1.26-1l3.39-1.4A27.88,27.88,0,0,1,24,175.37a29.65,29.65,0,0,1-1.72-10.16,24.41,24.41,0,0,1,2.53-11.29,20.55,20.55,0,0,1,7.42-8.06,26.94,26.94,0,0,1-7.37-9.6A29.06,29.06,0,0,1,22.31,124,23.84,23.84,0,0,1,25.67,111.18Z"/><path class="cls-1" d="M86,74.19A32.42,32.42,0,0,1,73.71,86.26a34,34,0,0,1-16.88,4.33,35.83,35.83,0,0,1-17-4.11A31.84,31.84,0,0,1,27.45,75a30.87,30.87,0,0,1-4.6-16.72A34.05,34.05,0,0,1,27.2,40.75,28.85,28.85,0,0,1,39.25,29.43a38.19,38.19,0,0,1,17.47-3.89c1.43,0,2.85.07,4.25.21A2,2,0,0,1,63,28V71.83a16,16,0,0,0,8.38-6.08,16.63,16.63,0,0,0,3-9.78,19,19,0,0,0-1-6.32,22.56,22.56,0,0,0-2.88-5.51,2.34,2.34,0,0,1-.53-1.4,2,2,0,0,1,1-1.56l9.41-6.61a2.43,2.43,0,0,1,1.35-.49,2,2,0,0,1,1.61.87,34.1,34.1,0,0,1,5.4,10,35.61,35.61,0,0,1,1.91,11.8A33.67,33.67,0,0,1,86,74.19ZM41.34,48.76a14.07,14.07,0,0,0-2.84,8.93,14.27,14.27,0,0,0,2.9,9A15.4,15.4,0,0,0,49.52,72V43.6A15.34,15.34,0,0,0,41.34,48.76Z"/><path class="cls-2" d="M89,2.15V16.4a1.9,1.9,0,0,1-2.15,2.15H74.19A1.9,1.9,0,0,1,72,16.4V2.15A1.9,1.9,0,0,1,74.19,0H86.83A1.9,1.9,0,0,1,89,2.15Z"/></g></g></svg>