<svg width="35" height="182" viewBox="0 0 35 182" fill="none" xmlns="http://www.w3.org/2000/svg">
<g opacity="0.5" clip-path="url(#clip0_7_2)">
<path d="M34.3857 175.289L34.3857 181.142C34.4056 181.258 34.3977 181.377 34.3628 181.49C34.3279 181.602 34.2669 181.705 34.185 181.789C34.103 181.872 34.0024 181.935 33.8915 181.972C33.7806 182.009 33.6626 182.019 33.5473 182L6.0233 182C5.91045 182.016 5.7954 182.006 5.68725 181.97C5.57911 181.933 5.48084 181.872 5.40023 181.79C5.31963 181.709 5.2589 181.61 5.22287 181.501C5.18683 181.391 5.17648 181.275 5.19263 181.161L5.19263 175.289C5.17648 175.175 5.18683 175.059 5.22287 174.95C5.2589 174.84 5.31963 174.741 5.40023 174.66C5.48084 174.578 5.57911 174.517 5.68725 174.481C5.7954 174.444 5.91045 174.434 6.0233 174.45L15.5354 174.45L15.5354 163.689L6.0233 163.689C5.91024 163.705 5.79514 163.693 5.68704 163.657C5.57893 163.62 5.48078 163.558 5.40028 163.476C5.31978 163.395 5.25913 163.295 5.2231 163.186C5.18707 163.077 5.17664 162.96 5.19263 162.846L5.19263 156.993C5.17648 156.879 5.18683 156.763 5.22287 156.654C5.2589 156.545 5.31963 156.446 5.40023 156.364C5.48084 156.283 5.57911 156.221 5.68725 156.185C5.7954 156.149 5.91045 156.138 6.02329 156.155L33.5473 156.155C33.6589 156.138 33.7729 156.147 33.8804 156.182C33.9879 156.216 34.086 156.276 34.1671 156.355C34.2482 156.434 34.3101 156.531 34.348 156.639C34.386 156.746 34.3988 156.861 34.3857 156.974L34.3857 162.827C34.4017 162.941 34.3913 163.057 34.3552 163.166C34.3192 163.276 34.2586 163.375 34.1781 163.457C34.0976 163.538 33.9994 163.6 33.8913 163.637C33.7832 163.674 33.6681 163.685 33.555 163.669L22.683 163.669L22.683 174.45L33.5473 174.45C33.6607 174.432 33.7767 174.442 33.8858 174.478C33.995 174.513 34.0943 174.575 34.1759 174.656C34.2574 174.738 34.3188 174.837 34.3553 174.947C34.3917 175.057 34.4021 175.174 34.3857 175.289Z" fill="#1D1D1B"/>
<path d="M5.71421 150.263L0.830669 150.263C0.717826 150.279 0.602773 150.269 0.494626 150.232C0.386479 150.196 0.28821 150.134 0.207606 150.053C0.127001 149.972 0.0662757 149.872 0.0302415 149.763C-0.00579276 149.654 -0.0161457 149.538 2.87618e-06 149.424L2.63314e-06 143.864C-0.016146 143.75 -0.00579302 143.634 0.0302412 143.524C0.0662755 143.415 0.127001 143.316 0.207605 143.234C0.28821 143.153 0.386479 143.092 0.494626 143.055C0.602773 143.019 0.717826 143.008 0.830668 143.025L5.71421 143.025C5.82705 143.008 5.94211 143.019 6.05025 143.055C6.1584 143.092 6.25667 143.153 6.33727 143.234C6.41788 143.316 6.4786 143.415 6.51464 143.524C6.55067 143.634 6.56102 143.75 6.54488 143.864L6.54488 149.424C6.56103 149.538 6.55067 149.654 6.51464 149.763C6.4786 149.872 6.41788 149.972 6.33727 150.053C6.25667 150.134 6.1584 150.196 6.05025 150.232C5.94211 150.269 5.82705 150.279 5.71421 150.263ZM34.3857 143.926L34.3857 149.389C34.4019 149.503 34.3915 149.619 34.3555 149.728C34.3194 149.837 34.2587 149.936 34.1781 150.018C34.0975 150.099 33.9992 150.161 33.8911 150.197C33.7829 150.233 33.6679 150.244 33.555 150.228L10.0762 150.228C9.96319 150.244 9.84804 150.233 9.73977 150.197C9.6315 150.16 9.53306 150.099 9.45218 150.018C9.37131 149.937 9.31021 149.837 9.27367 149.728C9.23714 149.619 9.22618 149.503 9.24164 149.389L9.24164 143.926C9.22618 143.812 9.23714 143.696 9.27367 143.587C9.31021 143.477 9.37131 143.378 9.45218 143.297C9.53306 143.216 9.6315 143.154 9.73977 143.118C9.84804 143.082 9.96319 143.071 10.0762 143.087L33.5473 143.087C33.6607 143.07 33.7767 143.079 33.8858 143.115C33.995 143.151 34.0943 143.212 34.1759 143.293C34.2574 143.375 34.3188 143.475 34.3553 143.585C34.3917 143.694 34.4021 143.811 34.3857 143.926Z" fill="#1D1D1B"/>
<path d="M10.3041 118.65C10.3649 118.523 10.4589 118.414 10.5759 118.337C10.693 118.259 10.8287 118.215 10.9686 118.209C11.1344 118.214 11.2969 118.257 11.4439 118.334L15.9333 120.742C16.0629 120.795 16.1747 120.885 16.2555 121C16.3363 121.116 16.3827 121.252 16.3892 121.393C16.387 121.565 16.3361 121.733 16.2424 121.877C15.7252 122.755 15.4392 123.751 15.4117 124.772C15.4171 125.669 15.6772 126.545 16.1613 127.297C16.7069 128.139 17.4714 128.814 18.3712 129.247C19.4697 129.778 20.6775 130.038 21.8948 130.004L33.5473 130.004C33.6622 129.986 33.7798 129.996 33.8903 130.032C34.0009 130.069 34.1012 130.131 34.1831 130.215C34.265 130.298 34.3261 130.4 34.3613 130.512C34.3965 130.624 34.4049 130.743 34.3857 130.859L34.3857 136.321C34.4018 136.435 34.3915 136.552 34.3555 136.661C34.3194 136.77 34.2587 136.869 34.1781 136.951C34.0975 137.032 33.9992 137.093 33.8911 137.13C33.7829 137.166 33.6679 137.177 33.555 137.16L10.0762 137.16C9.96319 137.177 9.84804 137.166 9.73976 137.13C9.63149 137.093 9.53305 137.032 9.45218 136.951C9.37131 136.869 9.3102 136.77 9.27367 136.661C9.23714 136.552 9.22618 136.436 9.24164 136.321L9.24164 132.147C9.23158 131.937 9.28896 131.729 9.40523 131.555C9.52149 131.38 9.69042 131.248 9.88685 131.179L12.317 130.153C11.2525 129.512 10.3722 128.601 9.76322 127.511C9.13003 126.363 8.80754 125.067 8.82824 123.754C8.84956 121.948 9.35997 120.183 10.3041 118.65Z" fill="#1D1D1B"/>
<path d="M33.2266 111.959C32.0902 113.932 30.447 115.559 28.4706 116.668C26.4781 117.791 24.2307 118.372 21.9489 118.354C19.662 118.375 17.4054 117.824 15.3808 116.75C13.4192 115.718 11.7696 114.17 10.6055 112.271C9.40801 110.312 8.79126 108.048 8.82824 105.747C8.76576 103.35 9.3465 100.982 10.5089 98.8914C11.6011 96.9931 13.2195 95.4591 15.1645 94.4785C17.2626 93.4365 19.5765 92.9149 21.9141 92.9567C22.4666 92.9567 23.0152 92.9841 23.5561 93.0387C23.6667 93.0377 23.7761 93.0607 23.877 93.1061C23.978 93.1515 24.0681 93.2183 24.1414 93.3019C24.2146 93.3854 24.2692 93.4839 24.3016 93.5906C24.3339 93.6973 24.3432 93.8098 24.3289 93.9205L24.3289 111.034C25.6394 110.622 26.7771 109.782 27.5627 108.646C28.3374 107.529 28.743 106.193 28.7217 104.83C28.7319 103.992 28.6013 103.158 28.3354 102.364C28.0645 101.599 27.69 100.875 27.2227 100.214C27.1068 100.058 27.0444 99.8672 27.0449 99.6718C27.0559 99.5464 27.0968 99.4255 27.1641 99.3195C27.2314 99.2135 27.3231 99.1255 27.4313 99.0631L31.0669 96.484C31.2181 96.3698 31.3999 96.3045 31.5885 96.2967C31.7108 96.3003 31.8306 96.3325 31.9385 96.3907C32.0464 96.4489 32.1395 96.5316 32.2105 96.6323C33.1172 97.8058 33.8224 99.1248 34.2968 100.534C34.7854 102.017 35.0231 103.572 35 105.134C35.0349 107.53 34.4218 109.889 33.2266 111.959ZM15.9642 102.036C15.2149 103.038 14.8302 104.27 14.8747 105.524C14.8415 106.79 15.2368 108.028 15.9952 109.036C16.7902 110.056 17.8908 110.788 19.1324 111.124L19.1324 100.046C17.894 100.348 16.7854 101.046 15.972 102.036L15.9642 102.036Z" fill="#1D1D1B"/>
<path d="M9.91776 43.3804C10.8443 41.9172 12.1928 40.776 13.7813 40.1106C15.7651 39.2832 17.8985 38.8845 20.0442 38.9401L33.5473 38.9401C33.6622 38.9218 33.7798 38.9313 33.8903 38.9679C34.0009 39.0045 34.1012 39.0671 34.1831 39.1506C34.265 39.234 34.3261 39.336 34.3613 39.4479C34.3965 39.5599 34.4049 39.6787 34.3857 39.7946L34.3857 45.2571C34.4018 45.3711 34.3915 45.4873 34.3555 45.5965C34.3194 45.7057 34.2587 45.805 34.1781 45.8864C34.0975 45.9678 33.9992 46.0291 33.8911 46.0655C33.7829 46.1019 33.6679 46.1123 33.555 46.096L20.2953 46.096C18.7499 46.096 17.5277 46.4602 16.6288 47.1885C16.1793 47.5668 15.8239 48.0463 15.5911 48.5883C15.3583 49.1304 15.2545 49.7201 15.2881 50.31C15.2755 51.1379 15.5024 51.9515 15.9411 52.6511C16.376 53.3421 16.9715 53.9154 17.6758 54.321C18.3952 54.7386 19.1976 54.9891 20.0248 55.0546L33.5473 55.0546C33.66 55.0372 33.7751 55.0466 33.8836 55.082C33.9921 55.1173 34.091 55.1777 34.1723 55.2584C34.2537 55.339 34.3153 55.4377 34.3523 55.5466C34.3894 55.6555 34.4008 55.7716 34.3857 55.8857L34.3857 61.3482C34.4018 61.4622 34.3915 61.5784 34.3555 61.6876C34.3194 61.7968 34.2587 61.896 34.1781 61.9774C34.0975 62.0588 33.9992 62.1202 33.8911 62.1566C33.7829 62.1929 33.6679 62.2034 33.555 62.1871L20.2953 62.1871C18.7499 62.1871 17.5277 62.55 16.6288 63.2757C16.18 63.6546 15.8251 64.1341 15.5924 64.6761C15.3596 65.218 15.2554 65.8074 15.2881 66.3971C15.2787 67.2711 15.5364 68.1268 16.0261 68.8475C16.5159 69.5686 17.1811 70.1504 17.9578 70.537C18.7496 70.9406 19.6247 71.1492 20.5116 71.1457L33.5473 71.1457C33.6618 71.1275 33.779 71.137 33.8892 71.1734C33.9994 71.2098 34.0995 71.2721 34.1813 71.355C34.2631 71.438 34.3242 71.5394 34.3598 71.6508C34.3953 71.7623 34.4042 71.8807 34.3857 71.9962L34.3857 77.4315C34.4018 77.5454 34.3915 77.6616 34.3555 77.7708C34.3194 77.8801 34.2587 77.9793 34.1781 78.0607C34.0975 78.1421 33.9992 78.2034 33.8911 78.2398C33.7829 78.2762 33.6679 78.2867 33.555 78.2704L10.0762 78.2704C9.96319 78.2865 9.84803 78.276 9.73976 78.2396C9.63149 78.2032 9.53305 78.1419 9.45218 78.0607C9.37131 77.9794 9.3102 77.8802 9.27367 77.7711C9.23714 77.6619 9.22617 77.5456 9.24164 77.4315L9.24164 73.2565C9.23428 73.0485 9.2895 72.8431 9.40004 72.6674C9.52279 72.4937 9.6915 72.3585 9.88685 72.2772L11.2043 71.766C10.37 70.7782 9.71595 69.6487 9.27255 68.43C8.82393 67.1578 8.59903 65.8162 8.60801 64.4657C8.57911 62.9394 8.91438 61.4285 9.58549 60.0606C10.2405 58.7678 11.2315 57.6793 12.4523 56.9118C11.2351 55.8981 10.2616 54.6187 9.60481 53.17C8.93128 51.6638 8.59111 50.0273 8.60801 48.3747C8.56928 46.6185 9.02335 44.887 9.91776 43.3804Z" fill="#1D1D1B"/>
<path d="M33.2266 28.9514C32.0901 30.9251 30.4469 32.5523 28.4706 33.6609C26.4781 34.7842 24.2307 35.365 21.9489 35.3465C19.662 35.3681 17.4054 34.8171 15.3808 33.7428C13.4192 32.7105 11.7695 31.1631 10.6055 29.2636C9.408 27.3051 8.79125 25.0412 8.82823 22.7397C8.76829 20.3498 9.34897 17.9879 10.5089 15.9038C11.6004 14.0049 13.2189 12.4707 15.1645 11.4908C17.2626 10.4489 19.5764 9.92722 21.9141 9.96911C22.4626 9.96822 23.0107 9.99687 23.5561 10.055C23.6663 10.0541 23.7753 10.077 23.876 10.1222C23.9766 10.1673 24.0666 10.2337 24.1397 10.3168C24.2129 10.4 24.2676 10.4979 24.3002 10.6042C24.3329 10.7104 24.3426 10.8225 24.3288 10.9329L24.3288 28.0267C25.638 27.6212 26.7768 26.7881 27.5665 25.6583C28.3408 24.5397 28.7464 23.2031 28.7256 21.8384C28.7358 21.0003 28.6051 20.1665 28.3392 19.3725C28.0675 18.6078 27.6931 17.8844 27.2265 17.2226C27.1001 17.0685 27.0281 16.8763 27.0217 16.6763C27.0314 16.5511 27.0717 16.4302 27.1392 16.3246C27.2066 16.219 27.2991 16.132 27.4081 16.0715L31.0437 13.4885C31.1949 13.3744 31.3767 13.3091 31.5653 13.3013C31.6876 13.3049 31.8074 13.337 31.9153 13.3953C32.0233 13.4535 32.1164 13.5362 32.1873 13.6368C33.094 14.8104 33.7992 16.1293 34.2737 17.5386C34.7745 19.0205 35.024 20.577 35.0116 22.1428C35.0402 24.5339 34.4231 26.8878 33.2266 28.9514ZM15.9642 19.0291C15.2139 20.0277 14.8265 21.2566 14.867 22.5095C14.8382 23.7681 15.2332 24.9993 15.9874 26.0017C16.7825 27.0214 17.8831 27.7537 19.1246 28.0891L19.1246 17.0158C17.8852 17.3236 16.7786 18.0303 15.972 19.0291L15.9642 19.0291Z" fill="#1D1D1B"/>
<path d="M34.3857 0.838896L34.3857 6.39898C34.4019 6.51294 34.3915 6.62912 34.3555 6.73834C34.3194 6.84755 34.2587 6.9468 34.1781 7.0282C34.0975 7.1096 33.9992 7.17093 33.8911 7.20732C33.7829 7.24371 33.6679 7.25417 33.555 7.23786L28.6638 7.23786C28.5498 7.25691 28.4329 7.2485 28.3227 7.21334C28.2126 7.17817 28.1122 7.11723 28.0297 7.03547C27.9472 6.95372 27.8851 6.85347 27.8482 6.74286C27.8114 6.63226 27.8009 6.51444 27.8176 6.39898L27.8176 0.838896C27.8015 0.724937 27.8119 0.608742 27.8479 0.499524C27.8839 0.390306 27.9446 0.291065 28.0253 0.209663C28.1059 0.12826 28.2041 0.0669308 28.3123 0.03054C28.4204 -0.00585082 28.5355 -0.0163112 28.6483 -2.42083e-06L33.5473 -2.63498e-06C33.6607 -0.0176685 33.7767 -0.00822189 33.8858 0.0275628C33.995 0.0633475 34.0943 0.124479 34.1759 0.206054C34.2574 0.28763 34.3188 0.387369 34.3553 0.497273C34.3917 0.607178 34.4021 0.724189 34.3857 0.838896Z" fill="white"/>
</g>
<defs>
<clipPath id="clip0_7_2">
<rect width="182" height="35" fill="white" transform="translate(0 182) rotate(-90)"/>
</clipPath>
</defs>
</svg>
