<svg xmlns="http://www.w3.org/2000/svg" viewBox="0 0 466.45 90.59"><defs><style>.cls-1{fill:#fff;}.cls-2{fill:#f38f1a;}</style></defs><g id="Camada_2" data-name="Camada 2"><g id="Camada_1-2" data-name="Camada 1"><path class="cls-1" d="M17.2,89h-15A1.9,1.9,0,0,1,0,86.83V15.59a1.9,1.9,0,0,1,2.15-2.15H17.2a1.9,1.9,0,0,1,2.15,2.15V40.21H46.93V15.59a1.91,1.91,0,0,1,2.16-2.15h15a1.9,1.9,0,0,1,2.15,2.15V86.83A1.9,1.9,0,0,1,64.14,89h-15a1.91,1.91,0,0,1-2.16-2.15V58.71H19.35V86.83A1.9,1.9,0,0,1,17.2,89Z"/><path class="cls-1" d="M81.34,14.79V2.15A1.9,1.9,0,0,1,83.49,0H97.74a1.9,1.9,0,0,1,2.15,2.15V14.79a1.9,1.9,0,0,1-2.15,2.15H83.49A1.9,1.9,0,0,1,81.34,14.79ZM97.58,89h-14a1.9,1.9,0,0,1-2.15-2.15V26.08a1.91,1.91,0,0,1,2.15-2.16h14a1.91,1.91,0,0,1,2.15,2.16V86.83A1.9,1.9,0,0,1,97.58,89Z"/><path class="cls-1" d="M162.36,26.67a2,2,0,0,1,1.13,1.72,2.82,2.82,0,0,1-.32,1.23L157,41.24a1.9,1.9,0,0,1-1.67,1.18,2.31,2.31,0,0,1-1.24-.38,15.32,15.32,0,0,0-7.42-2.15,12,12,0,0,0-6.47,1.94,14.07,14.07,0,0,0-5,5.72,19.87,19.87,0,0,0-1.94,9.12V86.83A1.9,1.9,0,0,1,131.07,89h-14a1.9,1.9,0,0,1-2.15-2.15V26.08a1.91,1.91,0,0,1,2.15-2.16h10.7a2.5,2.5,0,0,1,2.48,1.67l2.63,6.29a18.42,18.42,0,0,1,6.77-6.61,19.16,19.16,0,0,1,9.63-2.42A25.34,25.34,0,0,1,162.36,26.67Z"/><path class="cls-1" d="M179.51,86a32.49,32.49,0,0,1-12.07-12.31,34.07,34.07,0,0,1-4.32-16.88,35.83,35.83,0,0,1,4.11-17,31.84,31.84,0,0,1,11.48-12.36,30.87,30.87,0,0,1,16.72-4.6A34.05,34.05,0,0,1,213,27.2a28.83,28.83,0,0,1,11.31,12.05,38.06,38.06,0,0,1,3.9,17.47c0,1.43-.07,2.85-.21,4.25a2,2,0,0,1-2.26,2H181.88A16,16,0,0,0,188,71.34a16.59,16.59,0,0,0,9.78,3,19,19,0,0,0,6.32-1,22.56,22.56,0,0,0,5.51-2.88A2.31,2.31,0,0,1,211,70a2,2,0,0,1,1.56,1l6.61,9.41a2.42,2.42,0,0,1,.48,1.35,2.05,2.05,0,0,1-.86,1.61,34.1,34.1,0,0,1-10,5.4A35.65,35.65,0,0,1,197,90.59,33.73,33.73,0,0,1,179.51,86Zm25.43-44.68A14,14,0,0,0,196,38.5a14.25,14.25,0,0,0-9,2.9,15.4,15.4,0,0,0-5.35,8.12h28.39A15.29,15.29,0,0,0,204.94,41.34Z"/><path class="cls-1" d="M355.27,25.67a21.77,21.77,0,0,1,8.38,10,39.79,39.79,0,0,1,3,16.21V86.83A1.9,1.9,0,0,1,364.46,89h-14a1.9,1.9,0,0,1-2.15-2.15V52.53q0-6-2.8-9.49a9.69,9.69,0,0,0-8-3.47,10.9,10.9,0,0,0-6,1.69,12.88,12.88,0,0,0-4.28,4.49,14.47,14.47,0,0,0-1.88,6.08v35A1.9,1.9,0,0,1,323.22,89h-14a1.9,1.9,0,0,1-2.15-2.15V52.53q0-6-2.79-9.49a9.72,9.72,0,0,0-8-3.47A10.89,10.89,0,0,0,290,41.48a13.07,13.07,0,0,0-4.33,5,14.54,14.54,0,0,0-1.56,6.61V86.83A1.9,1.9,0,0,1,281.93,89H268a1.9,1.9,0,0,1-2.15-2.15V26.08A1.91,1.91,0,0,1,268,23.92h10.7a2.64,2.64,0,0,1,1.51.41,2.91,2.91,0,0,1,1,1.26L282.52,29A28.12,28.12,0,0,1,291.07,24a29.69,29.69,0,0,1,10.16-1.72,24.38,24.38,0,0,1,11.29,2.53,20.51,20.51,0,0,1,8.07,7.42,27,27,0,0,1,9.59-7.37,29.13,29.13,0,0,1,12.29-2.58A23.86,23.86,0,0,1,355.27,25.67Z"/><path class="cls-1" d="M392.25,86a32.49,32.49,0,0,1-12.07-12.31,34.07,34.07,0,0,1-4.32-16.88,35.83,35.83,0,0,1,4.11-17,31.84,31.84,0,0,1,11.48-12.36,30.87,30.87,0,0,1,16.72-4.6,34,34,0,0,1,17.52,4.35A28.79,28.79,0,0,1,437,39.25a38.06,38.06,0,0,1,3.9,17.47,39.92,39.92,0,0,1-.22,4.25,2,2,0,0,1-2.25,2H394.62a16,16,0,0,0,6.07,8.38,16.64,16.64,0,0,0,9.79,3,19,19,0,0,0,6.32-1,22.75,22.75,0,0,0,5.51-2.88,2.31,2.31,0,0,1,1.4-.53,1.94,1.94,0,0,1,1.55,1l6.62,9.41a2.42,2.42,0,0,1,.48,1.35,2.05,2.05,0,0,1-.86,1.61,34.1,34.1,0,0,1-10,5.4,35.65,35.65,0,0,1-11.8,1.91A33.73,33.73,0,0,1,392.25,86Zm25.43-44.68a14,14,0,0,0-8.92-2.84,14.25,14.25,0,0,0-8.95,2.9,15.4,15.4,0,0,0-5.35,8.12h28.38A15.22,15.22,0,0,0,417.68,41.34Z"/><path class="cls-2" d="M464.3,89H450.05a1.9,1.9,0,0,1-2.15-2.15V74.19A1.9,1.9,0,0,1,450.05,72H464.3a1.9,1.9,0,0,1,2.15,2.15V86.83A1.9,1.9,0,0,1,464.3,89Z"/></g></g></svg>