<svg width="182" height="35" viewBox="0 0 182 35" fill="none" xmlns="http://www.w3.org/2000/svg">
<g opacity="0.5" clip-path="url(#clip0_7_2)">
<path d="M6.71101 34.3857H0.858295C0.74213 34.4056 0.622853 34.3977 0.510363 34.3628C0.397873 34.3279 0.295412 34.267 0.211484 34.185C0.127555 34.103 0.064579 34.0024 0.0277808 33.8915C-0.00901732 33.7806 -0.0185764 33.6626 -0.000103114 33.5473L-0.000103114 6.02331C-0.0164116 5.91047 -0.00595613 5.79542 0.0304349 5.68727C0.0668258 5.57912 0.128152 5.48085 0.209555 5.40025C0.290958 5.31964 0.390199 5.25892 0.499417 5.22288C0.608635 5.18685 0.724827 5.1765 0.838786 5.19265L6.71101 5.19265C6.82497 5.1765 6.94116 5.18685 7.05038 5.22288C7.1596 5.25892 7.25884 5.31964 7.34024 5.40025C7.42165 5.48085 7.48297 5.57912 7.51936 5.68727C7.55575 5.79542 7.56621 5.91047 7.5499 6.02331L7.5499 15.5354L18.3111 15.5354V6.02331C18.2955 5.91026 18.3066 5.79515 18.3434 5.68705C18.3803 5.57895 18.442 5.48079 18.5237 5.40029C18.6054 5.31979 18.7048 5.25915 18.8142 5.22312C18.9235 5.18709 19.0398 5.17666 19.1539 5.19265L25.0066 5.19265C25.1206 5.1765 25.2368 5.18685 25.346 5.22288C25.4552 5.25892 25.5544 5.31964 25.6358 5.40025C25.7172 5.48085 25.7786 5.57912 25.815 5.68727C25.8513 5.79542 25.8618 5.91047 25.8455 6.02331L25.8455 33.5473C25.8625 33.6589 25.8532 33.7729 25.8185 33.8804C25.7837 33.9879 25.7244 34.086 25.6451 34.1671C25.5659 34.2482 25.4688 34.3101 25.3614 34.3481C25.2541 34.386 25.1393 34.3989 25.0261 34.3857H19.1734C19.0593 34.4017 18.943 34.3913 18.8337 34.3552C18.7243 34.3192 18.6249 34.2586 18.5432 34.1781C18.4616 34.0976 18.3998 33.9994 18.363 33.8913C18.3261 33.7832 18.315 33.6681 18.3306 33.5551V22.683L7.5499 22.683L7.5499 33.5473C7.56757 33.6608 7.55813 33.7767 7.52234 33.8859C7.48656 33.995 7.42543 34.0944 7.34385 34.1759C7.26228 34.2574 7.16253 34.3189 7.05263 34.3553C6.94272 34.3917 6.82572 34.4022 6.71101 34.3857Z" fill="#1D1D1B"/>
<path d="M31.7373 5.71423V0.830684C31.721 0.717841 31.7315 0.602788 31.7679 0.494642C31.8043 0.386495 31.8656 0.288226 31.947 0.207621C32.0284 0.127016 32.1276 0.066291 32.2369 0.0302568C32.3461 -0.00577747 32.4623 -0.0161304 32.5762 1.8172e-05L38.1363 1.8172e-05C38.2503 -0.0161304 38.3665 -0.00577747 38.4757 0.0302568C38.5849 0.066291 38.6841 0.127016 38.7655 0.207621C38.8469 0.288226 38.9083 0.386495 38.9447 0.494642C38.9811 0.602788 38.9915 0.717841 38.9752 0.830684V5.71423C38.9915 5.82707 38.9811 5.94212 38.9447 6.05027C38.9083 6.15842 38.8469 6.25668 38.7655 6.33729C38.6841 6.41789 38.5849 6.47862 38.4757 6.51465C38.3665 6.55069 38.2503 6.56104 38.1363 6.54489L32.5762 6.54489C32.4623 6.56104 32.3461 6.55069 32.2369 6.51465C32.1276 6.47862 32.0284 6.41789 31.947 6.33729C31.8656 6.25668 31.8043 6.15842 31.7679 6.05027C31.7315 5.94212 31.721 5.82707 31.7373 5.71423ZM38.0739 34.3857H32.6113C32.4974 34.4019 32.3812 34.3915 32.272 34.3555C32.1628 34.3194 32.0635 34.2587 31.9821 34.1781C31.9007 34.0975 31.8394 33.9992 31.803 33.8911C31.7666 33.7829 31.7561 33.6679 31.7725 33.5551L31.7725 10.0762C31.7563 9.9632 31.7668 9.84805 31.8032 9.73978C31.8396 9.63151 31.9009 9.53307 31.9822 9.4522C32.0635 9.37133 32.1626 9.31022 32.2718 9.27369C32.3809 9.23716 32.4972 9.22619 32.6113 9.24166L38.0739 9.24166C38.1881 9.22619 38.3043 9.23716 38.4135 9.27369C38.5226 9.31022 38.6218 9.37133 38.7031 9.4522C38.7844 9.53307 38.8456 9.63151 38.882 9.73978C38.9184 9.84805 38.9289 9.9632 38.9128 10.0762L38.9128 33.5473C38.9304 33.6608 38.921 33.7767 38.8852 33.8859C38.8494 33.995 38.7883 34.0943 38.7067 34.1759C38.6251 34.2574 38.5254 34.3189 38.4155 34.3553C38.3056 34.3917 38.1886 34.4022 38.0739 34.3857Z" fill="#1D1D1B"/>
<path d="M63.3498 10.3041C63.4772 10.365 63.5856 10.4589 63.6632 10.576C63.7409 10.693 63.7849 10.8287 63.7907 10.9687C63.7862 11.1344 63.7435 11.297 63.6659 11.4439L61.2584 15.9334C61.205 16.063 61.1153 16.1747 60.9999 16.2555C60.8844 16.3363 60.748 16.3827 60.6068 16.3893C60.4347 16.3871 60.2668 16.3361 60.123 16.2424C59.2455 15.7252 58.2487 15.4392 57.2279 15.4118C56.3313 15.4171 55.4551 15.6773 54.7034 16.1613C53.8608 16.7069 53.1858 17.4714 52.7525 18.3713C52.2215 19.4697 51.962 20.6775 51.9955 21.8948V33.5473C52.0138 33.6622 52.0043 33.7798 51.9677 33.8904C51.9311 34.0009 51.8685 34.1013 51.7851 34.1831C51.7016 34.265 51.5997 34.3261 51.4877 34.3613C51.3757 34.3965 51.2569 34.4049 51.1411 34.3857H45.6785C45.5646 34.4019 45.4484 34.3915 45.3391 34.3555C45.2299 34.3195 45.1307 34.2587 45.0493 34.1781C44.9679 34.0975 44.9066 33.9993 44.8702 33.8911C44.8338 33.783 44.8233 33.6679 44.8396 33.5551L44.8396 10.0762C44.8235 9.96322 44.834 9.84807 44.8704 9.7398C44.9068 9.63152 44.968 9.53309 45.0493 9.45221C45.1306 9.37134 45.2298 9.31023 45.3389 9.2737C45.4481 9.23717 45.5643 9.22621 45.6785 9.24167H49.8534C50.0634 9.23161 50.271 9.28899 50.4454 9.40526C50.6198 9.52152 50.7516 9.69045 50.8211 9.88688L51.8473 12.3171C52.4882 11.2526 53.3987 10.3723 54.4888 9.76325C55.6365 9.13006 56.9326 8.80757 58.2462 8.82827C60.0516 8.84959 61.8166 9.36 63.3498 10.3041Z" fill="#1D1D1B"/>
<path d="M70.0414 33.2266C68.0677 32.0901 66.4406 30.4469 65.3319 28.4706C64.2087 26.4781 63.6278 24.2307 63.6463 21.9489C63.6248 19.662 64.1757 17.4054 65.25 15.3808C66.2823 13.4192 67.8298 11.7695 69.7293 10.6055C71.6877 9.40799 73.9517 8.79124 76.2531 8.82823C78.6495 8.76575 81.0184 9.34648 83.1086 10.5089C85.0069 11.6011 86.5409 13.2194 87.5215 15.1645C88.5635 17.2626 89.0851 19.5764 89.0432 21.9141C89.0432 22.4666 89.0159 23.0152 88.9613 23.5561C88.9622 23.6666 88.9392 23.7761 88.8938 23.877C88.8484 23.978 88.7817 24.0681 88.6981 24.1413C88.6145 24.2146 88.5161 24.2692 88.4094 24.3016C88.3026 24.3339 88.1902 24.3432 88.0795 24.3288L70.9661 24.3288C71.3775 25.6394 72.2176 26.7771 73.3541 27.5626C74.471 28.3374 75.8065 28.743 77.17 28.7217C78.0082 28.7319 78.842 28.6012 79.636 28.3354C80.401 28.0645 81.1245 27.69 81.7859 27.2226C81.9424 27.1067 82.1328 27.0444 82.3282 27.0449C82.4536 27.0559 82.5745 27.0968 82.6805 27.1641C82.7865 27.2314 82.8744 27.323 82.9369 27.4313L85.516 31.0669C85.6302 31.218 85.6955 31.3999 85.7033 31.5885C85.6997 31.7108 85.6675 31.8306 85.6093 31.9385C85.5511 32.0464 85.4684 32.1395 85.3677 32.2105C84.1941 33.1172 82.8752 33.8224 81.4659 34.2968C79.9833 34.7854 78.4281 35.0231 76.8657 35C74.4703 35.0349 72.1108 34.4217 70.0414 33.2266ZM79.9637 15.9642C78.962 15.2149 77.7301 14.8302 76.4755 14.8747C75.2103 14.8415 73.9715 15.2368 72.9639 15.9951C71.9441 16.7902 71.2118 17.8908 70.8764 19.1323L81.9536 19.1323C81.6518 17.894 80.9538 16.7854 79.9637 15.972V15.9642Z" fill="#1D1D1B"/>
<path d="M138.62 9.91781C140.083 10.8444 141.224 12.1928 141.889 13.7814C142.717 15.7652 143.116 17.8986 143.06 20.0442V33.5473C143.078 33.6623 143.069 33.7798 143.032 33.8904C142.995 34.0009 142.933 34.1013 142.849 34.1832C142.766 34.265 142.664 34.3261 142.552 34.3613C142.44 34.3966 142.321 34.4049 142.205 34.3857L136.743 34.3857C136.629 34.4019 136.513 34.3915 136.404 34.3555C136.294 34.3195 136.195 34.2587 136.114 34.1781C136.032 34.0975 135.971 33.9993 135.935 33.8911C135.898 33.783 135.888 33.6679 135.904 33.5551V20.2953C135.904 18.7499 135.54 17.5277 134.811 16.6288C134.433 16.1794 133.954 15.824 133.412 15.5912C132.87 15.3583 132.28 15.2546 131.69 15.2882C130.862 15.2755 130.048 15.5024 129.349 15.9411C128.658 16.376 128.085 16.9715 127.679 17.6758C127.261 18.3953 127.011 19.1977 126.945 20.0249V33.5473C126.963 33.66 126.953 33.7752 126.918 33.8837C126.883 33.9922 126.822 34.091 126.742 34.1724C126.661 34.2537 126.562 34.3154 126.453 34.3524C126.345 34.3894 126.228 34.4008 126.114 34.3857H120.652C120.538 34.4019 120.422 34.3915 120.312 34.3555C120.203 34.3195 120.104 34.2587 120.023 34.1781C119.941 34.0975 119.88 33.9993 119.843 33.8911C119.807 33.783 119.797 33.6679 119.813 33.5551V20.2953C119.813 18.7499 119.45 17.5277 118.724 16.6288C118.345 16.1801 117.866 15.8252 117.324 15.5924C116.782 15.3597 116.193 15.2555 115.603 15.2882C114.729 15.2787 113.873 15.5364 113.153 16.0261C112.431 16.5159 111.85 17.1812 111.463 17.9579C111.059 18.7496 110.851 19.6248 110.854 20.5117V33.5473C110.872 33.6619 110.863 33.7791 110.827 33.8892C110.79 33.9994 110.728 34.0995 110.645 34.1813C110.562 34.2631 110.461 34.3243 110.349 34.3598C110.238 34.3953 110.119 34.4042 110.004 34.3857H104.569C104.455 34.4019 104.338 34.3915 104.229 34.3555C104.12 34.3195 104.021 34.2587 103.939 34.1781C103.858 34.0975 103.797 33.9993 103.76 33.8911C103.724 33.783 103.713 33.6679 103.73 33.5551V10.0762C103.714 9.96323 103.724 9.84808 103.76 9.73981C103.797 9.63154 103.858 9.5331 103.939 9.45223C104.021 9.37135 104.12 9.31025 104.229 9.27372C104.338 9.23719 104.454 9.22622 104.569 9.24168H108.743C108.952 9.23432 109.157 9.28955 109.333 9.40009C109.506 9.52283 109.642 9.69155 109.723 9.8869L110.234 11.2044C111.222 10.3701 112.351 9.716 113.57 9.27259C114.842 8.82397 116.184 8.59908 117.534 8.60806C119.061 8.57916 120.572 8.91443 121.939 9.58554C123.232 10.2405 124.321 11.2315 125.088 12.4523C126.102 11.2352 127.381 10.2616 128.83 9.60486C130.336 8.93132 131.973 8.59115 133.625 8.60806C135.382 8.56933 137.113 9.0234 138.62 9.91781Z" fill="#1D1D1B"/>
<path d="M153.049 33.2266C151.075 32.0902 149.448 30.447 148.339 28.4706C147.216 26.4781 146.635 24.2307 146.653 21.9489C146.632 19.662 147.183 17.4054 148.257 15.3809C149.289 13.4192 150.837 11.7696 152.736 10.6055C154.695 9.40801 156.959 8.79126 159.26 8.82825C161.65 8.7683 164.012 9.34899 166.096 10.5089C167.995 11.6004 169.529 13.2189 170.509 15.1645C171.551 17.2626 172.073 19.5765 172.031 21.9141C172.032 22.4626 172.003 23.0107 171.945 23.5561C171.946 23.6663 171.923 23.7753 171.878 23.876C171.833 23.9766 171.766 24.0666 171.683 24.1397C171.6 24.2129 171.502 24.2676 171.396 24.3003C171.29 24.3329 171.177 24.3426 171.067 24.3289L153.973 24.3289C154.379 25.638 155.212 26.7768 156.342 27.5665C157.46 28.3408 158.797 28.7464 160.162 28.7256C161 28.7358 161.833 28.6051 162.628 28.3392C163.392 28.0675 164.116 27.6931 164.777 27.2265C164.931 27.1001 165.124 27.0281 165.324 27.0218C165.449 27.0314 165.57 27.0718 165.675 27.1392C165.781 27.2067 165.868 27.2991 165.928 27.4081L168.511 31.0437C168.626 31.1949 168.691 31.3767 168.699 31.5653C168.695 31.6876 168.663 31.8074 168.605 31.9153C168.547 32.0233 168.464 32.1164 168.363 32.1873C167.19 33.094 165.871 33.7992 164.461 34.2737C162.98 34.7745 161.423 35.024 159.857 35.0116C157.466 35.0402 155.112 34.4231 153.049 33.2266ZM162.971 15.9642C161.972 15.2139 160.743 14.8265 159.49 14.867C158.232 14.8382 157.001 15.2333 155.998 15.9874C154.979 16.7825 154.246 17.8831 153.911 19.1246L164.984 19.1246C164.676 17.8852 163.97 16.7787 162.971 15.972V15.9642Z" fill="#1D1D1B"/>
<path d="M181.161 34.3857H175.601C175.487 34.4019 175.371 34.3915 175.262 34.3555C175.152 34.3195 175.053 34.2587 174.972 34.1781C174.89 34.0975 174.829 33.9993 174.793 33.8911C174.756 33.783 174.746 33.6679 174.762 33.5551V28.6638C174.743 28.5498 174.751 28.433 174.787 28.3228C174.822 28.2126 174.883 28.1122 174.965 28.0297C175.046 27.9473 175.147 27.8851 175.257 27.8483C175.368 27.8114 175.486 27.8009 175.601 27.8177H181.161C181.275 27.8015 181.391 27.8119 181.5 27.8479C181.61 27.884 181.709 27.9447 181.79 28.0253C181.872 28.1059 181.933 28.2042 181.969 28.3123C182.006 28.4205 182.016 28.5355 182 28.6484V33.5474C182.018 33.6608 182.008 33.7767 181.972 33.8859C181.937 33.995 181.876 34.0944 181.794 34.1759C181.712 34.2574 181.613 34.3189 181.503 34.3553C181.393 34.3918 181.276 34.4022 181.161 34.3857Z" fill="white"/>
</g>
<defs>
<clipPath id="clip0_7_2">
<rect width="182" height="35" fill="white"/>
</clipPath>
</defs>
</svg>
