<svg xmlns="http://www.w3.org/2000/svg" viewBox="0 0 535.13 109.2"><defs><style>.cls-1{fill:#fff;}.cls-2{fill:#f38f1a;}</style></defs><g id="Camada_2" data-name="Camada 2"><g id="Camada_1-2" data-name="Camada 1"><path class="cls-1" d="M17.46,89.91H2.08a2.09,2.09,0,0,1-1.63-.6A2.09,2.09,0,0,1,0,87.63l9.29-72A2.11,2.11,0,0,1,10,14.1a2.41,2.41,0,0,1,1.6-.52h18A2.26,2.26,0,0,1,32,15.43L45.16,62.86l13.1-47.43a2.25,2.25,0,0,1,2.39-1.85h18a2.42,2.42,0,0,1,1.61.52A2.15,2.15,0,0,1,81,15.59l9.34,72.09A1.86,1.86,0,0,1,88.3,90H72.87a2.08,2.08,0,0,1-2.28-2.06L66,45,54.29,88.06a2.25,2.25,0,0,1-2.39,1.85H38.64a2.26,2.26,0,0,1-2.39-1.85L24.52,45,19.74,87.85A2.09,2.09,0,0,1,17.46,89.91Z"/><path class="cls-1" d="M115.05,87a34.27,34.27,0,0,1-12.6-12.39,32.86,32.86,0,0,1-4.64-17.11,33.29,33.29,0,0,1,4.67-17.33,34.32,34.32,0,0,1,12.68-12.47,36.06,36.06,0,0,1,35.21,0,34.32,34.32,0,0,1,12.68,12.47,33.29,33.29,0,0,1,4.67,17.33A32.54,32.54,0,0,1,163,74.59,34.34,34.34,0,0,1,150.26,87a35.32,35.32,0,0,1-17.69,4.56A34.64,34.64,0,0,1,115.05,87Zm26-15.27a16.08,16.08,0,0,0,6-5.95,16.3,16.3,0,0,0,2.2-8.39,16.6,16.6,0,0,0-2.2-8.48,16.06,16.06,0,0,0-6-6,17,17,0,0,0-16.63,0,16,16,0,0,0-6,6,16.6,16.6,0,0,0-2.2,8.48,16.3,16.3,0,0,0,2.2,8.39,16,16,0,0,0,6,5.95,17,17,0,0,0,16.63,0Z"/><path class="cls-1" d="M230.52,26.73A24.5,24.5,0,0,1,239.87,37a34.13,34.13,0,0,1,3.31,15.41V87.74A1.92,1.92,0,0,1,241,89.91H226.88a1.92,1.92,0,0,1-2.17-2.17V54.49q0-6.63-3.29-10.57a11.15,11.15,0,0,0-9-3.94,15.71,15.71,0,0,0-7.61,1.93A15.5,15.5,0,0,0,199.15,47a12,12,0,0,0-2.09,6.65V87.74a1.92,1.92,0,0,1-2.17,2.17H180.76a1.92,1.92,0,0,1-2.17-2.17V26.35a1.92,1.92,0,0,1,2.17-2.17h10.81a2.51,2.51,0,0,1,2.5,1.68l2.34,5.6a30.55,30.55,0,0,1,9.4-6,27.55,27.55,0,0,1,10.7-2.36A26.55,26.55,0,0,1,230.52,26.73Z"/><path class="cls-1" d="M256.87,14.94V2.17A1.92,1.92,0,0,1,259,0h14.4a1.92,1.92,0,0,1,2.17,2.17V14.94a1.92,1.92,0,0,1-2.17,2.17H259A1.92,1.92,0,0,1,256.87,14.94Zm16.41,75H259.15A1.92,1.92,0,0,1,257,87.74V26.35a1.92,1.92,0,0,1,2.17-2.17h14.13a1.92,1.92,0,0,1,2.17,2.17V87.74A1.92,1.92,0,0,1,273.28,89.91Z"/><path class="cls-1" d="M341.84,24.18h10.43a1.92,1.92,0,0,1,2.17,2.17V107a1.92,1.92,0,0,1-2.17,2.18H338.14A1.92,1.92,0,0,1,336,107V86.38a24.35,24.35,0,0,1-15.43,4.94,33.19,33.19,0,0,1-17.11-4.59A34.11,34.11,0,0,1,286.48,57.1,33.07,33.07,0,0,1,291.07,40a34.13,34.13,0,0,1,12.41-12.36,33.29,33.29,0,0,1,17.06-4.56q10.38,0,17.22,6.46l1.58-3.69A2.51,2.51,0,0,1,341.84,24.18ZM329.1,71.58A15.47,15.47,0,0,0,335,65.76a16.49,16.49,0,0,0,2.14-8.39,17.07,17.07,0,0,0-2.12-8.5,15.66,15.66,0,0,0-5.81-5.95,16.64,16.64,0,0,0-16.38,0,15.26,15.26,0,0,0-5.76,6A17.47,17.47,0,0,0,305,57.37,17,17,0,0,0,307,65.79a15.12,15.12,0,0,0,5.68,5.79,16.08,16.08,0,0,0,8.18,2.09A16.56,16.56,0,0,0,329.1,71.58Z"/><path class="cls-1" d="M416.43,24.18h14.12a1.92,1.92,0,0,1,2.18,2.17V87.74a1.92,1.92,0,0,1-2.18,2.17H419.74a2.52,2.52,0,0,1-2.5-1.68l-2.33-5.6a30.58,30.58,0,0,1-9.4,6A27.43,27.43,0,0,1,394.81,91a26.65,26.65,0,0,1-14-3.64,24.38,24.38,0,0,1-9.34-10.3,34.09,34.09,0,0,1-3.32-15.4V26.35a1.92,1.92,0,0,1,2.17-2.17h14.13a1.92,1.92,0,0,1,2.17,2.17V59.6a17.2,17.2,0,0,0,1.61,7.63,12,12,0,0,0,4.5,5.08,12.7,12.7,0,0,0,6.77,1.79A14.85,14.85,0,0,0,407,72.17a14.68,14.68,0,0,0,5.35-5.08,12.48,12.48,0,0,0,2-6.68V26.35A1.92,1.92,0,0,1,416.43,24.18Z"/><path class="cls-1" d="M460.16,86.92A32.81,32.81,0,0,1,448,74.48a34.41,34.41,0,0,1-4.37-17.06,36,36,0,0,1,4.16-17.19,32.29,32.29,0,0,1,11.59-12.5,31.34,31.34,0,0,1,16.9-4.64A34.4,34.4,0,0,1,494,27.49a29.07,29.07,0,0,1,11.44,12.17,38.56,38.56,0,0,1,3.94,17.65c0,1.45-.08,2.88-.22,4.3a2,2,0,0,1-2.28,2H462.55a16.22,16.22,0,0,0,6.14,8.47,16.81,16.81,0,0,0,9.89,3,19.11,19.11,0,0,0,6.38-1,23.05,23.05,0,0,0,5.57-2.91,2.31,2.31,0,0,1,1.41-.54,2,2,0,0,1,1.58,1l6.68,9.5a2.49,2.49,0,0,1,.49,1.36,2.06,2.06,0,0,1-.87,1.63,34.38,34.38,0,0,1-10.08,5.46,36.07,36.07,0,0,1-11.92,1.93A34.08,34.08,0,0,1,460.16,86.92Zm25.7-45.14a14.24,14.24,0,0,0-9-2.88,14.5,14.5,0,0,0-9,2.93,15.64,15.64,0,0,0-5.4,8.2h28.68A15.39,15.39,0,0,0,485.86,41.78Z"/><path class="cls-2" d="M533,89.91h-14.4a1.92,1.92,0,0,1-2.17-2.17V75a1.92,1.92,0,0,1,2.17-2.17H533A1.92,1.92,0,0,1,535.13,75V87.74A1.92,1.92,0,0,1,533,89.91Z"/></g></g></svg>