<svg xmlns="http://www.w3.org/2000/svg" viewBox="0 0 91.54 521.42"><defs><style>.cls-1{fill:#fff;}.cls-2{fill:#f38f1a;}</style></defs><g id="Camada_2" data-name="Camada 2"><g id="Camada_1-2" data-name="Camada 1"><path class="cls-1" d="M89.91,504v15.21a1.92,1.92,0,0,1-2.17,2.17h-72a1.92,1.92,0,0,1-2.17-2.17V489.86a30.34,30.34,0,0,1,3.32-14.48,23.78,23.78,0,0,1,9.15-9.62,25.73,25.73,0,0,1,13.17-3.39,28.86,28.86,0,0,1,14,3.26,22.81,22.81,0,0,1,9.37,9.42,30.14,30.14,0,0,1,3.34,14.59v12.22H87.74A1.92,1.92,0,0,1,89.91,504ZM47.1,486.49a8.65,8.65,0,0,0-7.71-4.57,7.46,7.46,0,0,0-4.24,1.23,8.29,8.29,0,0,0-2.88,3.31,10.44,10.44,0,0,0-1,4.7v10.7h17V491.21A9.81,9.81,0,0,0,47.1,486.49Z"/><path class="cls-1" d="M87,440.5a34.12,34.12,0,0,1-12.39,12.6,32.87,32.87,0,0,1-17.11,4.65,33.39,33.39,0,0,1-17.33-4.67,34.89,34.89,0,0,1-17.06-30.26,34.84,34.84,0,0,1,4.59-17.63A34.42,34.42,0,0,1,40.15,392.5a33.39,33.39,0,0,1,17.33-4.67,32.63,32.63,0,0,1,17.11,4.7A34.36,34.36,0,0,1,87,405.3,35.29,35.29,0,0,1,91.54,423,34.64,34.64,0,0,1,87,440.5Zm-15.27-26a16.1,16.1,0,0,0-5.95-6,16.3,16.3,0,0,0-8.39-2.2,16.6,16.6,0,0,0-8.48,2.2,16.08,16.08,0,0,0-6,6,17,17,0,0,0,0,16.62,16.08,16.08,0,0,0,6,6,16.7,16.7,0,0,0,8.48,2.2,16.4,16.4,0,0,0,8.39-2.2,16.1,16.1,0,0,0,5.95-6,17,17,0,0,0,0-16.62Z"/><path class="cls-1" d="M27,329.05a2,2,0,0,1,1.73-1.14,2.86,2.86,0,0,1,1.25.32l11.74,6.25a1.92,1.92,0,0,1,1.19,1.69,2.26,2.26,0,0,1-.38,1.25,15.5,15.5,0,0,0-2.17,7.49,12.11,12.11,0,0,0,2,6.55,14.3,14.3,0,0,0,5.78,5.08,20.1,20.1,0,0,0,9.21,1.95H87.74a1.92,1.92,0,0,1,2.17,2.18v14.12A1.92,1.92,0,0,1,87.74,377H26.35a1.92,1.92,0,0,1-2.17-2.18V364a2.52,2.52,0,0,1,1.68-2.5l6.36-2.66A18.6,18.6,0,0,1,25.53,352a19.34,19.34,0,0,1-2.44-9.73A25.62,25.62,0,0,1,27,329.05Z"/><path class="cls-1" d="M89.91,300.53v14.12a1.92,1.92,0,0,1-2.17,2.18H41.29v5.43a1.92,1.92,0,0,1-2.17,2.17H26.35a1.92,1.92,0,0,1-2.17-2.17v-5.32H12.33a2.2,2.2,0,0,1-2.39-2L7.17,300.69a2.61,2.61,0,0,1,0-.54,1.75,1.75,0,0,1,.54-1.36,2.14,2.14,0,0,1,1.47-.49H24.18V288.09a1.92,1.92,0,0,1,2.17-2.17H39.12a1.92,1.92,0,0,1,2.17,2.17v10.27H87.74A1.92,1.92,0,0,1,89.91,300.53Z"/><path class="cls-1" d="M89.91,256.15v14.12a1.92,1.92,0,0,1-2.17,2.17H41.29v5.33a1.92,1.92,0,0,1-2.17,2.17H26.35a1.92,1.92,0,0,1-2.17-2.17v-5.33H19.83q-6.9,0-11.11-2.6a14.94,14.94,0,0,1-6.14-8.07A43.45,43.45,0,0,1,.65,247.62v-2.45A1.92,1.92,0,0,1,2.82,243H13.58c1.41,0,2.12.62,2.12,1.85v1.79q0,4,1.58,5.7A6.38,6.38,0,0,0,22.17,254h2v-9a1.92,1.92,0,0,1,2.17-2.17H39.12A1.92,1.92,0,0,1,41.29,245v9H87.74A1.92,1.92,0,0,1,89.91,256.15Z"/><path class="cls-1" d="M87,222.38A34.22,34.22,0,0,1,74.59,235a33,33,0,0,1-17.11,4.64A33.39,33.39,0,0,1,40.15,235a34.35,34.35,0,0,1-12.47-12.69,35.3,35.3,0,0,1,12.47-47.89,33.39,33.39,0,0,1,17.33-4.67,32.63,32.63,0,0,1,17.11,4.7A34.36,34.36,0,0,1,87,187.18a35.31,35.31,0,0,1,4.56,17.68A34.59,34.59,0,0,1,87,222.38Zm-15.27-26a16.1,16.1,0,0,0-5.95-6,16.4,16.4,0,0,0-8.39-2.2,16.7,16.7,0,0,0-8.48,2.2,16.08,16.08,0,0,0-6,6,17,17,0,0,0,0,16.62,16.08,16.08,0,0,0,6,6,16.6,16.6,0,0,0,8.48,2.2,16.3,16.3,0,0,0,8.39-2.2,16.1,16.1,0,0,0,5.95-6,17,17,0,0,0,0-16.62Z"/><path class="cls-1" d="M89.91,142.71v14a1.92,1.92,0,0,1-2.17,2.18H7.17A1.92,1.92,0,0,1,5,156.67v-14a1.92,1.92,0,0,1,2.17-2.17H87.74A1.92,1.92,0,0,1,89.91,142.71Z"/><path class="cls-1" d="M14.94,125.33H2.17A1.92,1.92,0,0,1,0,123.16v-14.4a1.92,1.92,0,0,1,2.17-2.17H14.94a1.92,1.92,0,0,1,2.17,2.17v14.4A1.92,1.92,0,0,1,14.94,125.33Zm75-16.41v14.13a1.92,1.92,0,0,1-2.17,2.17H26.35a1.92,1.92,0,0,1-2.17-2.17V108.92a1.92,1.92,0,0,1,2.17-2.17H87.74A1.92,1.92,0,0,1,89.91,108.92Z"/><path class="cls-1" d="M87,78.47A34.22,34.22,0,0,1,74.59,91.08a33,33,0,0,1-17.11,4.64,33.29,33.29,0,0,1-17.33-4.67A34.32,34.32,0,0,1,27.68,78.37a34.77,34.77,0,0,1-4.59-17.58,34.84,34.84,0,0,1,4.59-17.63A34.32,34.32,0,0,1,40.15,30.48,33.3,33.3,0,0,1,57.48,25.8a32.63,32.63,0,0,1,17.11,4.7A34.44,34.44,0,0,1,87,43.27,35.31,35.31,0,0,1,91.54,61,34.59,34.59,0,0,1,87,78.47Zm-15.27-26a16,16,0,0,0-5.95-6,16.3,16.3,0,0,0-8.39-2.2,16.6,16.6,0,0,0-8.48,2.2,16,16,0,0,0-6,6,17,17,0,0,0,0,16.63,16.13,16.13,0,0,0,6,6,16.6,16.6,0,0,0,8.48,2.2,16.6,16.6,0,0,0,14.34-24.8Z"/><path class="cls-2" d="M89.91,2.17v14.4a1.92,1.92,0,0,1-2.17,2.17H75a1.92,1.92,0,0,1-2.17-2.17V2.17A1.92,1.92,0,0,1,75,0H87.74A1.92,1.92,0,0,1,89.91,2.17Z"/></g></g></svg>