<svg xmlns="http://www.w3.org/2000/svg" viewBox="0 0 521.42 91.54"><defs><style>.cls-1{fill:#1d1d1b;}.cls-2{fill:#f38f1a;}</style></defs><g id="Camada_2" data-name="Camada 2"><g id="Camada_1-2" data-name="Camada 1"><path class="cls-1" d="M17.38,89.91H2.17A1.92,1.92,0,0,1,0,87.74v-72a1.92,1.92,0,0,1,2.17-2.17H31.56A30.34,30.34,0,0,1,46,16.9a23.78,23.78,0,0,1,9.62,9.15,25.73,25.73,0,0,1,3.39,13.17,28.86,28.86,0,0,1-3.26,14,22.81,22.81,0,0,1-9.42,9.37A30.29,30.29,0,0,1,31.78,65.9H19.56V87.74A1.92,1.92,0,0,1,17.38,89.91ZM34.93,47.1a8.52,8.52,0,0,0,3.34-3.18,8.6,8.6,0,0,0,1.23-4.53,7.46,7.46,0,0,0-1.23-4.24A8.29,8.29,0,0,0,35,32.27a10.47,10.47,0,0,0-4.7-1H19.56v17H30.21A9.81,9.81,0,0,0,34.93,47.1Z"/><path class="cls-1" d="M80.92,87a34.12,34.12,0,0,1-12.6-12.39,32.87,32.87,0,0,1-4.65-17.11,33.39,33.39,0,0,1,4.67-17.33A34.89,34.89,0,0,1,98.6,23.09a34.84,34.84,0,0,1,17.63,4.59,34.42,34.42,0,0,1,12.69,12.47,33.39,33.39,0,0,1,4.67,17.33,32.63,32.63,0,0,1-4.7,17.11A34.36,34.36,0,0,1,116.12,87a35.29,35.29,0,0,1-17.68,4.56A34.64,34.64,0,0,1,80.92,87Zm26-15.27a16.1,16.1,0,0,0,6-5.95,16.3,16.3,0,0,0,2.2-8.39,16.6,16.6,0,0,0-2.2-8.48,16.08,16.08,0,0,0-6-6,17,17,0,0,0-16.62,0,16.08,16.08,0,0,0-6,6,16.7,16.7,0,0,0-2.2,8.48,16.4,16.4,0,0,0,2.2,8.39,16.1,16.1,0,0,0,6,5.95,17,17,0,0,0,16.62,0Z"/><path class="cls-1" d="M192.37,27a2,2,0,0,1,1.14,1.73,2.86,2.86,0,0,1-.32,1.25l-6.25,11.74a1.92,1.92,0,0,1-1.69,1.19,2.26,2.26,0,0,1-1.25-.38,15.5,15.5,0,0,0-7.49-2.17,12.11,12.11,0,0,0-6.55,2,14.23,14.23,0,0,0-5.08,5.78,20.1,20.1,0,0,0-2,9.21V87.74a1.92,1.92,0,0,1-2.17,2.17H146.63a1.92,1.92,0,0,1-2.18-2.17V26.35a1.92,1.92,0,0,1,2.18-2.17h10.81a2.52,2.52,0,0,1,2.5,1.68l2.66,6.36a18.6,18.6,0,0,1,6.84-6.69,19.31,19.31,0,0,1,9.73-2.44A25.62,25.62,0,0,1,192.37,27Z"/><path class="cls-1" d="M220.89,89.91H206.77a1.92,1.92,0,0,1-2.18-2.17V41.29h-5.43A1.92,1.92,0,0,1,197,39.12V26.35a1.92,1.92,0,0,1,2.17-2.17h5.32V12.33a2.2,2.2,0,0,1,2-2.39l14.29-2.77a2.61,2.61,0,0,1,.54,0,1.75,1.75,0,0,1,1.36.54,2.14,2.14,0,0,1,.49,1.47V24.18h10.21a1.92,1.92,0,0,1,2.17,2.17V39.12a1.92,1.92,0,0,1-2.17,2.17H223.06V87.74A1.92,1.92,0,0,1,220.89,89.91Z"/><path class="cls-1" d="M265.27,89.91H251.15A1.92,1.92,0,0,1,249,87.74V41.29h-5.33a1.92,1.92,0,0,1-2.17-2.17V26.35a1.92,1.92,0,0,1,2.17-2.17H249V19.83q0-6.9,2.6-11.11a14.94,14.94,0,0,1,8.07-6.14A43.45,43.45,0,0,1,273.8.65h2.45a1.92,1.92,0,0,1,2.17,2.17V13.58c0,1.41-.62,2.12-1.85,2.12h-1.79q-4,0-5.7,1.58a6.38,6.38,0,0,0-1.69,4.89v2h9a1.92,1.92,0,0,1,2.17,2.17V39.12a1.92,1.92,0,0,1-2.17,2.17h-9V87.74A1.92,1.92,0,0,1,265.27,89.91Z"/><path class="cls-1" d="M299,87a34.22,34.22,0,0,1-12.61-12.39,33,33,0,0,1-4.64-17.11,33.39,33.39,0,0,1,4.67-17.33,34.27,34.27,0,0,1,12.69-12.47,36,36,0,0,1,35.2,0A34.32,34.32,0,0,1,347,40.15a33.3,33.3,0,0,1,4.68,17.33A32.63,32.63,0,0,1,347,74.59,34.44,34.44,0,0,1,334.24,87a35.31,35.31,0,0,1-17.68,4.56A34.59,34.59,0,0,1,299,87Zm26-15.27a16.1,16.1,0,0,0,6-5.95,16.4,16.4,0,0,0,2.2-8.39,16.7,16.7,0,0,0-2.2-8.48,16.08,16.08,0,0,0-6-6,17,17,0,0,0-16.62,0,16.08,16.08,0,0,0-6,6,16.6,16.6,0,0,0-2.2,8.48,16.3,16.3,0,0,0,2.2,8.39,16.1,16.1,0,0,0,6,5.95,17,17,0,0,0,16.62,0Z"/><path class="cls-1" d="M378.71,89.91h-14a1.92,1.92,0,0,1-2.17-2.17V7.17A1.92,1.92,0,0,1,364.74,5h14a1.92,1.92,0,0,1,2.17,2.17V87.74A1.92,1.92,0,0,1,378.71,89.91Z"/><path class="cls-1" d="M396.09,14.94V2.17A1.92,1.92,0,0,1,398.26,0h14.4a1.92,1.92,0,0,1,2.17,2.17V14.94a1.92,1.92,0,0,1-2.17,2.17h-14.4A1.92,1.92,0,0,1,396.09,14.94Zm16.41,75H398.37a1.92,1.92,0,0,1-2.17-2.17V26.35a1.92,1.92,0,0,1,2.17-2.17H412.5a1.92,1.92,0,0,1,2.17,2.17V87.74A1.92,1.92,0,0,1,412.5,89.91Z"/><path class="cls-1" d="M443,87a34.22,34.22,0,0,1-12.61-12.39,32.86,32.86,0,0,1-4.64-17.11,33.29,33.29,0,0,1,4.67-17.33,34.32,34.32,0,0,1,12.68-12.47,36.06,36.06,0,0,1,35.21,0,34.32,34.32,0,0,1,12.68,12.47,33.29,33.29,0,0,1,4.67,17.33,32.62,32.62,0,0,1-4.69,17.11A34.44,34.44,0,0,1,478.15,87a35.31,35.31,0,0,1-17.68,4.56A34.59,34.59,0,0,1,443,87Zm26-15.27a16.08,16.08,0,0,0,6-5.95,16.3,16.3,0,0,0,2.2-8.39,16.6,16.6,0,0,0-2.2-8.48,16.06,16.06,0,0,0-6-6,17,17,0,0,0-16.63,0,16.06,16.06,0,0,0-6,6,16.6,16.6,0,0,0-2.2,8.48,16.3,16.3,0,0,0,2.2,8.39,16.08,16.08,0,0,0,6,5.95,17,17,0,0,0,16.63,0Z"/><path class="cls-2" d="M519.25,89.91h-14.4a1.92,1.92,0,0,1-2.17-2.17V75a1.92,1.92,0,0,1,2.17-2.17h14.4A1.92,1.92,0,0,1,521.42,75V87.74A1.92,1.92,0,0,1,519.25,89.91Z"/></g></g></svg>