<svg xmlns="http://www.w3.org/2000/svg" viewBox="0 0 471.01 107.42"><defs><style>.cls-1{fill:#fff;}.cls-2{fill:#f38f1a;}</style></defs><g id="Camada_2" data-name="Camada 2"><g id="Camada_1-2" data-name="Camada 1"><path class="cls-1" d="M0,86.18V15A1.9,1.9,0,0,1,2.15,12.8H32.63a28.59,28.59,0,0,1,13.82,3.25,23.56,23.56,0,0,1,9.38,9.08,26.3,26.3,0,0,1,3.36,13.36,24.32,24.32,0,0,1-2.95,12.34A23.34,23.34,0,0,1,48,59.19L61.29,85.81a2.64,2.64,0,0,1,.32,1.13,1.2,1.2,0,0,1-.51,1,2.27,2.27,0,0,1-1.37.37H42.53A2.58,2.58,0,0,1,40,86.72L29.46,64.19q-.81.06-2.31.06h-7.8V86.18a1.9,1.9,0,0,1-2.15,2.15h-15A1.9,1.9,0,0,1,0,86.18ZM35.32,46.56a9,9,0,0,0,3.12-3.44,9.72,9.72,0,0,0,1.13-4.57A8.47,8.47,0,0,0,37.1,32,8.61,8.61,0,0,0,31,29.73H19.35V47.85H30.86A8,8,0,0,0,35.32,46.56Z"/><path class="cls-1" d="M82.82,85.43A33.8,33.8,0,0,1,70.35,73.17a32.49,32.49,0,0,1-4.6-16.93,32.91,32.91,0,0,1,4.63-17.15A33.92,33.92,0,0,1,82.93,26.75a35.62,35.62,0,0,1,34.84,0,34,34,0,0,1,12.55,12.34,33,33,0,0,1,4.62,17.15,32.26,32.26,0,0,1-4.65,16.93,34,34,0,0,1-12.63,12.26A35,35,0,0,1,100.16,90,34.25,34.25,0,0,1,82.82,85.43Zm25.75-15.11a15.91,15.91,0,0,0,5.92-5.88,16.24,16.24,0,0,0,2.18-8.31,16.48,16.48,0,0,0-2.18-8.39,15.84,15.84,0,0,0-5.92-5.91,16.81,16.81,0,0,0-16.45,0,15.81,15.81,0,0,0-5.91,5.91A16.48,16.48,0,0,0,84,56.13a16.24,16.24,0,0,0,2.18,8.31,15.88,15.88,0,0,0,5.91,5.88,16.81,16.81,0,0,0,16.45,0Z"/><path class="cls-1" d="M158.47,85.43A33.82,33.82,0,0,1,146,73.17a32.58,32.58,0,0,1-4.59-16.93A33,33,0,0,1,146,39.09a34,34,0,0,1,12.55-12.34,35.62,35.62,0,0,1,34.84,0A34,34,0,0,1,206,39.09a33,33,0,0,1,4.62,17.15,32.26,32.26,0,0,1-4.65,16.93A34,34,0,0,1,193.3,85.43,34.92,34.92,0,0,1,175.8,90,34.24,34.24,0,0,1,158.47,85.43Zm25.75-15.11a15.88,15.88,0,0,0,5.91-5.88,16.24,16.24,0,0,0,2.18-8.31,16.48,16.48,0,0,0-2.18-8.39,15.81,15.81,0,0,0-5.91-5.91,16.81,16.81,0,0,0-16.45,0,15.84,15.84,0,0,0-5.92,5.91,16.47,16.47,0,0,0-2.17,8.39,16.23,16.23,0,0,0,2.17,8.31,15.91,15.91,0,0,0,5.92,5.88,16.81,16.81,0,0,0,16.45,0Z"/><path class="cls-1" d="M237.9,88.33h-14a1.9,1.9,0,0,1-2.15-2.15v-46H216.5a1.9,1.9,0,0,1-2.15-2.15V25.43a1.9,1.9,0,0,1,2.15-2.15h5.27V19q0-6.83,2.58-11a14.78,14.78,0,0,1,8-6.07,43,43,0,0,1,14-1.91h2.42a1.9,1.9,0,0,1,2.15,2.15V12.8c0,1.39-.61,2.09-1.83,2.09h-1.77c-2.65,0-4.54.52-5.65,1.56A6.34,6.34,0,0,0,240,21.29v2h8.92a1.9,1.9,0,0,1,2.15,2.15V38.06a1.9,1.9,0,0,1-2.15,2.15h-8.87v46A1.9,1.9,0,0,1,237.9,88.33Z"/><path class="cls-1" d="M280.64,88.33h-14a1.9,1.9,0,0,1-2.15-2.15v-46h-5.38A1.9,1.9,0,0,1,257,38.06V25.43a1.9,1.9,0,0,1,2.15-2.15h5.27V11.56a2.17,2.17,0,0,1,1.94-2.37l14.14-2.74a2.61,2.61,0,0,1,.54,0,1.7,1.7,0,0,1,1.34.54,2.08,2.08,0,0,1,.48,1.45V23.28H293a1.9,1.9,0,0,1,2.15,2.15V38.06A1.9,1.9,0,0,1,293,40.21H282.79v46A1.9,1.9,0,0,1,280.64,88.33Z"/><path class="cls-1" d="M315.34,85.43a33.87,33.87,0,0,1-12.47-12.26,32.59,32.59,0,0,1-4.6-16.93,33,33,0,0,1,4.63-17.15,34,34,0,0,1,12.55-12.34,35.62,35.62,0,0,1,34.84,0,33.92,33.92,0,0,1,12.55,12.34,32.91,32.91,0,0,1,4.63,17.15,32.26,32.26,0,0,1-4.65,16.93,34,34,0,0,1-12.64,12.26A34.92,34.92,0,0,1,332.68,90,34.25,34.25,0,0,1,315.34,85.43ZM341.1,70.32A15.88,15.88,0,0,0,347,64.44a16.24,16.24,0,0,0,2.18-8.31A16.48,16.48,0,0,0,347,47.74a15.81,15.81,0,0,0-5.91-5.91,16.81,16.81,0,0,0-16.45,0,15.77,15.77,0,0,0-5.92,5.91,16.48,16.48,0,0,0-2.18,8.39,16.24,16.24,0,0,0,2.18,8.31,15.83,15.83,0,0,0,5.92,5.88,16.81,16.81,0,0,0,16.45,0Z"/><path class="cls-1" d="M428.65,26.72A33.73,33.73,0,0,1,440.93,39a32.71,32.71,0,0,1,4.55,16.91,33.27,33.27,0,0,1-4.52,17A33.66,33.66,0,0,1,428.7,85.19a32.82,32.82,0,0,1-16.93,4.54,24.11,24.11,0,0,1-15.27-4.89v20.43a1.9,1.9,0,0,1-2.15,2.15h-14a1.9,1.9,0,0,1-2.15-2.15V25.43a1.9,1.9,0,0,1,2.15-2.15h10.32A2.5,2.5,0,0,1,393.17,25l1.55,3.65q6.78-6.39,17-6.4A32.92,32.92,0,0,1,428.65,26.72Zm-9.11,43.47a14.85,14.85,0,0,0,5.61-5.73,16.67,16.67,0,0,0,2.05-8.33,17.21,17.21,0,0,0-2.07-8.44,15.16,15.16,0,0,0-5.7-5.89,16.45,16.45,0,0,0-16.21,0,15.39,15.39,0,0,0-5.75,5.88,16.92,16.92,0,0,0-2.1,8.42,16.41,16.41,0,0,0,2.12,8.31,15.21,15.21,0,0,0,5.81,5.75,16.33,16.33,0,0,0,8.15,2.07A15.87,15.87,0,0,0,419.54,70.19Z"/><path class="cls-2" d="M468.86,88.33H454.62a1.9,1.9,0,0,1-2.15-2.15V73.55a1.9,1.9,0,0,1,2.15-2.15h14.24A1.9,1.9,0,0,1,471,73.55V86.18A1.9,1.9,0,0,1,468.86,88.33Z"/></g></g></svg>