<svg xmlns="http://www.w3.org/2000/svg" viewBox="0 0 538.44 78.6"><defs><style>.cls-1{fill:#fff;}.cls-2{fill:#f38f1a;}</style></defs><g id="Camada_2" data-name="Camada 2"><g id="Camada_1-2" data-name="Camada 1"><path class="cls-1" d="M14,75A38.19,38.19,0,0,1,.64,65.21,2.25,2.25,0,0,1,0,63.76a2.33,2.33,0,0,1,.81-1.61l9.51-9a2.05,2.05,0,0,1,1.45-.7,2,2,0,0,1,1.56.81A23.54,23.54,0,0,0,21,58.58a22.37,22.37,0,0,0,8.82,1.8q4.56,0,6.83-1.56a4.91,4.91,0,0,0,2.25-4.25,5.18,5.18,0,0,0-1-3.17,10.23,10.23,0,0,0-3.82-2.69,60,60,0,0,0-8.25-3,44.46,44.46,0,0,1-16-8.41q-7-5.78-7-15.62a20.61,20.61,0,0,1,3-10.81,20.89,20.89,0,0,1,9-7.93q6.07-3,14.94-3A38.78,38.78,0,0,1,44.09,2.69,42.17,42.17,0,0,1,56.24,10,2,2,0,0,1,57,11.5,2.31,2.31,0,0,1,56.4,13L47.69,22.8a2,2,0,0,1-1.56.86,2.34,2.34,0,0,1-1.45-.6,30.73,30.73,0,0,0-6.83-4,19.07,19.07,0,0,0-7.53-1.64q-7.58,0-7.58,4.46A4.38,4.38,0,0,0,24,25.05a10.18,10.18,0,0,0,3.3,2.21c1.38.61,3.51,1.41,6.38,2.42.39.11,1,.3,1.77.59A66.83,66.83,0,0,1,48.06,36a23,23,0,0,1,7.75,7.5,20,20,0,0,1,2.74,10.67A22.33,22.33,0,0,1,45.16,75.3a34.73,34.73,0,0,1-14.84,3A40.51,40.51,0,0,1,14,75Z"/><path class="cls-1" d="M81.56,74A32.42,32.42,0,0,1,69.49,61.72a34,34,0,0,1-4.33-16.88,35.83,35.83,0,0,1,4.11-17A31.92,31.92,0,0,1,80.75,15.46a30.89,30.89,0,0,1,16.72-4.6A34.05,34.05,0,0,1,115,15.21a28.79,28.79,0,0,1,11.32,12.05,38.06,38.06,0,0,1,3.89,17.47c0,1.44-.07,2.85-.21,4.25a2,2,0,0,1-2.26,2H83.92A16,16,0,0,0,90,59.35a16.64,16.64,0,0,0,9.78,3,19,19,0,0,0,6.32-1,22.56,22.56,0,0,0,5.51-2.88A2.34,2.34,0,0,1,113,58a2,2,0,0,1,1.56,1l6.61,9.41a2.43,2.43,0,0,1,.49,1.35,2.05,2.05,0,0,1-.86,1.61,34.15,34.15,0,0,1-10,5.4A35.87,35.87,0,0,1,99,78.6,33.67,33.67,0,0,1,81.56,74ZM107,29.35a15.32,15.32,0,0,0-17.88.06,15.4,15.4,0,0,0-5.35,8.12h28.39A15.22,15.22,0,0,0,107,29.35Z"/><path class="cls-1" d="M188.38,14.68a2,2,0,0,1,1.13,1.72,2.68,2.68,0,0,1-.32,1.23L183,29.25a1.9,1.9,0,0,1-1.67,1.18,2.25,2.25,0,0,1-1.23-.38,15.38,15.38,0,0,0-7.42-2.15,12,12,0,0,0-6.48,1.94,14.15,14.15,0,0,0-5,5.72,19.87,19.87,0,0,0-1.93,9.12V74.84A1.91,1.91,0,0,1,157.09,77h-14A1.9,1.9,0,0,1,141,74.84V14.09a1.9,1.9,0,0,1,2.15-2.15h10.69a2.49,2.49,0,0,1,2.48,1.66l2.63,6.29a18.45,18.45,0,0,1,6.78-6.61,19.12,19.12,0,0,1,9.62-2.42A25.34,25.34,0,0,1,188.38,14.68Z"/><path class="cls-1" d="M246.66,77H196.5a1.9,1.9,0,0,1-2.15-2.15v-9a4.42,4.42,0,0,1,.92-2.69l27.2-34.57H197a1.9,1.9,0,0,1-2.15-2.15V14.09A1.9,1.9,0,0,1,197,11.94h48.28a1.9,1.9,0,0,1,2.15,2.15v8.38a4.41,4.41,0,0,1-.91,2.69L218.65,60.38h28a1.9,1.9,0,0,1,2.15,2.15V74.84A1.9,1.9,0,0,1,246.66,77Z"/><path class="cls-1" d="M308.65,77H258.49a1.9,1.9,0,0,1-2.15-2.15v-9a4.42,4.42,0,0,1,.92-2.69l27.2-34.57H259a1.9,1.9,0,0,1-2.15-2.15V14.09A1.9,1.9,0,0,1,259,11.94h48.28a1.9,1.9,0,0,1,2.15,2.15v8.38a4.41,4.41,0,0,1-.91,2.69L280.64,60.38h28a1.9,1.9,0,0,1,2.15,2.15V74.84A1.9,1.9,0,0,1,308.65,77Z"/><path class="cls-1" d="M372.15,11.94h10.32a1.9,1.9,0,0,1,2.15,2.15V74.84A1.9,1.9,0,0,1,382.47,77h-10.7a2.49,2.49,0,0,1-2.47-1.67L368,72.1q-6.73,6.29-16.89,6.29a32.83,32.83,0,0,1-16.93-4.55,33.78,33.78,0,0,1-16.78-29.32,32.71,32.71,0,0,1,4.55-16.91,33.65,33.65,0,0,1,12.28-12.23,32.92,32.92,0,0,1,16.88-4.52q10.28,0,17.05,6.4l1.56-3.66A2.48,2.48,0,0,1,372.15,11.94Zm-12.61,46.9a15.14,15.14,0,0,0,5.81-5.75,16.35,16.35,0,0,0,2.12-8.3,16.89,16.89,0,0,0-2.1-8.42,15.49,15.49,0,0,0-5.75-5.89,16.42,16.42,0,0,0-16.21,0,15.13,15.13,0,0,0-5.7,5.88,17.25,17.25,0,0,0-2.07,8.45,16.73,16.73,0,0,0,2.05,8.33,14.83,14.83,0,0,0,5.61,5.72,15.88,15.88,0,0,0,8.1,2.07A16.34,16.34,0,0,0,359.54,58.84Z"/><path class="cls-1" d="M447.09,14.68a2,2,0,0,1,1.13,1.72,2.68,2.68,0,0,1-.32,1.23l-6.18,11.62a1.9,1.9,0,0,1-1.67,1.18,2.25,2.25,0,0,1-1.23-.38,15.38,15.38,0,0,0-7.42-2.15,12,12,0,0,0-6.48,1.94,14.15,14.15,0,0,0-5,5.72A19.87,19.87,0,0,0,418,44.68V74.84A1.91,1.91,0,0,1,415.8,77h-14a1.9,1.9,0,0,1-2.15-2.15V14.09a1.9,1.9,0,0,1,2.15-2.15h10.69A2.49,2.49,0,0,1,415,13.6l2.63,6.29a18.45,18.45,0,0,1,6.78-6.61A19.12,19.12,0,0,1,434,10.86,25.34,25.34,0,0,1,447.09,14.68Z"/><path class="cls-1" d="M464.25,74a32.35,32.35,0,0,1-12.07-12.31,34,34,0,0,1-4.33-16.88,35.83,35.83,0,0,1,4.11-17,31.84,31.84,0,0,1,11.48-12.36,30.87,30.87,0,0,1,16.72-4.6,34.05,34.05,0,0,1,17.53,4.35A28.83,28.83,0,0,1,509,27.26a38.06,38.06,0,0,1,3.9,17.47c0,1.44-.07,2.85-.21,4.25a2,2,0,0,1-2.26,2H466.61a16,16,0,0,0,6.08,8.38,16.62,16.62,0,0,0,9.78,3,19,19,0,0,0,6.32-1,22.56,22.56,0,0,0,5.51-2.88,2.31,2.31,0,0,1,1.4-.53,2,2,0,0,1,1.56,1l6.61,9.41a2.42,2.42,0,0,1,.48,1.35,2,2,0,0,1-.86,1.61,34.1,34.1,0,0,1-10,5.4,35.87,35.87,0,0,1-11.8,1.91A33.67,33.67,0,0,1,464.25,74Zm25.43-44.68a15.32,15.32,0,0,0-17.88.06,15.4,15.4,0,0,0-5.35,8.12h28.39A15.34,15.34,0,0,0,489.68,29.35Z"/><path class="cls-2" d="M536.29,77H522a1.9,1.9,0,0,1-2.15-2.15V62.2A1.9,1.9,0,0,1,522,60.05h14.25a1.9,1.9,0,0,1,2.15,2.15V74.84A1.9,1.9,0,0,1,536.29,77Z"/></g></g></svg>