<svg xmlns="http://www.w3.org/2000/svg" viewBox="0 0 127.85 77.15"><defs><style>.cls-1{fill:#fff;}.cls-2{fill:#f38f1a;}</style></defs><g id="Camada_2" data-name="Camada 2"><g id="Camada_1-2" data-name="Camada 1"><path class="cls-1" d="M15,73.15A27.29,27.29,0,0,1,3.84,62,33.32,33.32,0,0,1,0,45.91V2.15A1.9,1.9,0,0,1,2.15,0H17.2a1.9,1.9,0,0,1,2.15,2.15v41a20.73,20.73,0,0,0,1.59,8.44,12.53,12.53,0,0,0,4.57,5.57,12.36,12.36,0,0,0,7,2,12.17,12.17,0,0,0,11.67-7.53,20.56,20.56,0,0,0,1.61-8.44v-41A1.9,1.9,0,0,1,47.9,0H63a1.9,1.9,0,0,1,2.15,2.15V45.91A33.11,33.11,0,0,1,61.24,62,27.41,27.41,0,0,1,50,73.15a36.28,36.28,0,0,1-17.53,4A36,36,0,0,1,15,73.15Z"/><path class="cls-1" d="M95.86,75.54h-15a1.9,1.9,0,0,1-2.15-2.15V2.15A1.9,1.9,0,0,1,80.81,0h15A1.9,1.9,0,0,1,98,2.15V73.39A1.9,1.9,0,0,1,95.86,75.54Z"/><path class="cls-2" d="M125.7,75.54H111.45a1.9,1.9,0,0,1-2.15-2.15V60.75a1.9,1.9,0,0,1,2.15-2.15H125.7a1.9,1.9,0,0,1,2.15,2.15V73.39A1.9,1.9,0,0,1,125.7,75.54Z"/></g></g></svg>