<svg xmlns="http://www.w3.org/2000/svg" viewBox="0 0 342.47 90.59"><defs><style>.cls-1{fill:#fff;}.cls-2{fill:#f38f1a;}</style></defs><g id="Camada_2" data-name="Camada 2"><g id="Camada_1-2" data-name="Camada 1"><path class="cls-1" d="M15,86.59A27.29,27.29,0,0,1,3.84,75.48,33.31,33.31,0,0,1,0,59.36V15.59a1.9,1.9,0,0,1,2.15-2.15H17.2a1.9,1.9,0,0,1,2.15,2.15v41a20.73,20.73,0,0,0,1.59,8.44,12,12,0,0,0,11.53,7.53,12.17,12.17,0,0,0,11.67-7.53,20.56,20.56,0,0,0,1.61-8.44v-41a1.9,1.9,0,0,1,2.15-2.15H63a1.9,1.9,0,0,1,2.15,2.15V59.36a33.1,33.1,0,0,1-3.87,16.12A27.41,27.41,0,0,1,50,86.59a36.17,36.17,0,0,1-17.53,4A35.86,35.86,0,0,1,15,86.59Z"/><path class="cls-1" d="M130.05,26.45a24.2,24.2,0,0,1,9.25,10.19,33.71,33.71,0,0,1,3.28,15.24V86.83A1.9,1.9,0,0,1,140.43,89h-14a1.9,1.9,0,0,1-2.15-2.15V53.92q0-6.56-3.25-10.45a11,11,0,0,0-9-3.9,15.82,15.82,0,0,0-13.1,7,11.9,11.9,0,0,0-2.06,6.59V86.83A1.9,1.9,0,0,1,94.79,89h-14a1.9,1.9,0,0,1-2.15-2.15V26.08a1.9,1.9,0,0,1,2.15-2.16H91.5A2.5,2.5,0,0,1,94,25.59l2.31,5.54a30.43,30.43,0,0,1,9.3-5.94,27.18,27.18,0,0,1,10.59-2.34A26.3,26.3,0,0,1,130.05,26.45Z"/><path class="cls-1" d="M156.13,14.79V2.15A1.9,1.9,0,0,1,158.28,0h14.25a1.9,1.9,0,0,1,2.15,2.15V14.79a1.9,1.9,0,0,1-2.15,2.15H158.28A1.9,1.9,0,0,1,156.13,14.79ZM172.36,89h-14a1.9,1.9,0,0,1-2.15-2.15V26.08a1.9,1.9,0,0,1,2.15-2.16h14a1.9,1.9,0,0,1,2.15,2.16V86.83A1.9,1.9,0,0,1,172.36,89Z"/><path class="cls-1" d="M201.75,86.05a32.45,32.45,0,0,1-12-12.29,34,34,0,0,1-4.33-16.93,34.63,34.63,0,0,1,4.3-17.07,32.36,32.36,0,0,1,12-12.34,33.27,33.27,0,0,1,17.36-4.57A37.06,37.06,0,0,1,231,24.73a33.77,33.77,0,0,1,10,5.32,2.15,2.15,0,0,1,.91,1.62,2.61,2.61,0,0,1-.48,1.39l-6.83,9.74a2,2,0,0,1-1.61,1,2.61,2.61,0,0,1-1.4-.54,24,24,0,0,0-5.49-2.85,18.93,18.93,0,0,0-6.29-1,15.17,15.17,0,0,0-8.06,2.26,16.67,16.67,0,0,0-5.92,6.21,17.93,17.93,0,0,0-2.2,8.9,17.38,17.38,0,0,0,2.23,8.76,16.58,16.58,0,0,0,6,6.16,15.38,15.38,0,0,0,8,2.23A19.33,19.33,0,0,0,226.1,73a21.74,21.74,0,0,0,5.46-2.83,2.67,2.67,0,0,1,1.4-.53,2,2,0,0,1,1.61,1l6.83,9.73a2.57,2.57,0,0,1,.53,1.45,1.72,1.72,0,0,1-.64,1.29,33.63,33.63,0,0,1-10.11,5.49A37.37,37.37,0,0,1,219,90.59,33.1,33.1,0,0,1,201.75,86.05Z"/><path class="cls-1" d="M300.16,23.92h10.32a1.9,1.9,0,0,1,2.15,2.16V86.83A1.9,1.9,0,0,1,310.48,89h-10.7a2.5,2.5,0,0,1-2.47-1.67L296,84.09q-6.72,6.28-16.89,6.29a32.86,32.86,0,0,1-16.93-4.55,33.59,33.59,0,0,1-12.26-12.31,33.25,33.25,0,0,1-4.51-17,32.7,32.7,0,0,1,4.54-16.91A33.73,33.73,0,0,1,262.2,27.37a32.92,32.92,0,0,1,16.88-4.52q10.28,0,17.05,6.4l1.56-3.66A2.49,2.49,0,0,1,300.16,23.92ZM287.55,70.83a15.14,15.14,0,0,0,5.81-5.75,16.36,16.36,0,0,0,2.12-8.31,17,17,0,0,0-2.09-8.41,16.13,16.13,0,0,0-22-5.91,15.13,15.13,0,0,0-5.7,5.88,17.24,17.24,0,0,0-2.06,8.44,16.73,16.73,0,0,0,2,8.34,14.78,14.78,0,0,0,5.62,5.72,15.84,15.84,0,0,0,8.09,2.07A16.32,16.32,0,0,0,287.55,70.83Z"/><path class="cls-2" d="M340.32,89H326.07a1.9,1.9,0,0,1-2.15-2.15V74.19A1.9,1.9,0,0,1,326.07,72h14.25a1.9,1.9,0,0,1,2.15,2.15V86.83A1.9,1.9,0,0,1,340.32,89Z"/></g></g></svg>