<svg xmlns="http://www.w3.org/2000/svg" viewBox="0 0 613.49 103.12"><defs><style>.cls-1{fill:#fff;}.cls-2{fill:#f38f1a;}</style></defs><g id="Camada_2" data-name="Camada 2"><g id="Camada_1-2" data-name="Camada 1"><path class="cls-1" d="M73.44,82.47A1.44,1.44,0,0,1,73,83.63a2.05,2.05,0,0,1-1.35.4H56.13a2.36,2.36,0,0,1-2.42-1.77L50.27,72.2H23.17L19.73,82.26A2.3,2.3,0,0,1,17.31,84H1.88a2.15,2.15,0,0,1-1.37-.4A1.4,1.4,0,0,1,0,82.47a2.82,2.82,0,0,1,.16-.91L27.69,10.11a2.43,2.43,0,0,1,2.47-1.72H43.44a2.43,2.43,0,0,1,2.47,1.72L73.28,81.56A2.82,2.82,0,0,1,73.44,82.47Zm-28.6-26.4L37.63,34.89l-1-3.44-.81,3.44-7.2,21.18Z"/><path class="cls-1" d="M98.33,84H84.52a1.9,1.9,0,0,1-2.15-2.15V2.15A1.9,1.9,0,0,1,84.52,0H98.33a1.9,1.9,0,0,1,2.15,2.15V81.88A1.9,1.9,0,0,1,98.33,84Z"/><path class="cls-1" d="M161.83,19h14A1.9,1.9,0,0,1,178,21.13V81.88A1.9,1.9,0,0,1,175.81,84h-10.7a2.49,2.49,0,0,1-2.48-1.66l-2.31-5.54a30.43,30.43,0,0,1-9.3,5.94,27.18,27.18,0,0,1-10.59,2.34,26.24,26.24,0,0,1-13.87-3.61,24.18,24.18,0,0,1-9.25-10.18A33.86,33.86,0,0,1,114,56.07V21.13A1.9,1.9,0,0,1,116.18,19h14a1.9,1.9,0,0,1,2.15,2.15V54a17,17,0,0,0,1.59,7.56,11.86,11.86,0,0,0,4.46,5,12.52,12.52,0,0,0,6.69,1.78,14.76,14.76,0,0,0,7.4-1.91,14.54,14.54,0,0,0,5.29-5,12.34,12.34,0,0,0,1.94-6.61V21.13A1.9,1.9,0,0,1,161.83,19Z"/><path class="cls-1" d="M240.43,21.72a2,2,0,0,1,1.13,1.72,2.74,2.74,0,0,1-.33,1.24l-6.18,11.61a1.89,1.89,0,0,1-1.67,1.18,2.26,2.26,0,0,1-1.23-.37A15.22,15.22,0,0,0,224.73,35a12,12,0,0,0-6.48,1.93,14.11,14.11,0,0,0-5,5.73,19.8,19.8,0,0,0-1.93,9.11V81.88A1.9,1.9,0,0,1,209.14,84h-14A1.9,1.9,0,0,1,193,81.88V21.13A1.9,1.9,0,0,1,195.16,19h10.7a2.48,2.48,0,0,1,2.47,1.66l2.63,6.3a18.55,18.55,0,0,1,6.78-6.62,19.12,19.12,0,0,1,9.62-2.42A25.47,25.47,0,0,1,240.43,21.72Z"/><path class="cls-1" d="M296,19h10.32a1.9,1.9,0,0,1,2.15,2.15V81.88A1.9,1.9,0,0,1,306.29,84h-10.7a2.48,2.48,0,0,1-2.47-1.66l-1.35-3.23q-6.72,6.28-16.88,6.29A32.82,32.82,0,0,1,258,80.89,33.61,33.61,0,0,1,245.7,68.57a33.23,33.23,0,0,1-4.52-17,32.79,32.79,0,0,1,4.54-16.91A33.83,33.83,0,0,1,258,22.42a32.92,32.92,0,0,1,16.88-4.52q10.28,0,17,6.4l1.56-3.66A2.49,2.49,0,0,1,296,19ZM283.36,65.89a15.23,15.23,0,0,0,5.81-5.76,16.35,16.35,0,0,0,2.12-8.3,16.92,16.92,0,0,0-2.1-8.42,15.46,15.46,0,0,0-5.75-5.88,16.45,16.45,0,0,0-16.21,0,15.16,15.16,0,0,0-5.7,5.89,17.21,17.21,0,0,0-2.07,8.44,16.8,16.8,0,0,0,2,8.33,15,15,0,0,0,5.62,5.73A15.87,15.87,0,0,0,275.21,68,16.35,16.35,0,0,0,283.36,65.89Z"/><path class="cls-1" d="M367.58,84H352.53a1.9,1.9,0,0,1-2.15-2.15V10.64a1.9,1.9,0,0,1,2.15-2.15h29.08a30.12,30.12,0,0,1,14.33,3.28,23.7,23.7,0,0,1,9.52,9.06,25.58,25.58,0,0,1,3.35,13,28.64,28.64,0,0,1-3.22,13.82A22.53,22.53,0,0,1,396.26,57a29.8,29.8,0,0,1-14.43,3.31h-12.1V81.88A1.9,1.9,0,0,1,367.58,84Zm17.36-42.36A8.53,8.53,0,0,0,389.46,34a7.4,7.4,0,0,0-1.21-4.19A8.2,8.2,0,0,0,385,27a10.38,10.38,0,0,0-4.65-1H369.73V42.79h10.54A9.68,9.68,0,0,0,384.94,41.67Z"/><path class="cls-1" d="M434.78,84H421a1.9,1.9,0,0,1-2.15-2.15V2.15A1.9,1.9,0,0,1,421,0h13.82a1.9,1.9,0,0,1,2.15,2.15V81.88A1.9,1.9,0,0,1,434.78,84Z"/><path class="cls-1" d="M502.47,19h10.32a1.9,1.9,0,0,1,2.15,2.15V81.88A1.9,1.9,0,0,1,512.79,84h-10.7a2.49,2.49,0,0,1-2.47-1.66l-1.34-3.23q-6.73,6.28-16.89,6.29a32.85,32.85,0,0,1-16.93-4.54A33.69,33.69,0,0,1,452.2,68.57a33.23,33.23,0,0,1-4.52-17,32.71,32.71,0,0,1,4.55-16.91,33.8,33.8,0,0,1,12.28-12.23,32.92,32.92,0,0,1,16.88-4.52q10.28,0,17.05,6.4L500,20.64A2.48,2.48,0,0,1,502.47,19ZM489.86,65.89a15.16,15.16,0,0,0,5.81-5.76,16.35,16.35,0,0,0,2.12-8.3,17,17,0,0,0-2.09-8.42,15.49,15.49,0,0,0-5.76-5.88,16.45,16.45,0,0,0-16.21,0,15.16,15.16,0,0,0-5.7,5.89A17.21,17.21,0,0,0,466,51.83,16.7,16.7,0,0,0,468,60.16a14.81,14.81,0,0,0,5.62,5.73A15.84,15.84,0,0,0,481.72,68,16.32,16.32,0,0,0,489.86,65.89Z"/><path class="cls-1" d="M557.25,103.12H542.47a2.24,2.24,0,0,1-1.4-.38,1.28,1.28,0,0,1-.48-1.07,2.6,2.6,0,0,1,.21-1l6.78-16.88L523.81,21.45a3.12,3.12,0,0,1-.16-.91,1.41,1.41,0,0,1,.49-1.16,2,2,0,0,1,1.34-.4h15.7a2.33,2.33,0,0,1,2.47,1.77l13.07,40,13.17-39.95A2.33,2.33,0,0,1,572.36,19h15.76a2.17,2.17,0,0,1,1.37.4,1.4,1.4,0,0,1,.51,1.16,2.85,2.85,0,0,1-.17.91l-30.1,80A2.45,2.45,0,0,1,557.25,103.12Z"/><path class="cls-2" d="M611.34,84H597.09a1.9,1.9,0,0,1-2.15-2.15V69.25a1.9,1.9,0,0,1,2.15-2.15h14.25a1.9,1.9,0,0,1,2.15,2.15V81.88A1.9,1.9,0,0,1,611.34,84Z"/></g></g></svg>