<svg xmlns="http://www.w3.org/2000/svg" viewBox="0 0 646.45 85.64"><defs><style>.cls-1{fill:#fff;}.cls-2{fill:#f38f1a;}</style></defs><g id="Camada_2" data-name="Camada 2"><g id="Camada_1-2" data-name="Camada 1"><path class="cls-1" d="M73.44,82.47A1.42,1.42,0,0,1,73,83.63a2.05,2.05,0,0,1-1.35.4H56.13a2.36,2.36,0,0,1-2.42-1.77L50.27,72.2H23.17L19.73,82.26A2.3,2.3,0,0,1,17.31,84H1.88a2.15,2.15,0,0,1-1.37-.4A1.39,1.39,0,0,1,0,82.47a2.82,2.82,0,0,1,.16-.91L27.69,10.11a2.43,2.43,0,0,1,2.47-1.72H43.44a2.43,2.43,0,0,1,2.47,1.72L73.28,81.56A2.82,2.82,0,0,1,73.44,82.47ZM44.84,56.08,37.63,34.89l-1-3.44-.81,3.44-7.2,21.19Z"/><path class="cls-1" d="M98.33,84H84.52a1.9,1.9,0,0,1-2.15-2.15V2.15A1.9,1.9,0,0,1,84.52,0H98.33a1.9,1.9,0,0,1,2.15,2.15V81.88A1.9,1.9,0,0,1,98.33,84Z"/><path class="cls-1" d="M161.83,19h14A1.9,1.9,0,0,1,178,21.13V81.88A1.9,1.9,0,0,1,175.81,84h-10.7a2.49,2.49,0,0,1-2.48-1.66l-2.31-5.54a30.43,30.43,0,0,1-9.3,5.94,27.18,27.18,0,0,1-10.59,2.34,26.24,26.24,0,0,1-13.87-3.61,24.18,24.18,0,0,1-9.25-10.18A33.85,33.85,0,0,1,114,56.08V21.13A1.9,1.9,0,0,1,116.18,19h14a1.9,1.9,0,0,1,2.15,2.15V54a17,17,0,0,0,1.59,7.56,11.86,11.86,0,0,0,4.46,5,12.43,12.43,0,0,0,6.69,1.78,14.76,14.76,0,0,0,7.4-1.91,14.54,14.54,0,0,0,5.29-5,12.34,12.34,0,0,0,1.94-6.61V21.13A1.9,1.9,0,0,1,161.83,19Z"/><path class="cls-1" d="M240.43,21.72a2,2,0,0,1,1.13,1.72,2.74,2.74,0,0,1-.33,1.24l-6.18,11.61a1.89,1.89,0,0,1-1.67,1.18,2.26,2.26,0,0,1-1.23-.37A15.22,15.22,0,0,0,224.73,35a12,12,0,0,0-6.48,1.93,14.11,14.11,0,0,0-5,5.73,19.8,19.8,0,0,0-1.93,9.11V81.88A1.9,1.9,0,0,1,209.14,84h-14A1.9,1.9,0,0,1,193,81.88V21.13A1.9,1.9,0,0,1,195.16,19h10.7a2.48,2.48,0,0,1,2.47,1.66l2.63,6.3a18.55,18.55,0,0,1,6.78-6.62,19.12,19.12,0,0,1,9.62-2.42A25.47,25.47,0,0,1,240.43,21.72Z"/><path class="cls-1" d="M296,19h10.32a1.9,1.9,0,0,1,2.15,2.15V81.88A1.9,1.9,0,0,1,306.29,84h-10.7a2.48,2.48,0,0,1-2.47-1.66l-1.35-3.23q-6.72,6.28-16.88,6.29A32.82,32.82,0,0,1,258,80.89,33.66,33.66,0,0,1,245.7,68.58a33.3,33.3,0,0,1-4.52-17,32.79,32.79,0,0,1,4.54-16.91A33.83,33.83,0,0,1,258,22.42a32.92,32.92,0,0,1,16.88-4.52q10.28,0,17,6.4l1.56-3.66A2.49,2.49,0,0,1,296,19ZM283.36,65.89a15.23,15.23,0,0,0,5.81-5.76,16.35,16.35,0,0,0,2.12-8.3,16.92,16.92,0,0,0-2.1-8.42,15.46,15.46,0,0,0-5.75-5.88,16.45,16.45,0,0,0-16.21,0,15.16,15.16,0,0,0-5.7,5.89,17.21,17.21,0,0,0-2.07,8.44,16.8,16.8,0,0,0,2,8.33,15,15,0,0,0,5.62,5.73A15.87,15.87,0,0,0,275.21,68,16.35,16.35,0,0,0,283.36,65.89Z"/><path class="cls-1" d="M367.58,84H352.53a1.9,1.9,0,0,1-2.15-2.15V10.64a1.9,1.9,0,0,1,2.15-2.15H400a1.9,1.9,0,0,1,2.15,2.15V23.82A1.9,1.9,0,0,1,400,26H369.73V42h22.53a1.9,1.9,0,0,1,2.15,2.15v12.1a1.9,1.9,0,0,1-2.15,2.15H369.73V81.88A1.9,1.9,0,0,1,367.58,84Z"/><path class="cls-1" d="M419.81,81.13a33.8,33.8,0,0,1-12.47-12.26,32.52,32.52,0,0,1-4.6-16.93,33,33,0,0,1,4.62-17.15A34.56,34.56,0,0,1,437.31,17.9a34.5,34.5,0,0,1,17.45,4.55,34,34,0,0,1,12.55,12.34,33,33,0,0,1,4.62,17.15,32.29,32.29,0,0,1-4.65,16.93,34,34,0,0,1-12.63,12.26,34.94,34.94,0,0,1-17.5,4.51A34.24,34.24,0,0,1,419.81,81.13ZM445.56,66a15.86,15.86,0,0,0,5.92-5.89,16.17,16.17,0,0,0,2.17-8.3,16.47,16.47,0,0,0-2.17-8.39,15.84,15.84,0,0,0-5.92-5.91,16.81,16.81,0,0,0-16.45,0,15.81,15.81,0,0,0-5.91,5.91A16.48,16.48,0,0,0,421,51.83a16.18,16.18,0,0,0,2.18,8.3A15.83,15.83,0,0,0,429.11,66a16.81,16.81,0,0,0,16.45,0Z"/><path class="cls-1" d="M534.08,21.5a24.26,24.26,0,0,1,9.25,10.19,33.76,33.76,0,0,1,3.28,15.25V81.88A1.9,1.9,0,0,1,544.46,84h-14a1.9,1.9,0,0,1-2.15-2.15V49q0-6.55-3.25-10.46a11,11,0,0,0-9-3.9,15.49,15.49,0,0,0-7.53,1.91A15.3,15.3,0,0,0,503,41.59,11.77,11.77,0,0,0,501,48.17V81.88A1.9,1.9,0,0,1,498.81,84h-14a1.9,1.9,0,0,1-2.15-2.15V21.13A1.9,1.9,0,0,1,484.84,19h10.69A2.49,2.49,0,0,1,498,20.64l2.31,5.54a30.43,30.43,0,0,1,9.3-5.94,27.18,27.18,0,0,1,10.59-2.34A26.32,26.32,0,0,1,534.08,21.5Z"/><path class="cls-1" d="M572.25,81.08a32.59,32.59,0,0,1-12.07-12.32,34,34,0,0,1-4.32-16.88,35.79,35.79,0,0,1,4.11-17A31.87,31.87,0,0,1,571.45,22.5a31,31,0,0,1,16.72-4.6,33.92,33.92,0,0,1,17.52,4.36A28.77,28.77,0,0,1,617,34.3a38.09,38.09,0,0,1,3.9,17.47,39.78,39.78,0,0,1-.22,4.25,2,2,0,0,1-2.25,2H574.62a16.09,16.09,0,0,0,6.07,8.39,16.64,16.64,0,0,0,9.79,3,18.79,18.79,0,0,0,6.32-1,23.06,23.06,0,0,0,5.51-2.87,2.27,2.27,0,0,1,1.4-.54,1.93,1.93,0,0,1,1.55,1l6.62,9.41a2.36,2.36,0,0,1,.48,1.34,2,2,0,0,1-.86,1.61,34.36,34.36,0,0,1-10,5.41,35.91,35.91,0,0,1-11.8,1.9A33.79,33.79,0,0,1,572.25,81.08ZM597.68,36.4a14.05,14.05,0,0,0-8.92-2.85,14.31,14.31,0,0,0-9,2.9,15.44,15.44,0,0,0-5.35,8.12h28.38A15.19,15.19,0,0,0,597.68,36.4Z"/><path class="cls-2" d="M644.29,84H630.05a1.9,1.9,0,0,1-2.15-2.15V69.25a1.9,1.9,0,0,1,2.15-2.15h14.24a1.9,1.9,0,0,1,2.16,2.15V81.88A1.9,1.9,0,0,1,644.29,84Z"/></g></g></svg>