<svg xmlns="http://www.w3.org/2000/svg" viewBox="0 0 713.81 85.65"><defs><style>.cls-1{fill:#fff;}.cls-2{fill:#f38f1a;}</style></defs><g id="Camada_2" data-name="Camada 2"><g id="Camada_1-2" data-name="Camada 1"><path class="cls-1" d="M73.44,82.47A1.42,1.42,0,0,1,73,83.63a2.05,2.05,0,0,1-1.35.4H56.13a2.35,2.35,0,0,1-2.42-1.77L50.27,72.2H23.17L19.73,82.26A2.3,2.3,0,0,1,17.31,84H1.88a2.15,2.15,0,0,1-1.37-.4A1.39,1.39,0,0,1,0,82.47a2.82,2.82,0,0,1,.16-.91L27.69,10.11a2.43,2.43,0,0,1,2.47-1.72H43.44a2.43,2.43,0,0,1,2.47,1.72L73.28,81.56A2.82,2.82,0,0,1,73.44,82.47ZM44.84,56.08,37.63,34.89l-1-3.44-.81,3.44-7.2,21.19Z"/><path class="cls-1" d="M98.33,84H84.52a1.9,1.9,0,0,1-2.15-2.15V2.15A1.9,1.9,0,0,1,84.52,0H98.33a1.9,1.9,0,0,1,2.15,2.15V81.88A1.9,1.9,0,0,1,98.33,84Z"/><path class="cls-1" d="M161.83,19h14A1.9,1.9,0,0,1,178,21.13V81.88A1.9,1.9,0,0,1,175.81,84h-10.7a2.49,2.49,0,0,1-2.48-1.66l-2.31-5.54a30.43,30.43,0,0,1-9.3,5.94,27.18,27.18,0,0,1-10.59,2.34,26.32,26.32,0,0,1-13.87-3.6,24.26,24.26,0,0,1-9.25-10.19A33.71,33.71,0,0,1,114,56.08V21.13A1.9,1.9,0,0,1,116.18,19h14a1.9,1.9,0,0,1,2.15,2.15V54a17,17,0,0,0,1.59,7.56,11.79,11.79,0,0,0,4.46,5,12.43,12.43,0,0,0,6.69,1.78,14.88,14.88,0,0,0,12.69-6.94,12.34,12.34,0,0,0,1.94-6.61V21.13A1.9,1.9,0,0,1,161.83,19Z"/><path class="cls-1" d="M240.43,21.72a2,2,0,0,1,1.13,1.72,2.71,2.71,0,0,1-.33,1.24l-6.18,11.61a1.89,1.89,0,0,1-1.67,1.18,2.24,2.24,0,0,1-1.23-.37A15.25,15.25,0,0,0,224.73,35a12,12,0,0,0-6.48,1.93,14.11,14.11,0,0,0-5,5.73,19.8,19.8,0,0,0-1.93,9.11V81.88A1.9,1.9,0,0,1,209.14,84h-14A1.9,1.9,0,0,1,193,81.88V21.13A1.9,1.9,0,0,1,195.16,19h10.7a2.5,2.5,0,0,1,2.47,1.67L211,26.94a18.55,18.55,0,0,1,6.78-6.62,19.12,19.12,0,0,1,9.62-2.42A25.47,25.47,0,0,1,240.43,21.72Z"/><path class="cls-1" d="M296,19h10.32a1.9,1.9,0,0,1,2.15,2.15V81.88A1.9,1.9,0,0,1,306.29,84h-10.7a2.48,2.48,0,0,1-2.47-1.66l-1.35-3.23q-6.72,6.28-16.88,6.29A32.82,32.82,0,0,1,258,80.89,33.66,33.66,0,0,1,245.7,68.58a33.3,33.3,0,0,1-4.52-17,32.7,32.7,0,0,1,4.54-16.91A33.83,33.83,0,0,1,258,22.42a32.92,32.92,0,0,1,16.88-4.52q10.28,0,17,6.4l1.56-3.65A2.5,2.5,0,0,1,296,19ZM283.36,65.89a15.23,15.23,0,0,0,5.81-5.76,16.35,16.35,0,0,0,2.12-8.3,16.92,16.92,0,0,0-2.1-8.42,15.46,15.46,0,0,0-5.75-5.88,16.45,16.45,0,0,0-16.21,0,15.16,15.16,0,0,0-5.7,5.89,17.21,17.21,0,0,0-2.07,8.44,16.8,16.8,0,0,0,2,8.33,15,15,0,0,0,5.62,5.73A15.84,15.84,0,0,0,275.21,68,16.35,16.35,0,0,0,283.36,65.89Z"/><path class="cls-1" d="M350.37,81.88V10.65a1.9,1.9,0,0,1,2.15-2.15h29.14A32.66,32.66,0,0,1,395,11.05a20.3,20.3,0,0,1,8.9,7.26A19.14,19.14,0,0,1,407,29.19a17.48,17.48,0,0,1-4.19,11.19,11.75,11.75,0,0,1-4.25,3.17,15.61,15.61,0,0,1,6.15,4A19.79,19.79,0,0,1,409,54a20.76,20.76,0,0,1,1.5,7.82,21.38,21.38,0,0,1-3.17,11.64,21,21,0,0,1-9,7.79A31.12,31.12,0,0,1,384.78,84H352.52A1.9,1.9,0,0,1,350.37,81.88Zm35.11-45.94a6.1,6.1,0,0,0,2.1-4.7,5.52,5.52,0,0,0-2-4.41,7.76,7.76,0,0,0-5.19-1.67h-10.7V37.85h10.21A7.92,7.92,0,0,0,385.48,35.94Zm3.33,29.73A8.17,8.17,0,0,0,391,59.73a7.34,7.34,0,0,0-1.08-3.84,7.89,7.89,0,0,0-3-2.88,9.15,9.15,0,0,0-4.49-1.07H369.73v16h13.33A7.6,7.6,0,0,0,388.81,65.67Z"/><path class="cls-1" d="M434.43,81.13A33.8,33.8,0,0,1,422,68.87a32.52,32.52,0,0,1-4.6-16.93A33,33,0,0,1,422,34.79,34.56,34.56,0,0,1,451.93,17.9a34.48,34.48,0,0,1,17.45,4.55,34,34,0,0,1,12.55,12.34,33,33,0,0,1,4.63,17.15,32.29,32.29,0,0,1-4.66,16.93,34,34,0,0,1-12.63,12.26,35,35,0,0,1-17.5,4.52A34.25,34.25,0,0,1,434.43,81.13ZM460.18,66a15.86,15.86,0,0,0,5.92-5.89,16.18,16.18,0,0,0,2.18-8.3,16.48,16.48,0,0,0-2.18-8.39,15.84,15.84,0,0,0-5.92-5.91,16.81,16.81,0,0,0-16.45,0,15.81,15.81,0,0,0-5.91,5.91,16.48,16.48,0,0,0-2.18,8.39,16.18,16.18,0,0,0,2.18,8.3A15.83,15.83,0,0,0,443.73,66a16.81,16.81,0,0,0,16.45,0Z"/><path class="cls-1" d="M510.08,81.13A33.82,33.82,0,0,1,497.6,68.87,32.61,32.61,0,0,1,493,51.94a33,33,0,0,1,4.62-17.15,34,34,0,0,1,12.55-12.34,35.62,35.62,0,0,1,34.84,0,34,34,0,0,1,12.56,12.34,33,33,0,0,1,4.62,17.15,32.29,32.29,0,0,1-4.65,16.93,34,34,0,0,1-12.64,12.26,34.92,34.92,0,0,1-17.5,4.52A34.24,34.24,0,0,1,510.08,81.13ZM535.83,66a15.83,15.83,0,0,0,5.91-5.89,16.18,16.18,0,0,0,2.18-8.3,16.48,16.48,0,0,0-2.18-8.39,15.81,15.81,0,0,0-5.91-5.91,16.81,16.81,0,0,0-16.45,0,15.84,15.84,0,0,0-5.92,5.91,16.47,16.47,0,0,0-2.17,8.39,16.17,16.17,0,0,0,2.17,8.3A15.86,15.86,0,0,0,519.38,66a16.81,16.81,0,0,0,16.45,0Z"/><path class="cls-1" d="M635.26,82.74a1.09,1.09,0,0,1-.48.94,2.21,2.21,0,0,1-1.35.35H616.82a2.81,2.81,0,0,1-2.58-1.4L598.6,58.71l-7.37,8V81.88A1.9,1.9,0,0,1,589.08,84h-14A1.9,1.9,0,0,1,573,81.88V2.15A1.9,1.9,0,0,1,575.1,0h14a1.9,1.9,0,0,1,2.15,2.15V42.9l18.71-22.69A3.26,3.26,0,0,1,612.57,19h18.88a2.6,2.6,0,0,1,1.37.32,1,1,0,0,1,.51.91,2,2,0,0,1-.7,1.4L611,45.16l23.81,36.29A2.29,2.29,0,0,1,635.26,82.74Z"/><path class="cls-1" d="M651.36,83.09a40.71,40.71,0,0,1-12-7.5,2,2,0,0,1-.86-1.56,2.35,2.35,0,0,1,.59-1.45l7.26-9.08a2.08,2.08,0,0,1,1.56-.92,2.81,2.81,0,0,1,1.45.59,35.93,35.93,0,0,0,7.77,4.57,19.83,19.83,0,0,0,7.77,1.62,7.8,7.8,0,0,0,4.3-1,3.38,3.38,0,0,0,1.61-3,3.52,3.52,0,0,0-.94-2.36,10.12,10.12,0,0,0-3.25-2.18,65,65,0,0,0-6.56-2.55,37.77,37.77,0,0,1-13.39-7.48q-5.26-4.72-5.27-13A19.21,19.21,0,0,1,644,28a18.93,18.93,0,0,1,8-7.29A28.38,28.38,0,0,1,665.1,17.9a31.34,31.34,0,0,1,11,2.13,29,29,0,0,1,10,6.31,2.2,2.2,0,0,1,.75,1.51,2.5,2.5,0,0,1-.75,1.51l-8.5,8.76a2,2,0,0,1-1.5.75,2.48,2.48,0,0,1-1.51-.64,21,21,0,0,0-4.86-2.93,13.29,13.29,0,0,0-5.3-1.16,7.13,7.13,0,0,0-4.17,1,3.25,3.25,0,0,0-1.42,2.8A3,3,0,0,0,660,40.19a11.67,11.67,0,0,0,3.36,2q2.31,1,6.45,2.34,8.87,2.85,13.71,7.63t4.84,13a19.7,19.7,0,0,1-2.72,10,20.26,20.26,0,0,1-7.9,7.61,24.74,24.74,0,0,1-12.29,2.91A37.81,37.81,0,0,1,651.36,83.09Z"/><path class="cls-2" d="M711.66,84H697.41a1.9,1.9,0,0,1-2.15-2.15V69.25a1.9,1.9,0,0,1,2.15-2.15h14.25a1.9,1.9,0,0,1,2.15,2.15V81.88A1.9,1.9,0,0,1,711.66,84Z"/></g></g></svg>