<svg xmlns="http://www.w3.org/2000/svg" viewBox="0 0 612.36 85.75"><defs><style>.cls-1{fill:#fff;}.cls-2{fill:#f38f1a;}</style></defs><g id="Camada_2" data-name="Camada 2"><g id="Camada_1-2" data-name="Camada 1"><path class="cls-1" d="M73.44,82.58A1.44,1.44,0,0,1,73,83.74a2.11,2.11,0,0,1-1.35.4H56.13a2.35,2.35,0,0,1-2.42-1.77L50.27,72.31H23.17L19.73,82.37a2.3,2.3,0,0,1-2.42,1.77H1.88a2.21,2.21,0,0,1-1.37-.4A1.4,1.4,0,0,1,0,82.58a2.77,2.77,0,0,1,.16-.91L27.69,10.21a2.44,2.44,0,0,1,2.47-1.72H43.44a2.44,2.44,0,0,1,2.47,1.72L73.28,81.67A2.77,2.77,0,0,1,73.44,82.58Zm-28.6-26.4L37.63,35l-1-3.44L35.86,35l-7.2,21.18Z"/><path class="cls-1" d="M98.33,84.14H84.52A1.9,1.9,0,0,1,82.37,82V2.26A1.9,1.9,0,0,1,84.52.11H98.33a1.9,1.9,0,0,1,2.15,2.15V82A1.9,1.9,0,0,1,98.33,84.14Z"/><path class="cls-1" d="M161.83,19.09h14A1.9,1.9,0,0,1,178,21.24V82a1.91,1.91,0,0,1-2.16,2.15H165.11a2.5,2.5,0,0,1-2.48-1.67l-2.31-5.53a30.43,30.43,0,0,1-9.3,5.94,27.16,27.16,0,0,1-10.59,2.33,26.32,26.32,0,0,1-13.87-3.6,24.2,24.2,0,0,1-9.25-10.19A33.71,33.71,0,0,1,114,56.18V21.24a1.9,1.9,0,0,1,2.15-2.15h14a1.9,1.9,0,0,1,2.15,2.15v32.9a17,17,0,0,0,1.59,7.55,11.76,11.76,0,0,0,4.46,5,12.52,12.52,0,0,0,6.69,1.77,14.84,14.84,0,0,0,12.69-6.93A12.34,12.34,0,0,0,159.68,55V21.24A1.9,1.9,0,0,1,161.83,19.09Z"/><path class="cls-1" d="M240.43,21.83a2,2,0,0,1,1.13,1.72,2.7,2.7,0,0,1-.33,1.23L235.05,36.4a1.9,1.9,0,0,1-1.67,1.18,2.17,2.17,0,0,1-1.23-.38,15.35,15.35,0,0,0-7.42-2.15A12,12,0,0,0,218.25,37a14.15,14.15,0,0,0-5,5.72,19.87,19.87,0,0,0-1.93,9.12V82a1.9,1.9,0,0,1-2.15,2.15h-14A1.9,1.9,0,0,1,193,82V21.24a1.9,1.9,0,0,1,2.15-2.15h10.7a2.49,2.49,0,0,1,2.47,1.66L211,27a18.52,18.52,0,0,1,6.78-6.61A19.12,19.12,0,0,1,227.36,18,25.37,25.37,0,0,1,240.43,21.83Z"/><path class="cls-1" d="M296,19.09h10.33a1.9,1.9,0,0,1,2.15,2.15V82a1.9,1.9,0,0,1-2.15,2.15h-10.7a2.49,2.49,0,0,1-2.47-1.67l-1.35-3.22q-6.72,6.28-16.88,6.29A32.83,32.83,0,0,1,258,81a33.78,33.78,0,0,1-16.78-29.32,32.7,32.7,0,0,1,4.54-16.91A33.83,33.83,0,0,1,258,22.53,32.92,32.92,0,0,1,274.89,18q10.28,0,17,6.4l1.56-3.66A2.49,2.49,0,0,1,296,19.09ZM283.36,66a15,15,0,0,0,5.8-5.75,16.26,16.26,0,0,0,2.13-8.3,16.89,16.89,0,0,0-2.1-8.42,15.56,15.56,0,0,0-5.75-5.89,16.42,16.42,0,0,0-16.21,0,15.13,15.13,0,0,0-5.7,5.88,17.25,17.25,0,0,0-2.07,8.45,16.83,16.83,0,0,0,2,8.33A14.85,14.85,0,0,0,267.12,66a15.84,15.84,0,0,0,8.09,2.07A16.35,16.35,0,0,0,283.36,66Z"/><path class="cls-1" d="M364.24,84.14H349a2.06,2.06,0,0,1-1.61-.59,2,2,0,0,1-.43-1.67l9.19-71.29a2.11,2.11,0,0,1,.73-1.48,2.4,2.4,0,0,1,1.58-.51h17.8a2.23,2.23,0,0,1,2.36,1.83l13,46.94,13-46.94A2.23,2.23,0,0,1,407,8.6h17.85a2.4,2.4,0,0,1,1.58.51,2.19,2.19,0,0,1,.73,1.48l9.24,71.35a1.85,1.85,0,0,1-2,2.25H419.08a2.07,2.07,0,0,1-2.26-2l-4.51-42.47L400.7,82.31a2.24,2.24,0,0,1-2.37,1.83H385.21a2.23,2.23,0,0,1-2.36-1.83L371.23,39.68,366.5,82.1A2.07,2.07,0,0,1,364.24,84.14Z"/><path class="cls-1" d="M460.16,81.18a32.42,32.42,0,0,1-12.07-12.31A34,34,0,0,1,443.76,52a35.83,35.83,0,0,1,4.11-17,31.92,31.92,0,0,1,11.48-12.36A30.87,30.87,0,0,1,476.07,18a34,34,0,0,1,17.53,4.36,28.77,28.77,0,0,1,11.32,12,38.19,38.19,0,0,1,3.89,17.47c0,1.43-.07,2.85-.21,4.25a2,2,0,0,1-2.26,2H462.52a16,16,0,0,0,6.08,8.38,16.62,16.62,0,0,0,9.78,3,19,19,0,0,0,6.32-1,22.56,22.56,0,0,0,5.51-2.88,2.34,2.34,0,0,1,1.4-.53,2,2,0,0,1,1.56,1l6.61,9.41a2.43,2.43,0,0,1,.49,1.35,2,2,0,0,1-.87,1.61,34,34,0,0,1-10,5.4,35.61,35.61,0,0,1-11.8,1.91A33.67,33.67,0,0,1,460.16,81.18ZM485.59,36.5a15.36,15.36,0,0,0-17.88.06,15.4,15.4,0,0,0-5.35,8.12h28.39A15.28,15.28,0,0,0,485.59,36.5Z"/><path class="cls-1" d="M566.39,0h14a1.9,1.9,0,0,1,2.15,2.15V82a1.9,1.9,0,0,1-2.15,2.15h-10.7a2.49,2.49,0,0,1-2.47-1.67l-1.34-3.22q-6.74,6.28-16.89,6.29A32.83,32.83,0,0,1,532,81a33.78,33.78,0,0,1-16.78-29.32,32.71,32.71,0,0,1,4.55-16.91,33.73,33.73,0,0,1,12.28-12.23A32.92,32.92,0,0,1,549,18a24.11,24.11,0,0,1,15.27,4.89V2.15A1.9,1.9,0,0,1,566.39,0Zm-8.95,66a15.14,15.14,0,0,0,5.81-5.75,16.35,16.35,0,0,0,2.12-8.3,16.89,16.89,0,0,0-2.1-8.42,15.49,15.49,0,0,0-5.75-5.89,16.42,16.42,0,0,0-16.21,0,15.13,15.13,0,0,0-5.7,5.88,17.25,17.25,0,0,0-2.07,8.45,16.73,16.73,0,0,0,2.05,8.33A14.72,14.72,0,0,0,541.21,66a15.83,15.83,0,0,0,8.08,2.07A16.35,16.35,0,0,0,557.44,66Z"/><path class="cls-2" d="M610.21,84.14H596A1.9,1.9,0,0,1,593.81,82V69.35A1.9,1.9,0,0,1,596,67.2h14.25a1.9,1.9,0,0,1,2.15,2.15V82A1.9,1.9,0,0,1,610.21,84.14Z"/></g></g></svg>