<svg xmlns="http://www.w3.org/2000/svg" viewBox="0 0 639.03 85.43"><defs><style>.cls-1{fill:#fff;}.cls-2{fill:#f38f1a;}</style></defs><g id="Camada_2" data-name="Camada 2"><g id="Camada_1-2" data-name="Camada 1"><path class="cls-1" d="M19.38,80.11A39,39,0,0,1,0,46.13,38.7,38.7,0,0,1,5.19,26.4,38.13,38.13,0,0,1,19.35,12.23,39.16,39.16,0,0,1,39.3,7,39.73,39.73,0,0,1,52.07,9.09a38.84,38.84,0,0,1,11,5.75A2,2,0,0,1,64,16.45a2.29,2.29,0,0,1-.54,1.4l-8.7,11.4a2.12,2.12,0,0,1-1.62.91,2.49,2.49,0,0,1-1.4-.48,24.3,24.3,0,0,0-6-3,20.14,20.14,0,0,0-6.51-1.1,18.55,18.55,0,0,0-9.73,2.72,20.33,20.33,0,0,0-7.23,7.44,21.36,21.36,0,0,0,0,20.86,20.44,20.44,0,0,0,7.26,7.48,18.53,18.53,0,0,0,9.7,2.74,20.86,20.86,0,0,0,6.53-.94,23.09,23.09,0,0,0,6.05-3.26,2.71,2.71,0,0,1,1.45-.48,2,2,0,0,1,1.62.91l8.54,11.46a2.74,2.74,0,0,1,.6,1.5,1.82,1.82,0,0,1-.81,1.4,38.54,38.54,0,0,1-11.13,5.89A39.91,39.91,0,0,1,39.3,85.38,38.73,38.73,0,0,1,19.38,80.11Z"/><path class="cls-1" d="M120.91,19h14A1.9,1.9,0,0,1,137,21.13V81.88A1.9,1.9,0,0,1,134.89,84h-10.7a2.48,2.48,0,0,1-2.47-1.66l-2.31-5.54a30.43,30.43,0,0,1-9.3,5.94,27.27,27.27,0,0,1-10.6,2.34A26.26,26.26,0,0,1,85.64,81.5,24.15,24.15,0,0,1,76.4,71.32a33.73,33.73,0,0,1-3.28-15.25V21.13A1.9,1.9,0,0,1,75.27,19h14a1.9,1.9,0,0,1,2.15,2.15V54A17,17,0,0,0,93,61.59a11.92,11.92,0,0,0,4.46,5,12.53,12.53,0,0,0,6.7,1.78,14.72,14.72,0,0,0,7.39-1.91,14.57,14.57,0,0,0,5.3-5,12.32,12.32,0,0,0,1.93-6.61V21.13A1.9,1.9,0,0,1,120.91,19Z"/><path class="cls-1" d="M168.06,84H154.25a1.91,1.91,0,0,1-2.16-2.15V2.15A1.91,1.91,0,0,1,154.25,0h13.81a1.9,1.9,0,0,1,2.15,2.15V81.88A1.9,1.9,0,0,1,168.06,84Z"/><path class="cls-1" d="M201.93,84H188a1.9,1.9,0,0,1-2.15-2.15v-46h-5.37a1.9,1.9,0,0,1-2.15-2.15V21.13A1.9,1.9,0,0,1,180.43,19h5.27V7.26a2.17,2.17,0,0,1,1.93-2.37l14.14-2.74a2.61,2.61,0,0,1,.54,0,1.73,1.73,0,0,1,1.34.53,2.13,2.13,0,0,1,.49,1.46V19h10.1a1.9,1.9,0,0,1,2.15,2.15V33.76a1.9,1.9,0,0,1-2.15,2.15H204.08v46A1.9,1.9,0,0,1,201.93,84Z"/><path class="cls-1" d="M270.21,19h14a1.9,1.9,0,0,1,2.15,2.15V81.88A1.9,1.9,0,0,1,284.19,84h-10.7A2.48,2.48,0,0,1,271,82.37l-2.31-5.54a30.36,30.36,0,0,1-9.31,5.94,27.18,27.18,0,0,1-10.59,2.34,26.24,26.24,0,0,1-13.87-3.61,24.18,24.18,0,0,1-9.25-10.18,33.86,33.86,0,0,1-3.27-15.25V21.13A1.9,1.9,0,0,1,224.57,19h14a1.9,1.9,0,0,1,2.15,2.15V54a17,17,0,0,0,1.59,7.56,11.92,11.92,0,0,0,4.46,5,12.53,12.53,0,0,0,6.7,1.78,14.91,14.91,0,0,0,12.69-6.94,12.32,12.32,0,0,0,1.93-6.61V21.13A1.9,1.9,0,0,1,270.21,19Z"/><path class="cls-1" d="M348.81,21.72a2,2,0,0,1,1.13,1.72,2.86,2.86,0,0,1-.32,1.24l-6.18,11.61a1.91,1.91,0,0,1-1.67,1.18,2.29,2.29,0,0,1-1.24-.37A15.22,15.22,0,0,0,333.11,35a12,12,0,0,0-6.48,1.93,14.09,14.09,0,0,0-5,5.73,19.8,19.8,0,0,0-1.94,9.11V81.88A1.9,1.9,0,0,1,317.52,84h-14a1.9,1.9,0,0,1-2.15-2.15V21.13A1.9,1.9,0,0,1,303.54,19h10.7a2.48,2.48,0,0,1,2.47,1.66l2.64,6.3a18.45,18.45,0,0,1,6.77-6.62,19.13,19.13,0,0,1,9.63-2.42A25.44,25.44,0,0,1,348.81,21.72Z"/><path class="cls-1" d="M404.35,19h10.32a1.9,1.9,0,0,1,2.15,2.15V81.88A1.9,1.9,0,0,1,414.67,84H404a2.49,2.49,0,0,1-2.47-1.66l-1.34-3.23q-6.74,6.28-16.89,6.29a32.85,32.85,0,0,1-16.93-4.54,33.69,33.69,0,0,1-12.26-12.32,33.23,33.23,0,0,1-4.52-17,32.71,32.71,0,0,1,4.55-16.91,33.8,33.8,0,0,1,12.28-12.23,32.92,32.92,0,0,1,16.88-4.52q10.28,0,17.05,6.4l1.56-3.66A2.48,2.48,0,0,1,404.35,19ZM391.74,65.89a15.16,15.16,0,0,0,5.81-5.76,16.35,16.35,0,0,0,2.12-8.3,17,17,0,0,0-2.09-8.42,15.49,15.49,0,0,0-5.76-5.88,16.45,16.45,0,0,0-16.21,0,15.16,15.16,0,0,0-5.7,5.89,17.21,17.21,0,0,0-2.07,8.44,16.7,16.7,0,0,0,2.05,8.33,14.81,14.81,0,0,0,5.62,5.73A15.84,15.84,0,0,0,383.6,68,16.32,16.32,0,0,0,391.74,65.89Z"/><path class="cls-1" d="M521.34,20.72a21.9,21.9,0,0,1,8.39,10q3,6.64,2.95,16.22V81.88A1.9,1.9,0,0,1,530.53,84h-14a1.9,1.9,0,0,1-2.15-2.15V47.58q0-6-2.79-9.49a9.72,9.72,0,0,0-8-3.47,10.94,10.94,0,0,0-6,1.7,12.77,12.77,0,0,0-4.27,4.49,14.28,14.28,0,0,0-1.88,6.07v35A1.9,1.9,0,0,1,489.3,84h-14a1.9,1.9,0,0,1-2.15-2.15V47.58q0-6-2.8-9.49a9.69,9.69,0,0,0-8-3.47A10.91,10.91,0,0,0,456,36.53a13.15,13.15,0,0,0-4.33,5,14.57,14.57,0,0,0-1.55,6.61V81.88A1.9,1.9,0,0,1,448,84H434a1.9,1.9,0,0,1-2.15-2.15V21.13A1.9,1.9,0,0,1,434,19h10.7a2.6,2.6,0,0,1,1.5.4,2.84,2.84,0,0,1,1,1.26L448.6,24a27.66,27.66,0,0,1,8.55-4.94,29.41,29.41,0,0,1,10.16-1.72,24.53,24.53,0,0,1,11.29,2.52,20.63,20.63,0,0,1,8.06,7.42,26.91,26.91,0,0,1,9.6-7.36,28.91,28.91,0,0,1,12.28-2.58A23.92,23.92,0,0,1,521.34,20.72Z"/><path class="cls-1" d="M596.71,19H607a1.9,1.9,0,0,1,2.15,2.15V81.88A1.9,1.9,0,0,1,607,84h-10.7a2.49,2.49,0,0,1-2.48-1.66l-1.34-3.23q-6.72,6.28-16.88,6.29a32.86,32.86,0,0,1-16.94-4.54,33.66,33.66,0,0,1-12.25-12.32,33.14,33.14,0,0,1-4.52-17,32.7,32.7,0,0,1,4.54-16.91,33.83,33.83,0,0,1,12.29-12.23,32.9,32.9,0,0,1,16.88-4.52q10.26,0,17,6.4l1.56-3.66A2.49,2.49,0,0,1,596.71,19Zm-12.6,46.91a15.14,15.14,0,0,0,5.8-5.76,16.26,16.26,0,0,0,2.13-8.3,16.92,16.92,0,0,0-2.1-8.42,16.15,16.15,0,0,0-22-5.91,15.16,15.16,0,0,0-5.7,5.89,17.21,17.21,0,0,0-2.07,8.44,16.8,16.8,0,0,0,2,8.33,14.88,14.88,0,0,0,5.62,5.73A15.84,15.84,0,0,0,576,68,16.35,16.35,0,0,0,584.11,65.89Z"/><path class="cls-2" d="M636.88,84H622.63a1.9,1.9,0,0,1-2.15-2.15V69.25a1.9,1.9,0,0,1,2.15-2.15h14.25A1.9,1.9,0,0,1,639,69.25V81.88A1.9,1.9,0,0,1,636.88,84Z"/></g></g></svg>