<svg xmlns="http://www.w3.org/2000/svg" viewBox="0 0 382.9 108.06"><defs><style>.cls-1{fill:#fff;}.cls-2{fill:#f38f1a;}</style></defs><g id="Camada_2" data-name="Camada 2"><g id="Camada_1-2" data-name="Camada 1"><path class="cls-1" d="M42.69,89H29.84a2.43,2.43,0,0,1-2.47-1.72L.16,15.91A2.77,2.77,0,0,1,0,15a1.44,1.44,0,0,1,.48-1.16,2.11,2.11,0,0,1,1.35-.4H18.17a2.4,2.4,0,0,1,2.42,1.72l16,46.56L51.24,15.21a2.29,2.29,0,0,1,2.42-1.77h16a2.11,2.11,0,0,1,1.42.43,1.47,1.47,0,0,1,.51,1.18,2.63,2.63,0,0,1-.16.86L63.28,40.54l6.94,21.13L85.91,15.21a2.36,2.36,0,0,1,2.42-1.77h16.29a2.24,2.24,0,0,1,1.38.4,1.43,1.43,0,0,1,.51,1.16,2.8,2.8,0,0,1-.17.91L78.87,87.26A2.43,2.43,0,0,1,76.4,89H63.76a2.43,2.43,0,0,1-2.47-1.72l-8-21.61L45.16,87.26A2.43,2.43,0,0,1,42.69,89Z"/><path class="cls-1" d="M115.43,14.79V2.15A1.9,1.9,0,0,1,117.58,0h14.25A1.9,1.9,0,0,1,134,2.15V14.79a1.9,1.9,0,0,1-2.15,2.15H117.58A1.9,1.9,0,0,1,115.43,14.79ZM131.67,89h-14a1.9,1.9,0,0,1-2.15-2.15V26.08a1.9,1.9,0,0,1,2.15-2.15h14a1.9,1.9,0,0,1,2.15,2.15V86.83A1.9,1.9,0,0,1,131.67,89Z"/><path class="cls-1" d="M165,89H151.18A1.9,1.9,0,0,1,149,86.83V7.1A1.9,1.9,0,0,1,151.18,5H165a1.9,1.9,0,0,1,2.15,2.15V86.83A1.9,1.9,0,0,1,165,89Z"/><path class="cls-1" d="M198.17,89H184.35a1.9,1.9,0,0,1-2.15-2.15V7.1A1.9,1.9,0,0,1,184.35,5h13.82a1.9,1.9,0,0,1,2.15,2.15V86.83A1.9,1.9,0,0,1,198.17,89Z"/><path class="cls-1" d="M242.63,108.06H227.85a2.25,2.25,0,0,1-1.4-.37,1.3,1.3,0,0,1-.49-1.08,2.53,2.53,0,0,1,.22-1L233,88.71,209.19,26.4a2.83,2.83,0,0,1-.16-.92,1.42,1.42,0,0,1,.48-1.15,2.05,2.05,0,0,1,1.35-.4h15.7A2.33,2.33,0,0,1,229,25.7l13.06,40L255.27,25.7a2.32,2.32,0,0,1,2.47-1.77h15.75a2.15,2.15,0,0,1,1.37.4,1.38,1.38,0,0,1,.51,1.15,2.83,2.83,0,0,1-.16.92L245.1,106.34A2.43,2.43,0,0,1,242.63,108.06Z"/><path class="cls-1" d="M287.84,47.15a2.12,2.12,0,0,1-1.55-.7l-2.91-2.69a2.16,2.16,0,0,1-.75-1.5,2.53,2.53,0,0,1,.75-1.61,33.14,33.14,0,0,0,4.9-5.89,9,9,0,0,0,1.5-4.55v-.48h-7.31a1.9,1.9,0,0,1-2.15-2.15V13.33a1.9,1.9,0,0,1,2.15-2.15h16a1.9,1.9,0,0,1,2.15,2.15V25.91A20.87,20.87,0,0,1,297.42,37a42.73,42.73,0,0,1-8.07,9.55A2.19,2.19,0,0,1,287.84,47.15Z"/><path class="cls-1" d="M320.45,88a40.71,40.71,0,0,1-12-7.5,2,2,0,0,1-.86-1.56,2.33,2.33,0,0,1,.59-1.45l7.26-9.09a2.07,2.07,0,0,1,1.55-.91,2.72,2.72,0,0,1,1.46.59,36.35,36.35,0,0,0,7.77,4.57A20,20,0,0,0,334,74.3a7.81,7.81,0,0,0,4.31-1,3.36,3.36,0,0,0,1.61-3A3.57,3.57,0,0,0,339,67.9a10.23,10.23,0,0,0-3.26-2.17,63.39,63.39,0,0,0-6.55-2.56,37.91,37.91,0,0,1-13.39-7.47q-5.26-4.73-5.27-13a19.24,19.24,0,0,1,2.61-9.79,18.88,18.88,0,0,1,8-7.28,28.33,28.33,0,0,1,13.15-2.77A31.55,31.55,0,0,1,345.24,25a29,29,0,0,1,10,6.32A2.14,2.14,0,0,1,356,32.8a2.42,2.42,0,0,1-.76,1.5l-8.49,8.76a2,2,0,0,1-1.51.76,2.49,2.49,0,0,1-1.5-.65,21.16,21.16,0,0,0-4.87-2.93,13.19,13.19,0,0,0-5.29-1.15,7.13,7.13,0,0,0-4.17,1A3.24,3.24,0,0,0,328,42.9a3,3,0,0,0,1,2.23,11.44,11.44,0,0,0,3.37,2q2.31,1,6.45,2.34,8.86,2.85,13.71,7.64t4.84,12.95a19.74,19.74,0,0,1-2.72,10,20.4,20.4,0,0,1-7.9,7.61,24.85,24.85,0,0,1-12.29,2.9A37.81,37.81,0,0,1,320.45,88Z"/><path class="cls-2" d="M380.75,89H366.5a1.9,1.9,0,0,1-2.15-2.15V74.19A1.9,1.9,0,0,1,366.5,72h14.25a1.9,1.9,0,0,1,2.15,2.15V86.83A1.9,1.9,0,0,1,380.75,89Z"/></g></g></svg>