<svg xmlns="http://www.w3.org/2000/svg" viewBox="0 0 1674.12 108.06"><defs><style>.cls-1{fill:#fff;}.cls-2{fill:#f38f1a;}</style></defs><g id="Camada_2" data-name="Camada 2"><g id="Camada_1-2" data-name="Camada 1"><path class="cls-1" d="M42.69,89H29.84a2.43,2.43,0,0,1-2.47-1.72L.16,15.91A2.77,2.77,0,0,1,0,15a1.44,1.44,0,0,1,.48-1.16,2.11,2.11,0,0,1,1.35-.4H18.17a2.39,2.39,0,0,1,2.42,1.72l16,46.56L51.24,15.21a2.29,2.29,0,0,1,2.42-1.77h16a2.11,2.11,0,0,1,1.42.43,1.47,1.47,0,0,1,.51,1.18,2.68,2.68,0,0,1-.16.86L63.28,40.54l6.94,21.13L85.91,15.21a2.36,2.36,0,0,1,2.42-1.77h16.29a2.24,2.24,0,0,1,1.38.4,1.43,1.43,0,0,1,.51,1.16,2.8,2.8,0,0,1-.17.91L78.87,87.26A2.43,2.43,0,0,1,76.4,89H63.76a2.43,2.43,0,0,1-2.47-1.72l-8-21.62L45.16,87.26A2.43,2.43,0,0,1,42.69,89Z"/><path class="cls-1" d="M115.43,14.79V2.15A1.9,1.9,0,0,1,117.58,0h14.25A1.9,1.9,0,0,1,134,2.15V14.79a1.9,1.9,0,0,1-2.15,2.15H117.58A1.9,1.9,0,0,1,115.43,14.79ZM131.67,89h-14a1.9,1.9,0,0,1-2.15-2.15V26.08a1.9,1.9,0,0,1,2.15-2.16h14a1.91,1.91,0,0,1,2.15,2.16V86.83A1.9,1.9,0,0,1,131.67,89Z"/><path class="cls-1" d="M165,89H151.18A1.9,1.9,0,0,1,149,86.83V7.1A1.9,1.9,0,0,1,151.18,5H165a1.9,1.9,0,0,1,2.15,2.15V86.83A1.9,1.9,0,0,1,165,89Z"/><path class="cls-1" d="M198.17,89H184.35a1.9,1.9,0,0,1-2.15-2.15V7.1A1.9,1.9,0,0,1,184.35,5h13.82a1.9,1.9,0,0,1,2.15,2.15V86.83A1.9,1.9,0,0,1,198.17,89Z"/><path class="cls-1" d="M242.63,108.06H227.85a2.25,2.25,0,0,1-1.4-.37,1.3,1.3,0,0,1-.49-1.08,2.53,2.53,0,0,1,.22-1L233,88.71,209.19,26.4a2.83,2.83,0,0,1-.16-.92,1.42,1.42,0,0,1,.48-1.15,2.05,2.05,0,0,1,1.35-.41h15.7A2.34,2.34,0,0,1,229,25.7l13.06,39.94L255.27,25.7a2.33,2.33,0,0,1,2.47-1.78h15.75a2.15,2.15,0,0,1,1.37.41,1.38,1.38,0,0,1,.51,1.15,2.83,2.83,0,0,1-.16.92L245.1,106.34A2.43,2.43,0,0,1,242.63,108.06Z"/><path class="cls-1" d="M287.84,47.15a2.12,2.12,0,0,1-1.55-.7l-2.91-2.69a2.16,2.16,0,0,1-.75-1.5,2.57,2.57,0,0,1,.75-1.62,33.13,33.13,0,0,0,4.9-5.88,9,9,0,0,0,1.5-4.55v-.48h-7.31a1.9,1.9,0,0,1-2.15-2.15V13.33a1.9,1.9,0,0,1,2.15-2.15h16a1.9,1.9,0,0,1,2.15,2.15V25.91A20.87,20.87,0,0,1,297.42,37a42.46,42.46,0,0,1-8.07,9.54A2.16,2.16,0,0,1,287.84,47.15Z"/><path class="cls-1" d="M320.45,88a40.71,40.71,0,0,1-12-7.5,2,2,0,0,1-.86-1.56,2.33,2.33,0,0,1,.59-1.45l7.26-9.09a2.07,2.07,0,0,1,1.55-.91,2.72,2.72,0,0,1,1.46.59,36.35,36.35,0,0,0,7.77,4.57A20,20,0,0,0,334,74.3a7.81,7.81,0,0,0,4.31-1,3.36,3.36,0,0,0,1.61-3A3.57,3.57,0,0,0,339,67.9a10.23,10.23,0,0,0-3.26-2.17,63.39,63.39,0,0,0-6.55-2.56,37.91,37.91,0,0,1-13.39-7.47q-5.26-4.74-5.27-13a19.24,19.24,0,0,1,2.61-9.79,18.88,18.88,0,0,1,8-7.28,28.33,28.33,0,0,1,13.15-2.77A31.55,31.55,0,0,1,345.24,25a28.89,28.89,0,0,1,10,6.32A2.14,2.14,0,0,1,356,32.8a2.42,2.42,0,0,1-.76,1.5l-8.49,8.76a2,2,0,0,1-1.51.76,2.49,2.49,0,0,1-1.5-.65,21.16,21.16,0,0,0-4.87-2.93,13.19,13.19,0,0,0-5.29-1.15,7.13,7.13,0,0,0-4.17,1A3.24,3.24,0,0,0,328,42.9a3,3,0,0,0,1,2.23,11.44,11.44,0,0,0,3.37,2q2.31,1,6.45,2.34,8.86,2.85,13.71,7.64t4.84,12.95a19.76,19.76,0,0,1-2.72,10,20.4,20.4,0,0,1-7.9,7.61,24.85,24.85,0,0,1-12.29,2.9A37.81,37.81,0,0,1,320.45,88Z"/><path class="cls-1" d="M410.61,85.05a38.92,38.92,0,0,1-19.38-34,38.76,38.76,0,0,1,5.19-19.74,38.13,38.13,0,0,1,14.17-14.16A39.1,39.1,0,0,1,430.53,12a40,40,0,0,1,12.77,2,38.62,38.62,0,0,1,11.05,5.76,2,2,0,0,1,.91,1.61,2.36,2.36,0,0,1-.53,1.4L446,34.19a2.14,2.14,0,0,1-1.62.92,2.38,2.38,0,0,1-1.39-.49,24.88,24.88,0,0,0-6-3,20.14,20.14,0,0,0-6.51-1.1,18.56,18.56,0,0,0-9.73,2.71,20.28,20.28,0,0,0-7.23,7.45,21.36,21.36,0,0,0,0,20.86A20.49,20.49,0,0,0,420.83,69a18.44,18.44,0,0,0,9.7,2.74,20.53,20.53,0,0,0,6.53-.94,22.88,22.88,0,0,0,6.05-3.25,2.71,2.71,0,0,1,1.45-.48,2,2,0,0,1,1.62.91l8.55,11.45a2.85,2.85,0,0,1,.59,1.51,1.82,1.82,0,0,1-.81,1.4,38.51,38.51,0,0,1-11.13,5.88,39.86,39.86,0,0,1-12.85,2.07A38.69,38.69,0,0,1,410.61,85.05Z"/><path class="cls-1" d="M517.09,26.45a24.2,24.2,0,0,1,9.25,10.19,33.85,33.85,0,0,1,3.28,15.24V86.83A1.9,1.9,0,0,1,527.47,89h-14a1.9,1.9,0,0,1-2.15-2.15V53.92a17,17,0,0,0-1.59-7.55,11.88,11.88,0,0,0-4.46-5,12.52,12.52,0,0,0-6.69-1.77,14.76,14.76,0,0,0-7.4,1.91,14.59,14.59,0,0,0-5.29,5A12.37,12.37,0,0,0,484,53.12V86.83A1.9,1.9,0,0,1,481.82,89H468a1.9,1.9,0,0,1-2.15-2.15V7.1A1.9,1.9,0,0,1,468,5h13.82A1.9,1.9,0,0,1,484,7.1V30.54A30.42,30.42,0,0,1,493.06,25a27.17,27.17,0,0,1,10.16-2.15A26.32,26.32,0,0,1,517.09,26.45Z"/><path class="cls-1" d="M555.93,86.08a34,34,0,0,1-12.47-12.26,32.62,32.62,0,0,1-4.6-16.94,33,33,0,0,1,4.63-17.15A33.92,33.92,0,0,1,556,27.39a35.69,35.69,0,0,1,34.84,0,33.92,33.92,0,0,1,12.55,12.34,32.93,32.93,0,0,1,4.63,17.15,32.29,32.29,0,0,1-4.65,16.94,34,34,0,0,1-12.64,12.26,34.91,34.91,0,0,1-17.5,4.51A34.24,34.24,0,0,1,555.93,86.08ZM581.69,71a16,16,0,0,0,5.91-5.89,16.21,16.21,0,0,0,2.18-8.31,16.44,16.44,0,0,0-2.18-8.38,15.91,15.91,0,0,0-5.91-5.92,16.81,16.81,0,0,0-16.45,0,15.87,15.87,0,0,0-5.92,5.92,16.44,16.44,0,0,0-2.18,8.38,16.21,16.21,0,0,0,2.18,8.31A15.93,15.93,0,0,0,565.24,71a16.81,16.81,0,0,0,16.45,0Z"/><path class="cls-1" d="M630.83,86.05a32.45,32.45,0,0,1-12-12.29,34,34,0,0,1-4.33-16.93,34.63,34.63,0,0,1,4.3-17.07,32.36,32.36,0,0,1,12-12.34,33.27,33.27,0,0,1,17.36-4.57,37.06,37.06,0,0,1,11.91,1.88,33.77,33.77,0,0,1,10,5.32,2.15,2.15,0,0,1,.91,1.62,2.61,2.61,0,0,1-.48,1.39l-6.83,9.74a2,2,0,0,1-1.61,1,2.61,2.61,0,0,1-1.4-.54,24,24,0,0,0-5.49-2.85,18.93,18.93,0,0,0-6.29-1,15.17,15.17,0,0,0-8.06,2.26,16.67,16.67,0,0,0-5.92,6.21,17.93,17.93,0,0,0-2.2,8.9,17.38,17.38,0,0,0,2.23,8.76,16.58,16.58,0,0,0,6,6.16,15.48,15.48,0,0,0,8,2.23,19.33,19.33,0,0,0,6.26-.94,21.74,21.74,0,0,0,5.46-2.83,2.67,2.67,0,0,1,1.4-.53,2,2,0,0,1,1.61,1l6.83,9.73a2.57,2.57,0,0,1,.53,1.45,1.72,1.72,0,0,1-.64,1.29,33.63,33.63,0,0,1-10.11,5.49,37.37,37.37,0,0,1-12.2,1.93A33.1,33.1,0,0,1,630.83,86.05Z"/><path class="cls-1" d="M691.53,86.08a33.9,33.9,0,0,1-12.48-12.26,32.62,32.62,0,0,1-4.59-16.94,33,33,0,0,1,4.62-17.15,34,34,0,0,1,12.55-12.34,35.69,35.69,0,0,1,34.84,0A34,34,0,0,1,739,39.73a33,33,0,0,1,4.62,17.15A32.29,32.29,0,0,1,739,73.82a34,34,0,0,1-12.64,12.26,34.91,34.91,0,0,1-17.5,4.51A34.21,34.21,0,0,1,691.53,86.08ZM717.28,71a16,16,0,0,0,5.91-5.89,16.21,16.21,0,0,0,2.18-8.31,16.44,16.44,0,0,0-2.18-8.38,15.91,15.91,0,0,0-5.91-5.92,16.81,16.81,0,0,0-16.45,0,15.87,15.87,0,0,0-5.92,5.92,16.44,16.44,0,0,0-2.17,8.38,16.21,16.21,0,0,0,2.17,8.31A15.93,15.93,0,0,0,700.83,71a16.81,16.81,0,0,0,16.45,0Z"/><path class="cls-1" d="M770.37,89H756.55a1.9,1.9,0,0,1-2.15-2.15V7.1A1.9,1.9,0,0,1,756.55,5h13.82a1.9,1.9,0,0,1,2.15,2.15V86.83A1.9,1.9,0,0,1,770.37,89Z"/><path class="cls-1" d="M838.06,23.92h10.32a1.91,1.91,0,0,1,2.15,2.16V86.83A1.9,1.9,0,0,1,848.38,89h-10.7a2.49,2.49,0,0,1-2.47-1.67l-1.35-3.22q-6.72,6.28-16.88,6.29A32.89,32.89,0,0,1,800,85.83a33.63,33.63,0,0,1-12.25-12.31,33.27,33.27,0,0,1-4.52-17,32.69,32.69,0,0,1,4.54-16.9A33.75,33.75,0,0,1,800.1,27.37,32.83,32.83,0,0,1,817,22.85q10.28,0,17,6.4l1.56-3.66A2.5,2.5,0,0,1,838.06,23.92ZM825.45,70.83a15.11,15.11,0,0,0,5.8-5.75,16.27,16.27,0,0,0,2.13-8.31,16.88,16.88,0,0,0-2.1-8.41,15.56,15.56,0,0,0-5.75-5.89,16.42,16.42,0,0,0-16.21,0,15.13,15.13,0,0,0-5.7,5.88,17.24,17.24,0,0,0-2.07,8.44,16.84,16.84,0,0,0,2,8.34,15,15,0,0,0,5.62,5.72,15.84,15.84,0,0,0,8.09,2.07A16.35,16.35,0,0,0,825.45,70.83Z"/><path class="cls-1" d="M882.25,89h-14a1.9,1.9,0,0,1-2.15-2.15v-46h-5.38a1.9,1.9,0,0,1-2.15-2.15V26.08a1.91,1.91,0,0,1,2.15-2.16H866V12.2A2.17,2.17,0,0,1,868,9.84L882.09,7.1a2,2,0,0,1,.54-.06,1.7,1.7,0,0,1,1.34.54A2.1,2.1,0,0,1,884.45,9V23.92h10.11a1.91,1.91,0,0,1,2.15,2.16V38.71a1.9,1.9,0,0,1-2.15,2.15H884.4v46A1.9,1.9,0,0,1,882.25,89Z"/><path class="cls-1" d="M916.28,86a32.49,32.49,0,0,1-12.07-12.31,34.08,34.08,0,0,1-4.33-16.88,35.72,35.72,0,0,1,4.12-17,31.82,31.82,0,0,1,11.47-12.36,30.9,30.9,0,0,1,16.73-4.6,34,34,0,0,1,17.52,4.35A28.79,28.79,0,0,1,961,39.25a38.06,38.06,0,0,1,3.9,17.47c0,1.43-.08,2.85-.22,4.25a2,2,0,0,1-2.26,2H918.65a16,16,0,0,0,6.07,8.38,16.64,16.64,0,0,0,9.79,3,19,19,0,0,0,6.31-1,22.39,22.39,0,0,0,5.51-2.88,2.36,2.36,0,0,1,1.4-.53,1.94,1.94,0,0,1,1.56,1l6.61,9.41a2.36,2.36,0,0,1,.49,1.35,2.05,2.05,0,0,1-.86,1.61,34.15,34.15,0,0,1-10,5.4,35.82,35.82,0,0,1-11.8,1.91A33.69,33.69,0,0,1,916.28,86Zm25.43-44.68a14.07,14.07,0,0,0-8.92-2.85,14.31,14.31,0,0,0-9,2.91,15.39,15.39,0,0,0-5.34,8.12h28.38A15.22,15.22,0,0,0,941.71,41.34Z"/><path class="cls-1" d="M1056.12,89h-51.4a1.9,1.9,0,0,1-2.15-2.15V15.59a1.9,1.9,0,0,1,2.15-2.15h50.59a1.9,1.9,0,0,1,2.15,2.15V28.76a1.9,1.9,0,0,1-2.15,2.15h-33.39V42.69h25.65a1.9,1.9,0,0,1,2.15,2.15v12.1a1.9,1.9,0,0,1-2.15,2.15h-25.65V71.5h34.2a1.91,1.91,0,0,1,2.15,2.16V86.83A1.9,1.9,0,0,1,1056.12,89Z"/><path class="cls-1" d="M1082.84,89h-17a2.28,2.28,0,0,1-1.38-.38,1.15,1.15,0,0,1-.51-1,2.37,2.37,0,0,1,.49-1.29l21.07-30.59L1065.74,26.5a2.52,2.52,0,0,1-.48-1.29,1.1,1.1,0,0,1,.51-.94,2.42,2.42,0,0,1,1.37-.35h17.2a2.71,2.71,0,0,1,2.58,1.51l9.68,17.37,9.63-17.37a2.8,2.8,0,0,1,1-1.16,2.92,2.92,0,0,1,1.5-.35h17.31a2.28,2.28,0,0,1,1.35.35,1.12,1.12,0,0,1,.48.94,2.26,2.26,0,0,1-.43,1.29l-19.19,29.25,20.54,30.65a2.29,2.29,0,0,1,.43,1.23,1.15,1.15,0,0,1-.49,1,2.14,2.14,0,0,1-1.34.38h-17.1a2.81,2.81,0,0,1-2.58-1.45l-11.24-19.09-11.07,19.09A2.81,2.81,0,0,1,1082.84,89Z"/><path class="cls-1" d="M1189.07,27.37a33.68,33.68,0,0,1,12.29,12.23,32.69,32.69,0,0,1,4.54,16.9,33.26,33.26,0,0,1-4.51,17,33.66,33.66,0,0,1-12.26,12.31,32.87,32.87,0,0,1-16.94,4.55,24.1,24.1,0,0,1-15.27-4.9v20.43a1.9,1.9,0,0,1-2.15,2.15h-14a1.9,1.9,0,0,1-2.15-2.15V26.08a1.91,1.91,0,0,1,2.15-2.16h10.33a2.5,2.5,0,0,1,2.47,1.67l1.56,3.66q6.78-6.41,17-6.4A32.8,32.8,0,0,1,1189.07,27.37ZM1180,70.83a14.92,14.92,0,0,0,5.62-5.72,16.84,16.84,0,0,0,2-8.34,17.24,17.24,0,0,0-2.07-8.44,15.13,15.13,0,0,0-5.7-5.88,15.91,15.91,0,0,0-22,5.91,16.88,16.88,0,0,0-2.1,8.41,16.27,16.27,0,0,0,2.13,8.31,15.11,15.11,0,0,0,5.8,5.75,16.35,16.35,0,0,0,8.15,2.07A15.84,15.84,0,0,0,1180,70.83Z"/><path class="cls-1" d="M1228.75,86a32.49,32.49,0,0,1-12.07-12.31,34.08,34.08,0,0,1-4.33-16.88,35.72,35.72,0,0,1,4.12-17A31.77,31.77,0,0,1,1228,27.45a30.87,30.87,0,0,1,16.72-4.6,34,34,0,0,1,17.52,4.35,28.79,28.79,0,0,1,11.32,12.05,38.06,38.06,0,0,1,3.9,17.47c0,1.43-.08,2.85-.22,4.25a2,2,0,0,1-2.26,2h-43.81a16,16,0,0,0,6.07,8.38,16.64,16.64,0,0,0,9.79,3,19,19,0,0,0,6.31-1,22.62,22.62,0,0,0,5.52-2.88,2.31,2.31,0,0,1,1.39-.53,1.94,1.94,0,0,1,1.56,1l6.62,9.41a2.42,2.42,0,0,1,.48,1.35,2.05,2.05,0,0,1-.86,1.61,34.23,34.23,0,0,1-10,5.4,35.93,35.93,0,0,1-11.81,1.91A33.69,33.69,0,0,1,1228.75,86Zm25.43-44.68a14.07,14.07,0,0,0-8.92-2.85,14.26,14.26,0,0,0-9,2.91,15.4,15.4,0,0,0-5.35,8.12h28.38A15.22,15.22,0,0,0,1254.18,41.34Z"/><path class="cls-1" d="M1335.58,26.67a2,2,0,0,1,1.13,1.72,2.7,2.7,0,0,1-.33,1.23l-6.18,11.62a1.89,1.89,0,0,1-1.66,1.18,2.26,2.26,0,0,1-1.24-.38,15.32,15.32,0,0,0-7.42-2.15,12,12,0,0,0-6.48,1.94,14.15,14.15,0,0,0-5,5.72,19.87,19.87,0,0,0-1.93,9.12V86.83a1.9,1.9,0,0,1-2.15,2.15h-14a1.9,1.9,0,0,1-2.15-2.15V26.08a1.91,1.91,0,0,1,2.15-2.16H1301a2.5,2.5,0,0,1,2.47,1.67l2.64,6.29a18.42,18.42,0,0,1,6.77-6.61,19.12,19.12,0,0,1,9.62-2.42A25.37,25.37,0,0,1,1335.58,26.67Z"/><path class="cls-1" d="M1345.31,14.79V2.15A1.9,1.9,0,0,1,1347.46,0h14.25a1.9,1.9,0,0,1,2.15,2.15V14.79a1.9,1.9,0,0,1-2.15,2.15h-14.25A1.9,1.9,0,0,1,1345.31,14.79ZM1361.55,89h-14a1.9,1.9,0,0,1-2.15-2.15V26.08a1.9,1.9,0,0,1,2.15-2.16h14a1.91,1.91,0,0,1,2.15,2.16V86.83A1.9,1.9,0,0,1,1361.55,89Z"/><path class="cls-1" d="M1391,86a32.42,32.42,0,0,1-12.07-12.31,34,34,0,0,1-4.33-16.88,35.83,35.83,0,0,1,4.11-17,31.84,31.84,0,0,1,11.48-12.36,30.87,30.87,0,0,1,16.72-4.6,34.05,34.05,0,0,1,17.53,4.35,28.85,28.85,0,0,1,11.32,12.05,38.19,38.19,0,0,1,3.89,17.47c0,1.43-.07,2.85-.21,4.25a2,2,0,0,1-2.26,2h-43.82a16,16,0,0,0,6.08,8.38,16.63,16.63,0,0,0,9.78,3,19,19,0,0,0,6.32-1,22.56,22.56,0,0,0,5.51-2.88,2.34,2.34,0,0,1,1.4-.53,2,2,0,0,1,1.56,1l6.61,9.41a2.43,2.43,0,0,1,.49,1.35,2,2,0,0,1-.87,1.61,34,34,0,0,1-10,5.4,35.87,35.87,0,0,1-11.8,1.91A33.67,33.67,0,0,1,1391,86Zm25.43-44.68a14.08,14.08,0,0,0-8.93-2.85,14.28,14.28,0,0,0-9,2.91,15.4,15.4,0,0,0-5.35,8.12h28.39A15.28,15.28,0,0,0,1416.44,41.34Z"/><path class="cls-1" d="M1501.81,26.45a24.2,24.2,0,0,1,9.25,10.19,33.71,33.71,0,0,1,3.28,15.24V86.83a1.9,1.9,0,0,1-2.15,2.15h-14a1.9,1.9,0,0,1-2.15-2.15V53.92q0-6.56-3.25-10.45a11,11,0,0,0-9-3.9,15.82,15.82,0,0,0-13.1,7,11.83,11.83,0,0,0-2.07,6.59V86.83a1.9,1.9,0,0,1-2.15,2.15h-14a1.9,1.9,0,0,1-2.15-2.15V26.08a1.9,1.9,0,0,1,2.15-2.16h10.69a2.5,2.5,0,0,1,2.48,1.67l2.31,5.54a30.43,30.43,0,0,1,9.3-5.94,27.18,27.18,0,0,1,10.59-2.34A26.32,26.32,0,0,1,1501.81,26.45Z"/><path class="cls-1" d="M1539.9,86.05a32.59,32.59,0,0,1-12-12.29,34.15,34.15,0,0,1-4.32-16.93,34.63,34.63,0,0,1,4.3-17.07,32.29,32.29,0,0,1,12-12.34,33.27,33.27,0,0,1,17.36-4.57,37.06,37.06,0,0,1,11.91,1.88,33.72,33.72,0,0,1,10,5.32,2.14,2.14,0,0,1,.92,1.62,2.55,2.55,0,0,1-.49,1.39l-6.82,9.74a2,2,0,0,1-1.62,1,2.67,2.67,0,0,1-1.4-.54,23.76,23.76,0,0,0-5.48-2.85,19,19,0,0,0-6.29-1,15.17,15.17,0,0,0-8.06,2.26,16.6,16.6,0,0,0-5.92,6.21,17.93,17.93,0,0,0-2.2,8.9,17.38,17.38,0,0,0,2.23,8.76,16.58,16.58,0,0,0,6,6.16,15.48,15.48,0,0,0,8,2.23,19.37,19.37,0,0,0,6.26-.94,21.68,21.68,0,0,0,5.45-2.83,2.73,2.73,0,0,1,1.4-.53,2,2,0,0,1,1.62,1l6.82,9.73a2.51,2.51,0,0,1,.54,1.45,1.72,1.72,0,0,1-.64,1.29,33.63,33.63,0,0,1-10.11,5.49,37.39,37.39,0,0,1-12.21,1.93A33.13,33.13,0,0,1,1539.9,86.05Z"/><path class="cls-1" d="M1599.93,86a32.49,32.49,0,0,1-12.07-12.31,34.08,34.08,0,0,1-4.33-16.88,35.72,35.72,0,0,1,4.12-17,31.77,31.77,0,0,1,11.48-12.36,30.87,30.87,0,0,1,16.72-4.6,34,34,0,0,1,17.52,4.35,28.79,28.79,0,0,1,11.32,12.05,38.06,38.06,0,0,1,3.9,17.47c0,1.43-.08,2.85-.22,4.25a2,2,0,0,1-2.26,2H1602.3a16,16,0,0,0,6.07,8.38,16.64,16.64,0,0,0,9.79,3,19,19,0,0,0,6.31-1,22.62,22.62,0,0,0,5.52-2.88,2.31,2.31,0,0,1,1.39-.53,1.94,1.94,0,0,1,1.56,1l6.61,9.41a2.36,2.36,0,0,1,.49,1.35,2.05,2.05,0,0,1-.86,1.61,34.23,34.23,0,0,1-10,5.4,35.93,35.93,0,0,1-11.81,1.91A33.69,33.69,0,0,1,1599.93,86Zm25.43-44.68a14.07,14.07,0,0,0-8.92-2.85,14.26,14.26,0,0,0-9,2.91,15.35,15.35,0,0,0-5.35,8.12h28.38A15.22,15.22,0,0,0,1625.36,41.34Z"/><path class="cls-2" d="M1672,89h-14.24a1.9,1.9,0,0,1-2.15-2.15V74.19a1.9,1.9,0,0,1,2.15-2.15H1672a1.9,1.9,0,0,1,2.15,2.15V86.83A1.9,1.9,0,0,1,1672,89Z"/></g></g></svg>